<?xml version="1.0" encoding="utf-8"?>
<!-- Generator: Adobe Illustrator 27.9.0, SVG Export Plug-In . SVG Version: 6.00 Build 0)  -->
<svg version="1.1" id="圖層_1" xmlns:sketch="http://www.bohemiancoding.com/sketch/ns"
	 xmlns="http://www.w3.org/2000/svg" xmlns:xlink="http://www.w3.org/1999/xlink" x="0px" y="0px" viewBox="0 0 32 32"
	 style="enable-background:new 0 0 32 32;" xml:space="preserve">
<style type="text/css">
	.st0{fill:#C23E00;}
</style>
<g id="Icons_new_Arranged_Names">
	<g id="_x31_01_Warning">
		<path id="Triangle_29" class="st0" d="M14.1,3.8c1.1-1.7,2.9-1.7,3.9,0l13.4,21.5c1.5,2.3,0.4,4.2-2.3,4.2h-26
			c-2.8,0-3.8-1.9-2.3-4.2L14.1,3.8z M16,20.9c0.6,0,1.3-0.5,1.3-1.3v-7.4c0-0.6-0.5-1.3-1.3-1.3c-0.6,0-1.3,0.5-1.3,1.3v7.4
			C14.7,20.3,15.4,20.9,16,20.9z M16,25.9c0.6,0,1.3-0.5,1.3-1.3s-0.5-1.3-1.3-1.3s-1.3,0.5-1.3,1.3S15.4,25.9,16,25.9z"/>
	</g>
</g>
</svg>
