<svg width="54" height="54" viewBox="0 0 54 54" fill="none" xmlns="http://www.w3.org/2000/svg">
<g clip-path="url(#clip0_53_1002)">
<path d="M17.2447 11.0433C17.1186 11.0433 16.9925 11.0252 16.8735 10.9889L2.87221 6.73186C2.84387 6.72332 2.81554 6.71372 2.7872 6.70304C0.36698 5.75858 -0.501634 4.21968 0.27771 2.25178C0.286212 2.22937 0.297547 2.20696 0.308883 2.18561C1.02163 0.858024 2.70926 0 4.61086 0C5.20174 0 5.78554 0.0853755 6.34242 0.253992L27.3563 6.64115C27.7319 6.75534 27.977 7.0296 27.977 7.33376C27.977 7.63791 27.7319 7.91217 27.3563 8.02636L17.6146 10.9889C17.4955 11.0252 17.3694 11.0433 17.2433 11.0433H17.2447ZM3.66006 5.36051L17.2447 9.49055L24.3367 7.33376L5.60275 1.64028C5.28251 1.54423 4.9481 1.49407 4.61086 1.49407C3.53678 1.49407 2.58173 1.97217 2.16514 2.71387C1.69328 3.94435 2.15522 4.76289 3.66006 5.36051Z" fill="#444444"/>
<path d="M49.2224 20.5639C48.6783 20.5639 48.137 20.4913 47.6269 20.3366L26.6158 13.9494C26.2403 13.8353 25.9951 13.561 25.9951 13.2568C25.9951 12.9527 26.2403 12.6784 26.6158 12.5642L36.3575 9.60277C36.5956 9.5302 36.862 9.5302 37.1001 9.60277L51.0999 13.8577C53.4691 14.5791 54.6197 16.6185 53.6646 18.4039C52.9618 19.7155 51.0801 20.5628 49.2238 20.5628L49.2224 20.5639ZM29.6368 13.2568L48.3694 18.9514C49.6106 19.3292 51.3209 18.7817 51.824 17.8468C52.3709 16.8245 51.712 15.657 50.356 15.244L36.7274 11.1011L29.6368 13.2568Z" fill="#444444"/>
<path d="M4.61064 20.5915C2.70904 20.5915 1.0214 19.7335 0.308659 18.4048C0.297323 18.3835 0.287404 18.3611 0.277485 18.3387C-0.503275 16.3697 0.365339 14.8308 2.78839 13.8874C2.81531 13.8767 2.84365 13.8671 2.87199 13.8586L31.9344 5.02542C32.4417 4.87067 33.0212 5.05636 33.2253 5.43842C33.4308 5.82047 33.1842 6.25589 32.6769 6.41063L3.65984 15.231C2.15358 15.8286 1.69164 16.6461 2.16491 17.8776C2.58151 18.6204 3.53656 19.0985 4.60922 19.0985C4.94788 19.0985 5.28229 19.0494 5.60111 18.9523L50.3113 5.36051C51.8176 4.76289 52.2795 3.94435 51.8063 2.71494C51.3897 1.97217 50.4346 1.49407 49.3605 1.49407C49.0219 1.49407 48.6875 1.54316 48.3686 1.64028L44.2183 2.9017C43.711 3.05644 43.1329 2.87075 42.9274 2.4887C42.7219 2.10664 42.9685 1.67123 43.4758 1.51648L47.6261 0.255059C48.1816 0.0864427 48.7654 0 49.3605 0C51.2621 0 52.9498 0.858024 53.6625 2.18668C53.6738 2.20802 53.6838 2.23043 53.6937 2.25285C54.473 4.22075 53.6058 5.76071 51.1828 6.70411C51.1559 6.71478 51.1275 6.72439 51.0978 6.73292L6.34503 20.3364C5.78957 20.5051 5.20577 20.5915 4.61064 20.5915Z" fill="#444444"/>
<path d="M26.9639 39.7561C22.4281 39.7561 18.7383 36.9771 18.7383 33.5611V30.9475C18.7383 27.5314 22.4281 24.7524 26.9639 24.7524C31.4997 24.7524 35.1895 27.5314 35.1895 30.9475V33.5611C35.1895 36.9771 31.4997 39.7561 26.9639 39.7561ZM26.9639 26.2465C23.522 26.2465 20.7221 28.3553 20.7221 30.9475V33.5611C20.7221 36.1533 23.522 38.262 26.9639 38.262C30.4058 38.262 33.2057 36.1533 33.2057 33.5611V30.9475C33.2057 28.3553 30.4058 26.2465 26.9639 26.2465Z" fill="#444444"/>
<path d="M29.9641 44.518H23.9645C23.4162 44.518 22.9727 44.184 22.9727 43.771V38.5215C22.9727 38.2675 23.1441 38.0306 23.4275 37.8929C23.7109 37.7552 24.068 37.736 24.3755 37.8406C25.1917 38.1202 26.0631 38.2621 26.9643 38.2621C27.8655 38.2621 28.737 38.1202 29.5546 37.8406C29.8621 37.736 30.2177 37.7552 30.5025 37.8929C30.7859 38.0306 30.9574 38.2675 30.9574 38.5215V43.771C30.9574 44.184 30.5139 44.518 29.9655 44.518H29.9641ZM24.9564 43.024H28.9722V39.5716C27.6671 39.8181 26.2601 39.8181 24.9564 39.5716V43.024Z" fill="#444444"/>
<path d="M37.1095 54C36.5611 54 36.1176 53.666 36.1176 53.253V44.518H17.3666V53.253C17.3666 53.666 16.9231 54 16.3747 54C15.8263 54 15.3828 53.666 15.3828 53.253V43.771C15.3828 43.358 15.8263 43.0239 16.3747 43.0239H37.1109C37.6593 43.0239 38.1028 43.358 38.1028 43.771V53.253C38.1028 53.666 37.6593 54 37.1109 54H37.1095Z" fill="#444444"/>
<path d="M37.1091 50.902C36.9107 50.902 36.7152 50.8572 36.548 50.7708C36.2787 50.631 36.1172 50.4015 36.1172 50.155V43.77C36.1172 43.4584 36.3737 43.1798 36.7605 43.071L46.1041 40.4339C48.4747 39.7659 51.1047 40.5513 52.2213 42.2599C52.5557 42.7722 52.7257 43.3196 52.7257 43.8874C52.7257 45.4273 51.4929 46.7795 49.5857 47.3334L37.4662 50.8519C37.3514 50.885 37.2295 50.902 37.1091 50.902ZM38.101 44.2886V49.0665L48.8729 45.9396C50.0079 45.6098 50.7419 44.8052 50.7419 43.8874C50.7419 43.5512 50.6413 43.2247 50.4415 42.9194C49.777 41.9024 48.2112 41.435 46.7999 41.832L38.101 44.2876V44.2886Z" fill="#444444"/>
<path d="M51.7212 44.4165C51.2054 44.4165 50.7718 44.1166 50.7335 43.7239C50.7066 43.4454 50.6074 43.1743 50.4416 42.9192C49.7771 41.9022 48.2113 41.4348 46.8 41.8318L44.8134 42.392C44.4974 42.4806 44.1431 42.4433 43.8725 42.2907C43.6018 42.1381 43.4531 41.8937 43.4771 41.6397L44.4421 31.2943C44.5781 29.8194 46.2233 28.6626 48.1872 28.6626C49.1564 28.6626 50.0761 28.9401 50.7775 29.4438C51.4789 29.9454 51.8912 30.6241 51.938 31.353L52.7131 43.6311C52.7386 44.0398 52.3234 44.3877 51.7821 44.4122C51.7623 44.4122 51.741 44.4133 51.7212 44.4133V44.4165ZM47.8344 40.1968C48.8064 40.1968 49.7516 40.4156 50.5493 40.8179L49.9556 31.4277C49.9329 31.0851 49.7388 30.765 49.4087 30.5281C49.0771 30.2901 48.6435 30.1588 48.1872 30.1588C47.2605 30.1588 46.4854 30.7041 46.4216 31.4L45.5644 40.5864L46.1057 40.4337C46.6753 40.2737 47.2605 40.1968 47.8358 40.1968H47.8344Z" fill="#444444"/>
<path d="M16.3744 50.902C16.254 50.902 16.1335 50.886 16.0174 50.8519L3.89644 47.3334C1.99059 46.7795 0.757812 45.4273 0.757812 43.8874C0.757812 43.3196 0.927851 42.7722 1.26226 42.2599C2.37885 40.5513 5.00736 39.7659 7.37656 40.4339L16.7202 43.071C17.107 43.1798 17.3635 43.4594 17.3635 43.77V50.155C17.3635 50.4015 17.202 50.632 16.9327 50.7708C16.7655 50.8572 16.5686 50.902 16.3716 50.902H16.3744ZM5.65492 41.6922C4.57376 41.6922 3.54928 42.1479 3.04483 42.9205C2.84504 43.2257 2.74443 43.5512 2.74443 43.8885C2.74443 44.8052 3.47701 45.6109 4.61202 45.9407L15.384 49.0675V44.2897L6.68507 41.8341C6.34641 41.7391 5.99783 41.6932 5.65634 41.6932L5.65492 41.6922Z" fill="#444444"/>
<path d="M1.75275 44.5459C1.48211 44.5459 1.22138 44.4626 1.03434 44.3143C0.847296 44.167 0.748107 43.9674 0.76086 43.7636L1.54729 31.3575C1.59688 30.6265 2.00923 29.9477 2.70922 29.4461C3.40921 28.9435 4.32884 28.666 5.29806 28.666C7.262 28.666 8.90854 29.8218 9.04316 31.2988L10.0521 41.6527C10.0761 41.9067 9.92736 42.1521 9.65671 42.3047C9.38607 42.4574 9.0304 42.4958 8.71441 42.4061L6.68387 41.8341C5.27397 41.4361 3.70961 41.9035 3.04504 42.9216C2.85942 43.2055 2.75881 43.5085 2.74464 43.8234C2.72764 44.2268 2.28837 44.5469 1.75275 44.5469V44.5459ZM5.29664 30.159C4.83895 30.159 4.40535 30.2892 4.07519 30.5272C3.74362 30.7641 3.54949 31.0843 3.52682 31.43L2.93169 40.8203C4.20272 40.1789 5.84501 40.0017 7.37819 40.434L7.95774 40.5972L7.06221 31.4034C6.99844 30.7044 6.22193 30.159 5.29522 30.159H5.29664Z" fill="#444444"/>
<path d="M5.12666 30.159C4.57828 30.159 4.13477 29.825 4.13477 29.412V19.8169C4.13477 19.4039 4.57828 19.0698 5.12666 19.0698C5.67503 19.0698 6.11855 19.4039 6.11855 19.8169V29.412C6.11855 29.825 5.67503 30.159 5.12666 30.159Z" fill="#444444"/>
<path d="M26.9636 26.2467C26.4152 26.2467 25.9717 25.9127 25.9717 25.4996V13.2568C25.9717 12.8438 26.4152 12.5098 26.9636 12.5098C27.5119 12.5098 27.9555 12.8438 27.9555 13.2568V25.4996C27.9555 25.9127 27.5119 26.2467 26.9636 26.2467Z" fill="#444444"/>
<path d="M48.1862 30.159C47.6379 30.159 47.1943 29.825 47.1943 29.412V19.6963C47.1943 19.2833 47.6379 18.9492 48.1862 18.9492C48.7346 18.9492 49.1781 19.2833 49.1781 19.6963V29.412C49.1781 29.825 48.7346 30.159 48.1862 30.159Z" fill="#444444"/>
<path d="M38.0954 4.74453C38.0302 4.74453 37.965 4.73919 37.9013 4.72959C37.8375 4.71998 37.7752 4.70504 37.7157 4.6869C37.6561 4.66769 37.598 4.64528 37.5442 4.6186C37.4904 4.59085 37.4393 4.55991 37.394 4.52576C37.3487 4.49161 37.3061 4.45319 37.2707 4.41157C37.2339 4.37101 37.2041 4.32832 37.1786 4.28244C37.1545 4.23761 37.1347 4.19066 37.1219 4.14263C37.1092 4.09461 37.1035 4.04552 37.1035 3.99749C37.1035 3.94947 37.1092 3.89931 37.1219 3.85129C37.1347 3.80327 37.1545 3.75631 37.1786 3.71149C37.2041 3.66666 37.2339 3.62291 37.2707 3.58236C37.3061 3.5418 37.3472 3.50338 37.394 3.46923C37.4393 3.43402 37.4904 3.40307 37.5442 3.37639C37.598 3.34864 37.6561 3.32623 37.7157 3.30702C37.7752 3.28888 37.8375 3.27394 37.9013 3.26433C38.2229 3.21631 38.5658 3.29528 38.7968 3.46923C38.8422 3.50338 38.8833 3.5418 38.9201 3.58236C38.9555 3.62291 38.9853 3.66666 39.0108 3.71149C39.0349 3.75631 39.0547 3.80327 39.0675 3.85129C39.0802 3.89931 39.0873 3.9484 39.0873 3.99749C39.0873 4.04659 39.0802 4.09461 39.0675 4.14263C39.0547 4.19066 39.0349 4.23761 39.0108 4.28244C38.9853 4.32832 38.9555 4.37101 38.9201 4.41157C38.8833 4.45319 38.8422 4.49054 38.7968 4.52576C38.6112 4.66449 38.3561 4.74453 38.0954 4.74453Z" fill="#444444"/>
</g>
<defs>
<clipPath id="clip0_53_1002">
<rect width="54" height="54" fill="white"/>
</clipPath>
</defs>
</svg>
