<?xml version="1.0" encoding="utf-8"?>
<!-- Generator: Adobe Illustrator 27.9.0, SVG Export Plug-In . SVG Version: 6.00 Build 0)  -->
<svg version="1.1" id="圖層_1" xmlns="http://www.w3.org/2000/svg" xmlns:xlink="http://www.w3.org/1999/xlink" x="0px" y="0px"
	 viewBox="0 0 48 48" style="enable-background:new 0 0 48 48;" xml:space="preserve">
<style type="text/css">
	.st0{fill:#0866FF;}
	.st1{fill:#FFFFFF;}
</style>
<g id="Logo">
	<path id="Initiator" class="st0" d="M40,24c0-8.8-7.2-16-16-16S8,15.2,8,24c0,7.5,5.2,13.8,12.1,15.5V28.9h-3.3V24h3.3v-2.1
		c0-5.4,2.5-8,7.8-8c1,0,2.8,0.2,3.5,0.4v4.4c-0.4,0-1-0.1-1.8-0.1c-2.6,0-3.6,1-3.6,3.6V24h5.2l-0.9,4.9h-4.3v11
		C33.9,38.9,40,32.2,40,24z"/>
	<path id="F" class="st1" d="M30.3,28.9l0.9-4.9h-5.2v-1.7c0-2.6,1-3.6,3.6-3.6c0.8,0,1.5,0,1.8,0.1v-4.4c-0.7-0.2-2.5-0.4-3.5-0.4
		c-5.3,0-7.8,2.5-7.8,8V24h-3.3v4.9h3.3v10.6c1.2,0.3,2.5,0.5,3.9,0.5c0.7,0,1.3,0,1.9-0.1v-11H30.3z"/>
</g>
</svg>
