<?xml version="1.0" encoding="utf-8"?>
<!-- Generator: Adobe Illustrator 27.4.1, SVG Export Plug-In . SVG Version: 6.00 Build 0)  -->
<svg version="1.1" xmlns="http://www.w3.org/2000/svg" xmlns:xlink="http://www.w3.org/1999/xlink" x="0px" y="0px"
	 viewBox="0 0 28 28" style="enable-background:new 0 0 28 28;" xml:space="preserve">
<style type="text/css">
	.st0{display:none;}
	.st1{display:inline;fill-rule:evenodd;clip-rule:evenodd;}
	.st2{display:inline;}
	.st3{clip-path:url(#SVGID_00000000903993293898056500000014355320636012571827_);}
	.st4{fill-rule:evenodd;clip-rule:evenodd;}
</style>
<g id="圖層_5" class="st0">
	<path class="st1" d="M14,4c3.1,0,5.6,2.5,5.6,5.6c0,3.1-2.5,5.6-5.6,5.6s-5.6-2.5-5.6-5.6C8.4,6.5,10.9,4,14,4z M14,5.5
		c-2.3,0-4.2,1.9-4.2,4.2c0,2.3,1.9,4.2,4.2,4.2c2.3,0,4.2-1.9,4.2-4.2C18.2,7.3,16.3,5.5,14,5.5z M4.9,24c-0.1,0-0.2,0-0.4-0.1
		c-0.4-0.2-0.5-0.7-0.3-1c2-3.5,5.7-5.7,9.7-5.7s7.7,2.2,9.7,5.7c0.2,0.3,0.1,0.8-0.3,1c-0.3,0.2-0.8,0.1-1-0.3
		c-1.7-3-5-4.9-8.5-4.9c-3.5,0-6.7,1.9-8.4,4.9C5.4,23.9,5.2,24,4.9,24z"/>
</g>
<g id="圖層_3" class="st0">
	<path class="st1" d="M5.4,14c0-5.5,4.5-10,10-10c5.5,0,10,4.5,10,10c0,5.5-4.5,10-10,10H3.2c-0.3,0-0.6-0.2-0.6-0.5
		c-0.1-0.3,0-0.6,0.3-0.8c0,0,0.2-0.2,0.6-0.4c0.8-0.6,2.2-1.5,3.2-2.2c0.3-0.2,0.4-0.7,0.2-1l0,0C5.9,17.6,5.4,15.8,5.4,14z
		 M5.3,22.7h10.1c4.8,0,8.7-3.9,8.7-8.7c0-4.8-3.9-8.7-8.7-8.7c-4.8,0-8.7,3.9-8.7,8.7c0,1.6,0.4,3.1,1.2,4.4
		c0.6,0.9,0.3,2.2-0.6,2.8l0,0L5.3,22.7z M15.4,9c-1.6,0-2.8,1.3-2.8,2.8c0,0.4,0.3,0.7,0.7,0.7s0.7-0.3,0.7-0.7
		c0-0.8,0.7-1.5,1.5-1.5c0.8,0,1.5,0.7,1.5,1.5c0,1-0.7,1.6-1,1.7c-0.7,0.5-1.2,1.3-1.2,2.2c0,0.4,0.3,0.7,0.7,0.7
		c0.4,0,0.7-0.3,0.7-0.7c0-0.4,0.2-0.9,0.6-1.1l0,0c1.4-1,1.6-2.3,1.6-2.8C18.3,10.3,17,9,15.4,9z M15.4,19c0.4,0,0.7-0.3,0.7-0.7
		c0-0.4-0.3-0.7-0.7-0.7s-0.7,0.3-0.7,0.7C14.8,18.7,15.1,19,15.4,19z"/>
</g>
<g id="圖層_1">
	<path d="M22.7,6.3H5.3h0C4.1,6.3,3,7.4,3,8.7v10.7v0c0,1.3,1.1,2.3,2.3,2.3h17.3h0c1.3,0,2.3-1.1,2.4-2.3v0V8.7v0
		C25,7.4,23.9,6.3,22.7,6.3z M23.1,7.4L23.1,7.4L23.1,7.4L23.1,7.4L23.1,7.4z M23.7,8.7v10.6L18.3,13l5.4-4.7
		C23.7,8.4,23.7,8.5,23.7,8.7z M23.4,20.4L23.4,20.4L23.4,20.4L23.4,20.4L23.4,20.4z M17.4,13.5L17.4,13.5L17.4,13.5L17.4,13.5
		L17.4,13.5z M13.7,16.3L13.7,16.3L13.7,16.3L13.7,16.3z M14,15.1L5.4,7.6h17.1L14,15.1z M10.7,13.9l2.9,2.6l0,0l0,0
		c0.1,0.1,0.3,0.1,0.4,0.2l0,0c0,0,0,0,0,0c0,0,0,0,0,0v0c0.2,0,0.3-0.1,0.4-0.2l0,0l-0.1-0.2l0,0l0.1,0.2l2.9-2.6l5.7,6.5
		c-0.1,0-0.2,0.1-0.4,0.1H5.3c-0.1,0-0.3,0-0.4-0.1L10.7,13.9z M23.7,7.9L23.7,7.9L23.7,7.9L23.7,7.9L23.7,7.9z M10,13L10,13L10,13
		L10,13L10,13z M4.3,8.3L9.7,13l-5.5,6.2V8.7C4.3,8.5,4.3,8.4,4.3,8.3z"/>
</g>
<g id="圖層_2" class="st0">
	<g class="st2">
		<defs>
			<rect id="SVGID_1_" x="4" y="4" width="20" height="20"/>
		</defs>
		<clipPath id="SVGID_00000064321303306848781840000000736025980536776859_">
			<use xlink:href="#SVGID_1_"  style="overflow:visible;"/>
		</clipPath>
		<g style="clip-path:url(#SVGID_00000064321303306848781840000000736025980536776859_);">
			<path class="st4" d="M21.4,5.8h2c0.2,0,0.4,0.2,0.4,0.4v17.2c0,0.2-0.2,0.4-0.4,0.4H4.6c-0.2,0-0.4-0.2-0.4-0.4V6.2
				c0-0.2,0.2-0.4,0.4-0.4h2V5.6c0-0.8,0.6-1.4,1.4-1.4c0.8,0,1.4,0.6,1.4,1.4v0.2h9.4V5.6c0-0.8,0.6-1.4,1.4-1.4
				c0.8,0,1.4,0.6,1.4,1.4V5.8z M20.1,5c-0.3,0-0.6,0.3-0.6,0.6v0.6v0.6c0,0.3,0.3,0.6,0.6,0.6c0.3,0,0.6-0.3,0.6-0.6V5.6
				C20.6,5.3,20.4,5,20.1,5z M7.9,5C7.6,5,7.4,5.3,7.4,5.6v0.6v0.6c0,0.3,0.3,0.6,0.6,0.6s0.6-0.3,0.6-0.6V5.6C8.5,5.3,8.3,5,7.9,5z
				 M6.6,6.6H5v2.3h18V6.6h-1.6v0.2c0,0.7-0.5,1.3-1.2,1.4c-0.8,0.1-1.5-0.6-1.5-1.4V6.6H9.3v0.2c0,0.8-0.6,1.4-1.4,1.4
				c-0.8,0-1.4-0.6-1.4-1.4V6.6z M5,23h18V9.7H5V23z M10.1,12H9.7c-0.2,0-0.4-0.2-0.4-0.4c0-0.2,0.2-0.4,0.4-0.4h0.4
				c0.2,0,0.4,0.2,0.4,0.4C10.5,11.9,10.3,12,10.1,12z M12.8,12h-0.4c-0.2,0-0.4-0.2-0.4-0.4c0-0.2,0.2-0.4,0.4-0.4h0.4
				c0.2,0,0.4,0.2,0.4,0.4C13.2,11.9,13,12,12.8,12z M15.2,12h0.4c0.2,0,0.4-0.2,0.4-0.4c0-0.2-0.2-0.4-0.4-0.4h-0.4
				c-0.2,0-0.4,0.2-0.4,0.4C14.8,11.9,15,12,15.2,12z M18.3,12h-0.4c-0.2,0-0.4-0.2-0.4-0.4c0-0.2,0.2-0.4,0.4-0.4h0.4
				c0.2,0,0.4,0.2,0.4,0.4C18.7,11.9,18.5,12,18.3,12z M20.6,12H21c0.2,0,0.4-0.2,0.4-0.4c0-0.2-0.2-0.4-0.4-0.4h-0.4
				c-0.2,0-0.4,0.2-0.4,0.4C20.2,11.9,20.4,12,20.6,12z M7.4,14.4H7c-0.2,0-0.4-0.2-0.4-0.4s0.2-0.4,0.4-0.4h0.4
				c0.2,0,0.4,0.2,0.4,0.4S7.6,14.4,7.4,14.4z M9.7,14.4h0.4c0.2,0,0.4-0.2,0.4-0.4s-0.2-0.4-0.4-0.4H9.7c-0.2,0-0.4,0.2-0.4,0.4
				S9.5,14.4,9.7,14.4z M12.8,14.4h-0.4c-0.2,0-0.4-0.2-0.4-0.4s0.2-0.4,0.4-0.4h0.4c0.2,0,0.4,0.2,0.4,0.4S13,14.4,12.8,14.4z
				 M15.2,14.4h0.4c0.2,0,0.4-0.2,0.4-0.4s-0.2-0.4-0.4-0.4h-0.4c-0.2,0-0.4,0.2-0.4,0.4S15,14.4,15.2,14.4z M18.3,14.4h-0.4
				c-0.2,0-0.4-0.2-0.4-0.4s0.2-0.4,0.4-0.4h0.4c0.2,0,0.4,0.2,0.4,0.4S18.5,14.4,18.3,14.4z M20.6,14.4H21c0.2,0,0.4-0.2,0.4-0.4
				s-0.2-0.4-0.4-0.4h-0.4c-0.2,0-0.4,0.2-0.4,0.4S20.4,14.4,20.6,14.4z M7.4,16.7H7c-0.2,0-0.4-0.2-0.4-0.4C6.6,16.1,6.8,16,7,16
				h0.4c0.2,0,0.4,0.2,0.4,0.4C7.8,16.6,7.6,16.7,7.4,16.7z M9.7,16.7h0.4c0.2,0,0.4-0.2,0.4-0.4c0-0.2-0.2-0.4-0.4-0.4H9.7
				c-0.2,0-0.4,0.2-0.4,0.4C9.3,16.6,9.5,16.7,9.7,16.7z M12.8,16.7h-0.4c-0.2,0-0.4-0.2-0.4-0.4c0-0.2,0.2-0.4,0.4-0.4h0.4
				c0.2,0,0.4,0.2,0.4,0.4C13.2,16.6,13,16.7,12.8,16.7z M15.2,16.7h0.4c0.2,0,0.4-0.2,0.4-0.4c0-0.2-0.2-0.4-0.4-0.4h-0.4
				c-0.2,0-0.4,0.2-0.4,0.4C14.8,16.6,15,16.7,15.2,16.7z M18.3,16.7h-0.4c-0.2,0-0.4-0.2-0.4-0.4c0-0.2,0.2-0.4,0.4-0.4h0.4
				c0.2,0,0.4,0.2,0.4,0.4C18.7,16.6,18.5,16.7,18.3,16.7z M20.6,16.7H21c0.2,0,0.4-0.2,0.4-0.4c0-0.2-0.2-0.4-0.4-0.4h-0.4
				c-0.2,0-0.4,0.2-0.4,0.4C20.2,16.6,20.4,16.7,20.6,16.7z M7.4,19.1H7c-0.2,0-0.4-0.2-0.4-0.4c0-0.2,0.2-0.4,0.4-0.4h0.4
				c0.2,0,0.4,0.2,0.4,0.4C7.8,18.9,7.6,19.1,7.4,19.1z M9.7,19.1h0.4c0.2,0,0.4-0.2,0.4-0.4c0-0.2-0.2-0.4-0.4-0.4H9.7
				c-0.2,0-0.4,0.2-0.4,0.4C9.3,18.9,9.5,19.1,9.7,19.1z M12.8,19.1h-0.4c-0.2,0-0.4-0.2-0.4-0.4c0-0.2,0.2-0.4,0.4-0.4h0.4
				c0.2,0,0.4,0.2,0.4,0.4C13.2,18.9,13,19.1,12.8,19.1z M15.2,19.1h0.4c0.2,0,0.4-0.2,0.4-0.4c0-0.2-0.2-0.4-0.4-0.4h-0.4
				c-0.2,0-0.4,0.2-0.4,0.4C14.8,18.9,15,19.1,15.2,19.1z M18.3,19.1h-0.4c-0.2,0-0.4-0.2-0.4-0.4c0-0.2,0.2-0.4,0.4-0.4h0.4
				c0.2,0,0.4,0.2,0.4,0.4C18.7,18.9,18.5,19.1,18.3,19.1z M20.6,19.1H21c0.2,0,0.4-0.2,0.4-0.4c0-0.2-0.2-0.4-0.4-0.4h-0.4
				c-0.2,0-0.4,0.2-0.4,0.4C20.2,18.9,20.4,19.1,20.6,19.1z M7.4,21.4H7c-0.2,0-0.4-0.2-0.4-0.4c0-0.2,0.2-0.4,0.4-0.4h0.4
				c0.2,0,0.4,0.2,0.4,0.4C7.8,21.2,7.6,21.4,7.4,21.4z M9.7,21.4h0.4c0.2,0,0.4-0.2,0.4-0.4c0-0.2-0.2-0.4-0.4-0.4H9.7
				c-0.2,0-0.4,0.2-0.4,0.4C9.3,21.2,9.5,21.4,9.7,21.4z M12.8,21.4h-0.4c-0.2,0-0.4-0.2-0.4-0.4c0-0.2,0.2-0.4,0.4-0.4h0.4
				c0.2,0,0.4,0.2,0.4,0.4C13.2,21.2,13,21.4,12.8,21.4z M15.2,21.4h0.4c0.2,0,0.4-0.2,0.4-0.4c0-0.2-0.2-0.4-0.4-0.4h-0.4
				c-0.2,0-0.4,0.2-0.4,0.4C14.8,21.2,15,21.4,15.2,21.4z"/>
			<path d="M21.4,5.8h-0.2V6h0.2V5.8z M6.6,5.8V6h0.2V5.8H6.6z M9.3,5.8H9.1V6h0.2V5.8z M18.7,5.8V6h0.2V5.8H18.7z M5,6.6V6.4H4.8
				v0.2H5z M6.6,6.6h0.2V6.4H6.6V6.6z M5,8.9H4.8v0.2H5V8.9z M23,8.9v0.2h0.2V8.9H23z M23,6.6h0.2V6.4H23V6.6z M21.4,6.6V6.4h-0.2
				v0.2H21.4z M20.2,8.1l0,0.2l0,0L20.2,8.1z M18.7,6.6h0.2V6.4h-0.2V6.6z M9.3,6.6V6.4H9.1v0.2H9.3z M23,23v0.2h0.2V23H23z M5,23
				H4.8v0.2H5V23z M23,9.7h0.2V9.5H23V9.7z M5,9.7V9.5H4.8v0.2H5z M23.4,5.6h-2V6h2V5.6z M24,6.2c0-0.3-0.3-0.6-0.6-0.6V6
				c0.1,0,0.2,0.1,0.2,0.2H24z M24,23.4V6.2h-0.5v17.2H24z M23.4,24c0.3,0,0.6-0.3,0.6-0.6h-0.5c0,0.1-0.1,0.2-0.2,0.2V24z M4.6,24
				h18.8v-0.5H4.6V24z M4,23.4C4,23.7,4.3,24,4.6,24v-0.5c-0.1,0-0.2-0.1-0.2-0.2H4z M4,6.2v17.2h0.5V6.2H4z M4.6,5.6
				C4.3,5.6,4,5.8,4,6.2h0.5C4.5,6.1,4.5,6,4.6,6V5.6z M6.6,5.6h-2V6h2V5.6z M6.4,5.6v0.2h0.5V5.6H6.4z M7.9,4
				C7.1,4,6.4,4.7,6.4,5.6h0.5c0-0.6,0.5-1.1,1.1-1.1V4z M9.5,5.6C9.5,4.7,8.8,4,7.9,4v0.5c0.6,0,1.1,0.5,1.1,1.1H9.5z M9.5,5.8V5.6
				H9.1v0.2H9.5z M18.7,5.6H9.3V6h9.4V5.6z M18.5,5.6v0.2h0.5V5.6H18.5z M20.1,4c-0.9,0-1.6,0.7-1.6,1.6h0.5c0-0.6,0.5-1.1,1.1-1.1
				V4z M21.6,5.6c0-0.9-0.7-1.6-1.6-1.6v0.5c0.6,0,1.1,0.5,1.1,1.1H21.6z M21.6,5.8V5.6h-0.5v0.2H21.6z M19.7,5.6
				c0-0.2,0.2-0.4,0.4-0.4V4.8c-0.4,0-0.8,0.4-0.8,0.8H19.7z M19.7,6.2V5.6h-0.5v0.6H19.7z M19.7,6.8V6.2h-0.5v0.6H19.7z M20.1,7.1
				c-0.2,0-0.4-0.2-0.4-0.4h-0.5c0,0.4,0.4,0.8,0.8,0.8V7.1z M20.4,6.8c0,0.2-0.2,0.4-0.4,0.4v0.5c0.4,0,0.8-0.4,0.8-0.8H20.4z
				 M20.4,5.6v1.2h0.5V5.6H20.4z M20.1,5.2c0.2,0,0.4,0.2,0.4,0.4h0.5c0-0.4-0.4-0.8-0.8-0.8V5.2z M7.6,5.6c0-0.2,0.2-0.4,0.4-0.4
				V4.8c-0.4,0-0.8,0.4-0.8,0.8H7.6z M7.6,6.2V5.6H7.1v0.6H7.6z M7.6,6.8V6.2H7.1v0.6H7.6z M7.9,7.1C7.7,7.1,7.6,7,7.6,6.8H7.1
				c0,0.4,0.4,0.8,0.8,0.8V7.1z M8.3,6.8c0,0.2-0.2,0.4-0.4,0.4v0.5c0.4,0,0.8-0.4,0.8-0.8H8.3z M8.3,5.6v1.2h0.5V5.6H8.3z M7.9,5.2
				c0.2,0,0.4,0.2,0.4,0.4h0.5c0-0.4-0.4-0.8-0.8-0.8V5.2z M5,6.8h1.6V6.4H5V6.8z M5.2,8.9V6.6H4.8v2.3H5.2z M23,8.7H5v0.5h18V8.7z
				 M22.8,6.6v2.3h0.5V6.6H22.8z M21.4,6.8H23V6.4h-1.6V6.8z M21.6,6.8V6.6h-0.5v0.2H21.6z M20.2,8.4c0.8-0.1,1.4-0.8,1.4-1.6h-0.5
				c0,0.6-0.4,1.1-1,1.1L20.2,8.4z M18.5,6.8c0,0.9,0.8,1.7,1.8,1.6l0-0.5c-0.7,0.1-1.3-0.5-1.3-1.1H18.5z M18.5,6.6v0.2h0.5V6.6
				H18.5z M9.3,6.8h9.4V6.4H9.3V6.8z M9.5,6.8V6.6H9.1v0.2H9.5z M7.9,8.4c0.9,0,1.6-0.7,1.6-1.6H9.1c0,0.6-0.5,1.1-1.1,1.1V8.4z
				 M6.4,6.8c0,0.9,0.7,1.6,1.6,1.6V7.9c-0.6,0-1.1-0.5-1.1-1.1H6.4z M6.4,6.6v0.2h0.5V6.6H6.4z M23,22.8H5v0.5h18V22.8z M22.8,9.7
				V23h0.5V9.7H22.8z M5,9.9h18V9.5H5V9.9z M5.2,23V9.7H4.8V23H5.2z M9.7,12.3h0.4v-0.5H9.7V12.3z M9.1,11.7c0,0.3,0.3,0.6,0.6,0.6
				v-0.5c-0.1,0-0.2-0.1-0.2-0.2H9.1z M9.7,11c-0.3,0-0.6,0.3-0.6,0.6h0.5c0-0.1,0.1-0.2,0.2-0.2V11z M10.1,11H9.7v0.5h0.4V11z
				 M10.7,11.7c0-0.3-0.3-0.6-0.6-0.6v0.5c0.1,0,0.2,0.1,0.2,0.2H10.7z M10.1,12.3c0.3,0,0.6-0.3,0.6-0.6h-0.5
				c0,0.1-0.1,0.2-0.2,0.2V12.3z M12.4,12.3h0.4v-0.5h-0.4V12.3z M11.8,11.7c0,0.3,0.3,0.6,0.6,0.6v-0.5c-0.1,0-0.2-0.1-0.2-0.2
				H11.8z M12.4,11c-0.3,0-0.6,0.3-0.6,0.6h0.5c0-0.1,0.1-0.2,0.2-0.2V11z M12.8,11h-0.4v0.5h0.4V11z M13.4,11.7
				c0-0.3-0.3-0.6-0.6-0.6v0.5c0.1,0,0.2,0.1,0.2,0.2H13.4z M12.8,12.3c0.3,0,0.6-0.3,0.6-0.6H13c0,0.1-0.1,0.2-0.2,0.2V12.3z
				 M15.6,11.8h-0.4v0.5h0.4V11.8z M15.7,11.7c0,0.1-0.1,0.2-0.2,0.2v0.5c0.3,0,0.6-0.3,0.6-0.6H15.7z M15.6,11.5
				c0.1,0,0.2,0.1,0.2,0.2h0.5c0-0.3-0.3-0.6-0.6-0.6V11.5z M15.2,11.5h0.4V11h-0.4V11.5z M15,11.7c0-0.1,0.1-0.2,0.2-0.2V11
				c-0.3,0-0.6,0.3-0.6,0.6H15z M15.2,11.8c-0.1,0-0.2-0.1-0.2-0.2h-0.5c0,0.3,0.3,0.6,0.6,0.6V11.8z M17.9,12.3h0.4v-0.5h-0.4V12.3
				z M17.3,11.7c0,0.3,0.3,0.6,0.6,0.6v-0.5c-0.1,0-0.2-0.1-0.2-0.2H17.3z M17.9,11c-0.3,0-0.6,0.3-0.6,0.6h0.5
				c0-0.1,0.1-0.2,0.2-0.2V11z M18.3,11h-0.4v0.5h0.4V11z M18.9,11.7c0-0.3-0.3-0.6-0.6-0.6v0.5c0.1,0,0.2,0.1,0.2,0.2H18.9z
				 M18.3,12.3c0.3,0,0.6-0.3,0.6-0.6h-0.5c0,0.1-0.1,0.2-0.2,0.2V12.3z M21,11.8h-0.4v0.5H21V11.8z M21.2,11.7
				c0,0.1-0.1,0.2-0.2,0.2v0.5c0.3,0,0.6-0.3,0.6-0.6H21.2z M21,11.5c0.1,0,0.2,0.1,0.2,0.2h0.5c0-0.3-0.3-0.6-0.6-0.6V11.5z
				 M20.6,11.5H21V11h-0.4V11.5z M20.5,11.7c0-0.1,0.1-0.2,0.2-0.2V11c-0.3,0-0.6,0.3-0.6,0.6H20.5z M20.6,11.8
				c-0.1,0-0.2-0.1-0.2-0.2H20c0,0.3,0.3,0.6,0.6,0.6V11.8z M7,14.6h0.4v-0.5H7V14.6z M6.4,14c0,0.3,0.3,0.6,0.6,0.6v-0.5
				c-0.1,0-0.2-0.1-0.2-0.2H6.4z M7,13.4c-0.3,0-0.6,0.3-0.6,0.6h0.5c0-0.1,0.1-0.2,0.2-0.2V13.4z M7.4,13.4H7v0.5h0.4V13.4z M8,14
				c0-0.3-0.3-0.6-0.6-0.6v0.5c0.1,0,0.2,0.1,0.2,0.2H8z M7.4,14.6C7.7,14.6,8,14.3,8,14H7.5c0,0.1-0.1,0.2-0.2,0.2V14.6z
				 M10.1,14.2H9.7v0.5h0.4V14.2z M10.3,14c0,0.1-0.1,0.2-0.2,0.2v0.5c0.3,0,0.6-0.3,0.6-0.6H10.3z M10.1,13.8
				c0.1,0,0.2,0.1,0.2,0.2h0.5c0-0.3-0.3-0.6-0.6-0.6V13.8z M9.7,13.8h0.4v-0.5H9.7V13.8z M9.5,14c0-0.1,0.1-0.2,0.2-0.2v-0.5
				c-0.3,0-0.6,0.3-0.6,0.6H9.5z M9.7,14.2c-0.1,0-0.2-0.1-0.2-0.2H9.1c0,0.3,0.3,0.6,0.6,0.6V14.2z M12.4,14.6h0.4v-0.5h-0.4V14.6z
				 M11.8,14c0,0.3,0.3,0.6,0.6,0.6v-0.5c-0.1,0-0.2-0.1-0.2-0.2H11.8z M12.4,13.4c-0.3,0-0.6,0.3-0.6,0.6h0.5
				c0-0.1,0.1-0.2,0.2-0.2V13.4z M12.8,13.4h-0.4v0.5h0.4V13.4z M13.4,14c0-0.3-0.3-0.6-0.6-0.6v0.5c0.1,0,0.2,0.1,0.2,0.2H13.4z
				 M12.8,14.6c0.3,0,0.6-0.3,0.6-0.6H13c0,0.1-0.1,0.2-0.2,0.2V14.6z M15.6,14.2h-0.4v0.5h0.4V14.2z M15.7,14
				c0,0.1-0.1,0.2-0.2,0.2v0.5c0.3,0,0.6-0.3,0.6-0.6H15.7z M15.6,13.8c0.1,0,0.2,0.1,0.2,0.2h0.5c0-0.3-0.3-0.6-0.6-0.6V13.8z
				 M15.2,13.8h0.4v-0.5h-0.4V13.8z M15,14c0-0.1,0.1-0.2,0.2-0.2v-0.5c-0.3,0-0.6,0.3-0.6,0.6H15z M15.2,14.2
				c-0.1,0-0.2-0.1-0.2-0.2h-0.5c0,0.3,0.3,0.6,0.6,0.6V14.2z M17.9,14.6h0.4v-0.5h-0.4V14.6z M17.3,14c0,0.3,0.3,0.6,0.6,0.6v-0.5
				c-0.1,0-0.2-0.1-0.2-0.2H17.3z M17.9,13.4c-0.3,0-0.6,0.3-0.6,0.6h0.5c0-0.1,0.1-0.2,0.2-0.2V13.4z M18.3,13.4h-0.4v0.5h0.4V13.4
				z M18.9,14c0-0.3-0.3-0.6-0.6-0.6v0.5c0.1,0,0.2,0.1,0.2,0.2H18.9z M18.3,14.6c0.3,0,0.6-0.3,0.6-0.6h-0.5c0,0.1-0.1,0.2-0.2,0.2
				V14.6z M21,14.2h-0.4v0.5H21V14.2z M21.2,14c0,0.1-0.1,0.2-0.2,0.2v0.5c0.3,0,0.6-0.3,0.6-0.6H21.2z M21,13.8
				c0.1,0,0.2,0.1,0.2,0.2h0.5c0-0.3-0.3-0.6-0.6-0.6V13.8z M20.6,13.8H21v-0.5h-0.4V13.8z M20.5,14c0-0.1,0.1-0.2,0.2-0.2v-0.5
				c-0.3,0-0.6,0.3-0.6,0.6H20.5z M20.6,14.2c-0.1,0-0.2-0.1-0.2-0.2H20c0,0.3,0.3,0.6,0.6,0.6V14.2z M7,17h0.4v-0.5H7V17z
				 M6.4,16.3C6.4,16.7,6.6,17,7,17v-0.5c-0.1,0-0.2-0.1-0.2-0.2H6.4z M7,15.7c-0.3,0-0.6,0.3-0.6,0.6h0.5c0-0.1,0.1-0.2,0.2-0.2
				V15.7z M7.4,15.7H7v0.5h0.4V15.7z M8,16.3c0-0.3-0.3-0.6-0.6-0.6v0.5c0.1,0,0.2,0.1,0.2,0.2H8z M7.4,17C7.7,17,8,16.7,8,16.3H7.5
				c0,0.1-0.1,0.2-0.2,0.2V17z M10.1,16.5H9.7V17h0.4V16.5z M10.3,16.3c0,0.1-0.1,0.2-0.2,0.2V17c0.3,0,0.6-0.3,0.6-0.6H10.3z
				 M10.1,16.2c0.1,0,0.2,0.1,0.2,0.2h0.5c0-0.3-0.3-0.6-0.6-0.6V16.2z M9.7,16.2h0.4v-0.5H9.7V16.2z M9.5,16.3
				c0-0.1,0.1-0.2,0.2-0.2v-0.5c-0.3,0-0.6,0.3-0.6,0.6H9.5z M9.7,16.5c-0.1,0-0.2-0.1-0.2-0.2H9.1c0,0.3,0.3,0.6,0.6,0.6V16.5z
				 M12.4,17h0.4v-0.5h-0.4V17z M11.8,16.3c0,0.3,0.3,0.6,0.6,0.6v-0.5c-0.1,0-0.2-0.1-0.2-0.2H11.8z M12.4,15.7
				c-0.3,0-0.6,0.3-0.6,0.6h0.5c0-0.1,0.1-0.2,0.2-0.2V15.7z M12.8,15.7h-0.4v0.5h0.4V15.7z M13.4,16.3c0-0.3-0.3-0.6-0.6-0.6v0.5
				c0.1,0,0.2,0.1,0.2,0.2H13.4z M12.8,17c0.3,0,0.6-0.3,0.6-0.6H13c0,0.1-0.1,0.2-0.2,0.2V17z M15.6,16.5h-0.4V17h0.4V16.5z
				 M15.7,16.3c0,0.1-0.1,0.2-0.2,0.2V17c0.3,0,0.6-0.3,0.6-0.6H15.7z M15.6,16.2c0.1,0,0.2,0.1,0.2,0.2h0.5c0-0.3-0.3-0.6-0.6-0.6
				V16.2z M15.2,16.2h0.4v-0.5h-0.4V16.2z M15,16.3c0-0.1,0.1-0.2,0.2-0.2v-0.5c-0.3,0-0.6,0.3-0.6,0.6H15z M15.2,16.5
				c-0.1,0-0.2-0.1-0.2-0.2h-0.5c0,0.3,0.3,0.6,0.6,0.6V16.5z M17.9,17h0.4v-0.5h-0.4V17z M17.3,16.3c0,0.3,0.3,0.6,0.6,0.6v-0.5
				c-0.1,0-0.2-0.1-0.2-0.2H17.3z M17.9,15.7c-0.3,0-0.6,0.3-0.6,0.6h0.5c0-0.1,0.1-0.2,0.2-0.2V15.7z M18.3,15.7h-0.4v0.5h0.4V15.7
				z M18.9,16.3c0-0.3-0.3-0.6-0.6-0.6v0.5c0.1,0,0.2,0.1,0.2,0.2H18.9z M18.3,17c0.3,0,0.6-0.3,0.6-0.6h-0.5c0,0.1-0.1,0.2-0.2,0.2
				V17z M21,16.5h-0.4V17H21V16.5z M21.2,16.3c0,0.1-0.1,0.2-0.2,0.2V17c0.3,0,0.6-0.3,0.6-0.6H21.2z M21,16.2
				c0.1,0,0.2,0.1,0.2,0.2h0.5c0-0.3-0.3-0.6-0.6-0.6V16.2z M20.6,16.2H21v-0.5h-0.4V16.2z M20.5,16.3c0-0.1,0.1-0.2,0.2-0.2v-0.5
				c-0.3,0-0.6,0.3-0.6,0.6H20.5z M20.6,16.5c-0.1,0-0.2-0.1-0.2-0.2H20c0,0.3,0.3,0.6,0.6,0.6V16.5z M7,19.3h0.4v-0.5H7V19.3z
				 M6.4,18.7c0,0.3,0.3,0.6,0.6,0.6v-0.5c-0.1,0-0.2-0.1-0.2-0.2H6.4z M7,18.1c-0.3,0-0.6,0.3-0.6,0.6h0.5c0-0.1,0.1-0.2,0.2-0.2
				V18.1z M7.4,18.1H7v0.5h0.4V18.1z M8,18.7c0-0.3-0.3-0.6-0.6-0.6v0.5c0.1,0,0.2,0.1,0.2,0.2H8z M7.4,19.3C7.7,19.3,8,19,8,18.7
				H7.5c0,0.1-0.1,0.2-0.2,0.2V19.3z M10.1,18.9H9.7v0.5h0.4V18.9z M10.3,18.7c0,0.1-0.1,0.2-0.2,0.2v0.5c0.3,0,0.6-0.3,0.6-0.6
				H10.3z M10.1,18.5c0.1,0,0.2,0.1,0.2,0.2h0.5c0-0.3-0.3-0.6-0.6-0.6V18.5z M9.7,18.5h0.4v-0.5H9.7V18.5z M9.5,18.7
				c0-0.1,0.1-0.2,0.2-0.2v-0.5c-0.3,0-0.6,0.3-0.6,0.6H9.5z M9.7,18.9c-0.1,0-0.2-0.1-0.2-0.2H9.1c0,0.3,0.3,0.6,0.6,0.6V18.9z
				 M12.4,19.3h0.4v-0.5h-0.4V19.3z M11.8,18.7c0,0.3,0.3,0.6,0.6,0.6v-0.5c-0.1,0-0.2-0.1-0.2-0.2H11.8z M12.4,18.1
				c-0.3,0-0.6,0.3-0.6,0.6h0.5c0-0.1,0.1-0.2,0.2-0.2V18.1z M12.8,18.1h-0.4v0.5h0.4V18.1z M13.4,18.7c0-0.3-0.3-0.6-0.6-0.6v0.5
				c0.1,0,0.2,0.1,0.2,0.2H13.4z M12.8,19.3c0.3,0,0.6-0.3,0.6-0.6H13c0,0.1-0.1,0.2-0.2,0.2V19.3z M15.6,18.9h-0.4v0.5h0.4V18.9z
				 M15.7,18.7c0,0.1-0.1,0.2-0.2,0.2v0.5c0.3,0,0.6-0.3,0.6-0.6H15.7z M15.6,18.5c0.1,0,0.2,0.1,0.2,0.2h0.5c0-0.3-0.3-0.6-0.6-0.6
				V18.5z M15.2,18.5h0.4v-0.5h-0.4V18.5z M15,18.7c0-0.1,0.1-0.2,0.2-0.2v-0.5c-0.3,0-0.6,0.3-0.6,0.6H15z M15.2,18.9
				c-0.1,0-0.2-0.1-0.2-0.2h-0.5c0,0.3,0.3,0.6,0.6,0.6V18.9z M17.9,19.3h0.4v-0.5h-0.4V19.3z M17.3,18.7c0,0.3,0.3,0.6,0.6,0.6
				v-0.5c-0.1,0-0.2-0.1-0.2-0.2H17.3z M17.9,18.1c-0.3,0-0.6,0.3-0.6,0.6h0.5c0-0.1,0.1-0.2,0.2-0.2V18.1z M18.3,18.1h-0.4v0.5h0.4
				V18.1z M18.9,18.7c0-0.3-0.3-0.6-0.6-0.6v0.5c0.1,0,0.2,0.1,0.2,0.2H18.9z M18.3,19.3c0.3,0,0.6-0.3,0.6-0.6h-0.5
				c0,0.1-0.1,0.2-0.2,0.2V19.3z M21,18.9h-0.4v0.5H21V18.9z M21.2,18.7c0,0.1-0.1,0.2-0.2,0.2v0.5c0.3,0,0.6-0.3,0.6-0.6H21.2z
				 M21,18.5c0.1,0,0.2,0.1,0.2,0.2h0.5c0-0.3-0.3-0.6-0.6-0.6V18.5z M20.6,18.5H21v-0.5h-0.4V18.5z M20.5,18.7
				c0-0.1,0.1-0.2,0.2-0.2v-0.5c-0.3,0-0.6,0.3-0.6,0.6H20.5z M20.6,18.9c-0.1,0-0.2-0.1-0.2-0.2H20c0,0.3,0.3,0.6,0.6,0.6V18.9z
				 M7,21.6h0.4v-0.5H7V21.6z M6.4,21c0,0.3,0.3,0.6,0.6,0.6v-0.5c-0.1,0-0.2-0.1-0.2-0.2H6.4z M7,20.4c-0.3,0-0.6,0.3-0.6,0.6h0.5
				c0-0.1,0.1-0.2,0.2-0.2V20.4z M7.4,20.4H7v0.5h0.4V20.4z M8,21c0-0.3-0.3-0.6-0.6-0.6v0.5c0.1,0,0.2,0.1,0.2,0.2H8z M7.4,21.6
				C7.7,21.6,8,21.4,8,21H7.5c0,0.1-0.1,0.2-0.2,0.2V21.6z M10.1,21.2H9.7v0.5h0.4V21.2z M10.3,21c0,0.1-0.1,0.2-0.2,0.2v0.5
				c0.3,0,0.6-0.3,0.6-0.6H10.3z M10.1,20.9c0.1,0,0.2,0.1,0.2,0.2h0.5c0-0.3-0.3-0.6-0.6-0.6V20.9z M9.7,20.9h0.4v-0.5H9.7V20.9z
				 M9.5,21c0-0.1,0.1-0.2,0.2-0.2v-0.5c-0.3,0-0.6,0.3-0.6,0.6H9.5z M9.7,21.2c-0.1,0-0.2-0.1-0.2-0.2H9.1c0,0.3,0.3,0.6,0.6,0.6
				V21.2z M12.4,21.6h0.4v-0.5h-0.4V21.6z M11.8,21c0,0.3,0.3,0.6,0.6,0.6v-0.5c-0.1,0-0.2-0.1-0.2-0.2H11.8z M12.4,20.4
				c-0.3,0-0.6,0.3-0.6,0.6h0.5c0-0.1,0.1-0.2,0.2-0.2V20.4z M12.8,20.4h-0.4v0.5h0.4V20.4z M13.4,21c0-0.3-0.3-0.6-0.6-0.6v0.5
				c0.1,0,0.2,0.1,0.2,0.2H13.4z M12.8,21.6c0.3,0,0.6-0.3,0.6-0.6H13c0,0.1-0.1,0.2-0.2,0.2V21.6z M15.6,21.2h-0.4v0.5h0.4V21.2z
				 M15.7,21c0,0.1-0.1,0.2-0.2,0.2v0.5c0.3,0,0.6-0.3,0.6-0.6H15.7z M15.6,20.9c0.1,0,0.2,0.1,0.2,0.2h0.5c0-0.3-0.3-0.6-0.6-0.6
				V20.9z M15.2,20.9h0.4v-0.5h-0.4V20.9z M15,21c0-0.1,0.1-0.2,0.2-0.2v-0.5c-0.3,0-0.6,0.3-0.6,0.6H15z M15.2,21.2
				c-0.1,0-0.2-0.1-0.2-0.2h-0.5c0,0.3,0.3,0.6,0.6,0.6V21.2z"/>
		</g>
	</g>
</g>
<g id="圖層_4" class="st0">
	<path class="st2" d="M23.8,22.7l-5.4-5.4c1.2-1.4,1.9-3.2,1.9-5.2c0-4.5-3.7-8.1-8.1-8.1C7.7,4,4,7.7,4,12.1c0,4.5,3.7,8.1,8.1,8.1
		c2,0,3.8-0.7,5.2-1.9l5.4,5.4c0.1,0.1,0.3,0.2,0.5,0.2c0.2,0,0.4-0.1,0.5-0.2C24.1,23.5,24.1,23,23.8,22.7L23.8,22.7z M5.5,12.1
		c0-3.7,3-6.7,6.7-6.7c3.7,0,6.7,3,6.7,6.7c0,3.7-3,6.7-6.7,6.7C8.5,18.8,5.5,15.8,5.5,12.1z"/>
</g>
<g id="圖層_7" class="st0">
	<path class="st2" d="M23.6,11.1C23.6,11.1,23.6,11.1,23.6,11.1L23.6,11.1c-0.5-1.6-1.3-3-2.5-4.2C19.2,5,16.7,4,14,4
		c-2.7,0-5.2,1-7.1,2.9C5,8.8,4,11.3,4,14c0,2.7,1,5.2,2.9,7.1S11.3,24,14,24s5.2-1,7.1-2.9S24,16.7,24,14C24,13,23.9,12,23.6,11.1z
		 M18.4,5.9c0.7,0.4,1.4,0.9,2,1.4c-0.1,0.2-0.1,0.3-0.3,0.3c0,0,0,0,0,0c-0.1,0-0.3-0.1-0.4-0.1c-0.2-0.1-0.5-0.2-0.8-0.1
		c-0.3,0-0.5,0.1-0.8,0.3c-0.2,0.1-0.4,0.2-0.5,0.2c-0.1,0-0.3-0.2-0.4-0.4C17.1,7.5,17,7.4,17,7.4c0,0,0-0.1,0.1-0.1
		c0.2-0.2,0.4-0.5,0.7-0.8C18,6.3,18.2,6.1,18.4,5.9z M15.5,4.9c0,0.3-0.2,0.7-0.3,0.9C15,6,14.8,6.1,14.6,6
		c-0.2-0.1-0.3-0.3-0.3-0.6c0-0.2-0.1-0.4-0.2-0.5C14.6,4.8,15,4.9,15.5,4.9z M7.5,7.5c1.1-1.1,2.4-1.9,3.8-2.3
		c0.2,0.6,0.4,1.1,0.6,1.6c0.2,0.4,0.3,0.8,0.3,1.2c0,0.2-0.1,0.3-0.1,0.4c-0.1,0.1-0.3,0.1-0.4,0.1c-0.3,0-0.7,0.1-1,0.3
		c-0.1,0-0.1,0.1-0.2,0.2c-0.1,0.1-0.3,0.2-0.4,0.2c-0.1,0-0.3,0-0.4,0c-0.1,0-0.2,0-0.3,0C9,9.2,8.2,9.3,7.8,9.8
		c-0.2,0.2-0.2,0.5-0.1,0.8C7.7,10.8,7.9,10.9,8,11c0.6,0.5,1.3,0.9,2.1,1c0.1,0,0.2,0,0.3,0c0.6,0.1,0.9,0.1,1.1,0.5
		c0.1,0.1,0.1,0.2,0.1,0.3c0.1,0.1,0.1,0.3,0.2,0.4c0.2,0.4,0.6,0.7,1,0.7c0.3,0,0.5-0.2,0.7-0.3c0.1-0.1,0.2-0.1,0.2-0.1
		c0.2-0.1,0.5,0,0.7,0.2c0.2,0.1,0.4,0.3,0.5,0.6c0.1,0.2,0,0.5-0.1,0.6l-1.2,1c-0.4,0.3-0.8,0.7-0.8,1.3c0,0.2,0,0.4,0.1,0.5
		c0,0.1,0.1,0.3,0,0.3c0,0-0.1,0-0.2,0.1c-0.1,0-0.2,0.1-0.4,0.1c-0.6,0.3-0.7,1-0.7,1.5c0,0.4-0.2,0.7-0.3,0.7
		c-0.1,0-0.3-0.2-0.3-0.4c0-0.1,0-0.3-0.1-0.4c0-0.2-0.1-0.5-0.1-0.7c-0.1-0.3-0.3-0.6-0.5-0.8c-0.2-0.2-0.3-0.4-0.4-0.7
		c0-0.2,0-0.4,0-0.6c0-0.3,0-0.6,0-0.9c-0.1-0.4-0.4-0.8-0.7-1c-0.2-0.2-0.3-0.4-0.4-0.5c-0.1-0.2-0.1-0.5-0.1-0.7
		c0-0.3,0-0.6-0.1-0.9c-0.1-0.3-0.3-0.5-0.5-0.6c-0.5-0.4-1-0.8-1.5-1.3c-0.2-0.3-0.5-0.5-0.6-0.8c0-0.1,0-0.1-0.1-0.2
		C6.1,9.9,6,9.8,5.9,9.6C6.3,8.9,6.9,8.2,7.5,7.5z M14,23.2c-2.4,0-4.8-1-6.5-2.7c-1.7-1.7-2.7-4-2.7-6.5c0-1.2,0.2-2.3,0.6-3.3
		c0.2,0.4,0.4,0.7,0.7,1c0.5,0.5,1,1,1.6,1.4c0.1,0.1,0.2,0.1,0.2,0.2c0,0.1,0,0.3,0,0.5c0,0.3,0,0.7,0.2,1.2
		c0.2,0.3,0.4,0.5,0.6,0.7c0.2,0.2,0.4,0.4,0.5,0.7c0,0.2,0,0.4,0,0.6c0,0.3,0,0.5,0,0.8c0.1,0.4,0.3,0.7,0.5,1
		c0.2,0.2,0.3,0.4,0.4,0.6c0.1,0.2,0.1,0.3,0.1,0.5c0,0.2,0,0.4,0.1,0.5c0.1,0.5,0.6,1,1.1,1c0,0,0.1,0,0.1,0c0.6-0.1,1-0.6,1-1.4
		c0-0.3,0.1-0.8,0.3-0.9c0,0,0.1,0,0.2-0.1c0.2,0,0.4-0.1,0.6-0.3c0.3-0.3,0.2-0.8,0.2-1.1c0-0.1-0.1-0.2,0-0.3
		c0-0.2,0.3-0.5,0.5-0.7l1.2-1c0.4-0.3,0.5-0.9,0.4-1.5c-0.1-0.4-0.4-0.8-0.9-1.1c-0.5-0.4-1.1-0.4-1.5-0.3
		c-0.2,0.1-0.3,0.2-0.4,0.2c-0.1,0.1-0.2,0.1-0.3,0.2c-0.1,0-0.2-0.1-0.3-0.2c-0.1-0.1-0.1-0.2-0.1-0.3c-0.1-0.1-0.1-0.3-0.2-0.4
		c-0.4-0.8-1.1-0.9-1.7-0.9c-0.1,0-0.2,0-0.3,0c-0.6-0.1-1.2-0.4-1.7-0.8c-0.1-0.1-0.1-0.1-0.1-0.1c0,0,0,0,0,0
		C8.5,10.2,9,10,9.3,10c0.1,0,0.2,0,0.3,0c0.2,0,0.5,0.1,0.8,0c0.3-0.1,0.5-0.2,0.7-0.4c0.1,0,0.1-0.1,0.2-0.1
		c0.1-0.1,0.3-0.1,0.6-0.1c0.5,0,1.2-0.1,1.3-1.2c0.1-0.6-0.2-1.2-0.4-1.6c-0.2-0.5-0.4-1-0.6-1.5c0.3-0.1,0.7-0.1,1.1-0.2
		c0,0,0,0.1,0.1,0.1c0.1,0.2,0.2,0.4,0.2,0.5c0.1,0.6,0.4,1,0.8,1.2c0.2,0.1,0.3,0.1,0.5,0.1c0.4,0,0.8-0.2,1-0.5
		c0.2-0.3,0.4-0.8,0.5-1.2c0.5,0.1,0.9,0.3,1.3,0.4c-0.1,0.1-0.2,0.2-0.4,0.4c-0.3,0.3-0.6,0.6-0.8,0.8c-0.1,0.1-0.2,0.3-0.2,0.5
		c-0.1,0.4,0.2,0.7,0.3,0.8c0.2,0.2,0.4,0.5,0.8,0.7c0.1,0,0.2,0,0.3,0c0.3,0,0.6-0.1,0.8-0.3c0.2-0.1,0.3-0.2,0.5-0.2
		c0.1,0,0.3,0,0.5,0.1c0.2,0.1,0.4,0.1,0.7,0.1c0.4,0,0.7-0.2,0.9-0.5c0.8,0.9,1.4,1.9,1.7,3.1c-0.1,0-0.2,0.1-0.5,0.1
		c-0.1,0-0.3,0-0.4,0c-0.4,0-0.8-0.1-1.1-0.2c-0.3-0.1-0.5-0.2-0.8-0.3c-0.8-0.2-1.6,0.3-2.1,1.1c-0.1,0.2-0.8,1.5-0.3,2.3
		c0.2,0.3,0.5,0.5,0.7,0.6c0.3,0.2,0.7,0.4,1.1,0.6c0.1,0,0.2,0.1,0.2,0.1c0.3,0.1,0.6,0.2,0.7,0.4c0.1,0.2,0.2,0.4,0.1,0.7
		c0,0.3-0.1,0.5-0.2,0.8c-0.2,0.6-0.5,1.4,0.2,2.2c0.2,0.2,0.4,0.4,0.7,0.5c-0.1,0.1-0.3,0.3-0.4,0.4C18.8,22.2,16.4,23.2,14,23.2z
		 M21.4,19.3c-0.2,0-0.4-0.2-0.6-0.4c-0.3-0.4-0.2-0.7,0-1.4c0.1-0.3,0.2-0.7,0.3-1c0.1-0.6,0-1-0.3-1.3c-0.3-0.4-0.7-0.5-1.1-0.7
		c-0.1,0-0.2-0.1-0.2-0.1c-0.3-0.1-0.6-0.3-0.9-0.5c-0.2-0.1-0.4-0.2-0.5-0.4c-0.1-0.2,0-0.9,0.3-1.4c0.2-0.4,0.7-0.8,1.2-0.7
		c0.3,0.1,0.5,0.1,0.7,0.2c0.4,0.2,0.9,0.3,1.5,0.3c0.1,0,0.3,0,0.4,0c0.2,0,0.5,0,0.7-0.1c0.2,0.7,0.2,1.4,0.2,2.1
		C23.2,15.9,22.6,17.8,21.4,19.3z"/>
</g>
<g id="圖層_6">
</g>
</svg>
