<svg width="54" height="54" viewBox="0 0 54 54" fill="none" xmlns="http://www.w3.org/2000/svg">
<g clip-path="url(#clip0_53_934)">
<path d="M19.3187 22.3594H10.2832C9.84656 22.3594 9.49219 22.005 9.49219 21.5684V10.2832C9.49219 9.84656 9.84656 9.49219 10.2832 9.49219H19.3187C19.7554 9.49219 20.1097 9.84656 20.1097 10.2832V21.5684C20.1097 22.005 19.7554 22.3594 19.3187 22.3594ZM11.0742 20.7773H18.5277V11.0742H11.0742V20.7773Z" fill="#444444"/>
<path d="M31.517 22.3594H22.4814C22.0448 22.3594 21.6904 22.005 21.6904 21.5684V10.2832C21.6904 9.84656 22.0448 9.49219 22.4814 9.49219H31.517C31.9536 9.49219 32.308 9.84656 32.308 10.2832V21.5684C32.308 22.005 31.9536 22.3594 31.517 22.3594ZM23.2725 20.7773H30.7259V11.0742H23.2725V20.7773Z" fill="#444444"/>
<path d="M31.517 27.1055H22.4814C22.0448 27.1055 21.6904 26.7511 21.6904 26.3145C21.6904 25.8778 22.0448 25.5234 22.4814 25.5234H31.517C31.9536 25.5234 32.308 25.8778 32.308 26.3145C32.308 26.7511 31.9536 27.1055 31.517 27.1055Z" fill="#444444"/>
<path d="M31.517 30.2695H22.4814C22.0448 30.2695 21.6904 29.9152 21.6904 29.4785C21.6904 29.0419 22.0448 28.6875 22.4814 28.6875H31.517C31.9536 28.6875 32.308 29.0419 32.308 29.4785C32.308 29.9152 31.9536 30.2695 31.517 30.2695Z" fill="#444444"/>
<path d="M31.517 33.4336H22.4814C22.0448 33.4336 21.6904 33.0792 21.6904 32.6426C21.6904 32.2059 22.0448 31.8516 22.4814 31.8516H31.517C31.9536 31.8516 32.308 32.2059 32.308 32.6426C32.308 33.0792 31.9536 33.4336 31.517 33.4336Z" fill="#444444"/>
<path d="M43.7171 22.3594H34.6816C34.245 22.3594 33.8906 22.005 33.8906 21.5684V10.2832C33.8906 9.84656 34.245 9.49219 34.6816 9.49219H43.7171C44.1538 9.49219 44.5082 9.84656 44.5082 10.2832V21.5684C44.5082 22.005 44.1538 22.3594 43.7171 22.3594ZM35.4727 20.7773H42.9261V11.0742H35.4727V20.7773Z" fill="#444444"/>
<path d="M50.0449 54H3.95508C1.77398 54 0 52.226 0 50.0449V21.3574C0 19.1763 1.77398 17.4023 3.95508 17.4023H7.11914C7.55578 17.4023 7.91016 17.7567 7.91016 18.1934V24.0142C7.91016 24.4508 7.55578 24.8052 7.11914 24.8052C6.6825 24.8052 6.32812 24.4508 6.32812 24.0142V18.9844H3.95508C2.64621 18.9844 1.58203 20.0486 1.58203 21.3574V50.0449C1.58203 51.3538 2.64621 52.418 3.95508 52.418H50.0449C51.3538 52.418 52.418 51.3538 52.418 50.0449V21.3574C52.418 20.0486 51.3538 18.9844 50.0449 18.9844H46.8809C46.4442 18.9844 46.0898 18.63 46.0898 18.1934C46.0898 17.7567 46.4442 17.4023 46.8809 17.4023H50.0449C52.226 17.4023 54 19.1763 54 21.3574V50.0449C54 52.226 52.226 54 50.0449 54Z" fill="#444444"/>
<path d="M46.8809 24.8052C46.4442 24.8052 46.0898 24.4508 46.0898 24.0142V1.58203H7.91016V15.0293C7.91016 15.4659 7.55578 15.8203 7.11914 15.8203C6.6825 15.8203 6.32812 15.4659 6.32812 15.0293V0.791016C6.32812 0.354375 6.6825 0 7.11914 0H46.8809C47.3175 0 47.6719 0.354375 47.6719 0.791016V24.0142C47.6719 24.4508 47.3175 24.8052 46.8809 24.8052Z" fill="#444444"/>
<path d="M40.5527 7.91016C40.1161 7.91016 39.7617 7.55578 39.7617 7.11914V0.791016C39.7617 0.354375 40.1161 0 40.5527 0C40.9894 0 41.3438 0.354375 41.3438 0.791016V7.11914C41.3438 7.55578 40.9894 7.91016 40.5527 7.91016Z" fill="#444444"/>
<path d="M46.8809 7.91016H7.11914C6.6825 7.91016 6.32812 7.55578 6.32812 7.11914C6.32812 6.6825 6.6825 6.32812 7.11914 6.32812H46.8809C47.3175 6.32812 47.6719 6.6825 47.6719 7.11914C47.6719 7.55578 47.3175 7.91016 46.8809 7.91016Z" fill="#444444"/>
<path d="M52.2815 53.0731C52.0916 53.0731 51.9018 53.0056 51.751 52.8685L33.4521 36.2878C33.1283 35.9946 33.1041 35.4947 33.3973 35.1709C33.6905 34.8471 34.1915 34.8228 34.5142 35.116L52.813 51.6968C53.1368 51.99 53.1611 52.4899 52.8679 52.8137C52.7118 52.9856 52.4966 53.0731 52.2815 53.0731Z" fill="#444444"/>
<path d="M1.71806 53.0728C1.50291 53.0728 1.28775 52.9853 1.13166 52.8134C0.838455 52.4896 0.862713 51.9897 1.1865 51.6965L19.4853 35.1157C19.787 34.8426 20.2458 34.8426 20.5474 35.1157L22.2191 36.6313C24.9444 39.1003 29.0545 39.1003 31.7798 36.6313L51.7503 18.535C52.0741 18.2418 52.574 18.266 52.8672 18.5898C53.1605 18.9136 53.1362 19.4135 52.8124 19.7067L32.8419 37.8031C29.5112 40.8216 24.4877 40.8216 21.157 37.8031L20.0158 36.7695L2.24857 52.8682C2.0967 53.0053 1.90685 53.0728 1.71806 53.0728Z" fill="#444444"/>
<path d="M17.6597 34.3575C17.4698 34.3575 17.28 34.29 17.1292 34.1529L1.1865 19.7058C0.862713 19.4126 0.838455 18.9126 1.13166 18.5888C1.42486 18.2651 1.92478 18.2408 2.24857 18.534L18.1912 32.9801C18.515 33.2733 18.5393 33.7732 18.2461 34.097C18.09 34.2689 17.8748 34.3564 17.6597 34.3564V34.3575Z" fill="#444444"/>
</g>
<defs>
<clipPath id="clip0_53_934">
<rect width="54" height="54" fill="white"/>
</clipPath>
</defs>
</svg>
