<?xml version="1.0" encoding="utf-8"?>
<!-- Generator: Adobe Illustrator 27.9.0, SVG Export Plug-In . SVG Version: 6.00 Build 0)  -->
<svg version="1.1" id="圖層_1" xmlns="http://www.w3.org/2000/svg" xmlns:xlink="http://www.w3.org/1999/xlink" x="0px" y="0px"
	 viewBox="0 0 54 54" style="enable-background:new 0 0 54 54;" xml:space="preserve">
<style type="text/css">
	.st0{fill:#444444;}
</style>
<g>
	<g>
		<path class="st0" d="M27,13.5c3.7,0,6.7-3,6.7-6.7S30.7,0,27,0s-6.7,3-6.7,6.7S23.3,13.5,27,13.5z M27,2.3c2.5,0,4.5,2,4.5,4.5
			s-2,4.5-4.5,4.5s-4.5-2-4.5-4.5S24.5,2.3,27,2.3z"/>
		<path class="st0" d="M14,19.1c0.2,0.2,0.4,0.2,0.7,0.2c0.3,0,0.7-0.2,0.9-0.4c0.4-0.5,0.3-1.2-0.2-1.6c-2.4-1.8-4.7-3.8-5.5-4.6
			c-1-1-1-2.5-0.6-3c0.3-0.4,1,0,1.4,0.3c8.6,5.7,12.3,7.8,12.4,7.9c0,0,0.1,0,0.1,0c0,0,0.1,0,0.1,0.1l1,0.3
			c0.9,0.3,1.8,0.4,2.7,0.4c0.9,0,1.8-0.1,2.7-0.4l1-0.3c0.1,0,0.1-0.1,0.2-0.1c0,0,0,0,0,0c0,0,0.1,0,0.2-0.1c0,0,0,0,0.1,0
			c0.9-0.5,4.7-2.8,12.2-7.8c0.4-0.3,1.1-0.6,1.4-0.3c0.4,0.5,0.4,2.1-0.6,3c-0.6,0.6-6.1,4.4-11,7.7c0,0,0,0.1-0.1,0.1
			c-0.1,0-0.1,0.1-0.2,0.2c0,0.1-0.1,0.1-0.1,0.2c0,0.1-0.1,0.1-0.1,0.2c0,0.1,0,0.1,0,0.2c0,0,0,0.1,0,0.1v3.4
			c0,0.6,0.5,1.1,1.1,1.1c0.6,0,1.1-0.5,1.1-1.1V22c2.5-1.7,10-6.8,10.9-7.7c1.7-1.7,2-4.5,0.7-6c-0.8-1-2.4-1.5-4.4-0.2
			c-8.2,5.5-12,7.6-12.3,7.8L29,16.2c-1.3,0.4-2.7,0.4-4,0l-0.9-0.3c-0.6-0.3-4.4-2.6-12.2-7.8c-2-1.3-3.6-0.8-4.4,0.2
			c-1.3,1.6-0.9,4.4,0.7,6C9.1,15.2,11.5,17.3,14,19.1z"/>
		<path class="st0" d="M18,20.3c-3.7,0-6.7,3-6.7,6.7s3,6.7,6.7,6.7s6.7-3,6.7-6.7S21.7,20.3,18,20.3z M18,31.5
			c-2.5,0-4.5-2-4.5-4.5s2-4.5,4.5-4.5s4.5,2,4.5,4.5S20.5,31.5,18,31.5z"/>
		<path class="st0" d="M25.9,41.6c0-3.1-2.5-5.6-5.6-5.6h-5.6c-0.2,0-2.2-0.6-9.5-5.4c-2-1.3-3.6-0.8-4.4,0.2
			c-1.3,1.6-0.9,4.4,0.7,6c1.3,1.3,5.7,4.9,8.7,5.8v10.3c0,0.6,0.5,1.1,1.1,1.1s1.1-0.5,1.1-1.1V41.6c0-0.6-0.5-1.1-1.1-1.1
			c-1.6,0-6.1-3.2-8.2-5.3c-1-1-1-2.5-0.6-3c0.3-0.4,1,0,1.4,0.3c5.5,3.7,9.2,5.7,10.6,5.8c0,0,0.1,0,0.1,0h5.6
			c1.9,0,3.4,1.5,3.4,3.4c0,0.6,0.5,1.1,1.1,1.1C25.4,42.7,25.9,42.2,25.9,41.6z"/>
		<path class="st0" d="M25.9,34.9c0,3.7,3,6.7,6.7,6.7s6.7-3,6.7-6.7s-3-6.7-6.7-6.7S25.9,31.1,25.9,34.9z M37.1,34.9
			c0,2.5-2,4.5-4.5,4.5s-4.5-2-4.5-4.5s2-4.5,4.5-4.5S37.1,32.4,37.1,34.9z"/>
		<path class="st0" d="M53.2,38.6c-0.8-1-2.4-1.5-4.4-0.2c-8.1,5.4-12.7,5.4-12.8,5.4h0c0,0,0,0,0,0c0,0,0,0,0,0h-5.6
			c-3.1,0-5.6,2.5-5.6,5.6v3.4c0,0.6,0.5,1.1,1.1,1.1c0.6,0,1.1-0.5,1.1-1.1v-3.4c0-1.9,1.5-3.4,3.4-3.4H36c0,0,0,0,0,0
			c0.4,0,5.5,0,14.1-5.8c0.4-0.3,1.1-0.6,1.4-0.3c0.4,0.5,0.4,2.1-0.6,3c-1.6,1.6-8.6,5.3-11.6,5.3c-0.6,0-1.1,0.5-1.1,1.1v3.4
			c0,0.6,0.5,1.1,1.1,1.1c0.6,0,1.1-0.5,1.1-1.1v-2.4c4-0.6,10.3-4.1,12-5.8C54.2,43,54.5,40.2,53.2,38.6z"/>
	</g>
</g>
</svg>
