<?xml version="1.0" encoding="utf-8"?>
<!-- Generator: Adobe Illustrator 27.9.0, SVG Export Plug-In . SVG Version: 6.00 Build 0)  -->
<svg version="1.1" id="圖層_1" xmlns="http://www.w3.org/2000/svg" xmlns:xlink="http://www.w3.org/1999/xlink" x="0px" y="0px"
	 viewBox="0 0 48 48" style="enable-background:new 0 0 48 48;" xml:space="preserve">
<style type="text/css">
	.st0{display:none;}
	.st1{display:inline;}
	.st2{fill-rule:evenodd;clip-rule:evenodd;}
	.st3{display:inline;fill-rule:evenodd;clip-rule:evenodd;}
</style>
<g id="FB" class="st0">
	<g class="st1">
		<g>
			<path d="M21.8,18.5v2.2h-2.2V24h2.2v9.8h4.4V24h2.9l0.4-3.3h-3.3v-1.9c0-0.9,0.1-1.4,1.5-1.4h1.8v-3.3h-2.9
				C23,14.2,21.8,15.8,21.8,18.5z"/>
		</g>
	</g>
</g>
<g id="IG" class="st0">
	<g class="st1">
		<g>
			<path d="M30.5,13.1h-13c-2.4,0-4.4,2-4.4,4.4v13.1c0,2.4,2,4.4,4.4,4.4h13.1c2.4,0,4.4-2,4.4-4.4V17.5C34.9,15,33,13.1,30.5,13.1
				z M28.4,16.4h3.3v3.3h-3.3V16.4z M24,19.6c2.4,0,4.4,2,4.4,4.4s-2,4.4-4.4,4.4s-4.4-2-4.4-4.4S21.6,19.6,24,19.6z M32.7,30.5
				c0,1.2-1,2.2-2.2,2.2h-13c-1.2,0-2.2-1-2.2-2.2v-7.6h2.3c-0.7,3.6,1.7,7,5.3,7.6c3.6,0.7,7-1.7,7.6-5.3c0.1-0.4,0.1-0.9,0.1-1.3
				s0-0.7-0.1-1.1h2.3L32.7,30.5L32.7,30.5z"/>
		</g>
	</g>
</g>
<g id="LINE" class="st0">
	<g class="st1">
		<path d="M37.3,21L37.3,21L37.3,21L37.3,21L37.3,21v-0.3c0-0.1,0-0.1,0-0.2v-0.1l0,0c-0.3-1.9-1.2-3.6-2.6-5.1
			c-1.4-1.5-3.2-2.7-5.2-3.4c-1.7-0.6-3.6-1-5.4-1c-2.5,0-5,0.6-7.1,1.7c-4.1,2.2-6.5,6.2-6.2,10.2c0.2,2.1,1,4.1,2.4,5.7
			c1.3,1.6,3,2.8,5,3.7c1.2,0.5,2.4,0.7,3.7,1h0.2c0.4,0.1,0.4,0.2,0.5,0.2c0,0.1,0,0.2,0,0.3s0,0.1-0.1,0.2
			c-0.1,0.6-0.3,1.1-0.2,1.8c0.1,0.7,0.6,1.2,1.3,1.2l0,0c0.7,0,1.5-0.5,2.1-0.8h0.1c1.3-0.8,2.5-1.6,3.4-2.3c2-1.5,4.3-3.1,6-5.2
			C36.8,26.5,37.6,23.7,37.3,21z M19,25.1h-2.3c-0.3,0-0.6-0.3-0.6-0.6v-4.8c0-0.3,0.3-0.6,0.6-0.6s0.6,0.3,0.6,0.6v4.2H19
			c0.3,0,0.6,0.3,0.6,0.6C19.6,24.8,19.3,25.1,19,25.1z M21.4,24.5c0,0.3-0.3,0.6-0.6,0.6s-0.6-0.3-0.6-0.6v-4.8
			c0-0.3,0.3-0.6,0.6-0.6s0.6,0.3,0.6,0.6V24.5z M27.1,24.5c0,0.3-0.2,0.5-0.4,0.6c-0.1,0-0.1,0-0.2,0c-0.2,0-0.4-0.1-0.5-0.3
			l-2.3-3.1v2.8c0,0.3-0.3,0.6-0.6,0.6s-0.6-0.3-0.6-0.6v-4.7c0-0.3,0.2-0.5,0.4-0.6c0.3-0.1,0.5,0,0.7,0.2l2.3,3.1v-2.9
			c0-0.3,0.3-0.6,0.6-0.6s0.6,0.3,0.6,0.6V24.5z M31.7,25h-3.1c-0.3,0-0.6-0.3-0.6-0.6V22v-2.4c0-0.3,0.3-0.6,0.6-0.6h3
			c0.3,0,0.6,0.3,0.6,0.6s-0.3,0.6-0.6,0.6h-2.4v1.2h1.9c0.3,0,0.6,0.3,0.6,0.6s-0.3,0.6-0.6,0.6h-1.9v1.2h2.5
			c0.3,0,0.6,0.3,0.6,0.6C32.3,24.7,32,25,31.7,25z"/>
	</g>
</g>
<g id="轉寄友人" class="st0">
	<g class="st1">
		<path class="st2" d="M32.9,27.6c0,0.7-1,0.4-1.4,0.4c-1.1,0-2.3,0-3.4,0.2c-1,0.3-2.1,0.7-2.9,1.3l-0.1,0.1
			c-0.1,0.1-0.3,0.2-0.4,0.3c-0.1,0.1-0.2,0.1-0.3,0.2c-1.6,1.3-2.8,3.1-3.3,5.1c-0.2,0.7-0.3,1.3-0.3,1.7c4-5,10.4-5.3,11.7-5.3
			c0.2,0,0.5,0.2,0.5,0.5v3.4l5.7-5.7L33,24.1L32.9,27.6z"/>
		<path class="st2" d="M21.8,22.3c1.2,1.1,3,1.1,4.2,0l7.6-7.3l0,0c-0.1,0-0.1,0-0.2,0h-19c-0.1,0-0.1,0-0.2,0l0,0L21.8,22.3
			L21.8,22.3z"/>
		<path class="st2" d="M13.5,28.5c0,0.1,0,0.2,0,0.3l6.9-6.6l-6.9-6.6c0,0.1,0,0.2,0,0.3V28.5z"/>
		<path class="st2" d="M24,29.4c1.5-1.3,3.3-2,5.2-2.2l0,0c0.3,0,0.5,0,0.8,0c1.2,0,1.6,0,1.8,0h0.1H32v-4.1c0-0.2,0.1-0.3,0.3-0.4
			h0.1c0.1,0,0.3,0,0.4,0.1l1.5,1.5v-8.4c0-0.1,0-0.2,0-0.3l-7.6,7.3C25.9,23.6,25,24,24,24s-2-0.4-2.7-1.1l0,0l-0.1-0.1l-6.9,6.6
			c0.1,0,0.1,0,0.2,0H24z"/>
	</g>
</g>
<g id="友善列印" class="st0">
	<path class="st3" d="M29,19H19v-1h10V19z M29,31H19v-6h10V31z M31,19v-4H17v4h-4v9c0,1.1,0.9,2,2,2h2v3h14v-3h2c1.1,0,2-0.9,2-2v-9
		H31z"/>
</g>
<g id="加入行事曆" class="st0">
	<g class="st1">
		<g>
			<path d="M27.3,27.8c0-2.1,1.1-4.1,2.9-5.2H14v9c0,0.6,0.3,1.2,0.7,1.7c0.4,0.4,1.1,0.7,1.7,0.7h17.1c-1.6,0-3.2-0.7-4.4-1.8
				S27.3,29.5,27.3,27.8z"/>
			<path d="M33.5,22.6c-1.4,0-2.7,0.6-3.7,1.5c-1,1-1.5,2.3-1.5,3.7s0.6,2.7,1.5,3.7c1,1,2.3,1.5,3.7,1.5s2.7-0.6,3.7-1.5
				c1-1,1.5-2.3,1.5-3.7s-0.6-2.7-1.5-3.7C36.2,23.1,34.9,22.6,33.5,22.6L33.5,22.6z M35.4,28.3H34v1.4c0,0.3-0.2,0.5-0.5,0.5
				S33,30,33,29.7v-1.4h-1.4c-0.3,0-0.5-0.2-0.5-0.5s0.2-0.5,0.5-0.5H33v-1.4c0-0.3,0.2-0.5,0.5-0.5s0.5,0.2,0.5,0.5v1.4h1.4
				c0.3,0,0.5,0.2,0.5,0.5S35.7,28.3,35.4,28.3z"/>
		</g>
		<path d="M33.4,16.6c-0.4-0.4-1.1-0.7-1.7-0.7h-0.6v0.6c0,1.1-0.9,2.1-2.1,2.1c-1.1,0-2.1-0.9-2.1-2.1v-0.6h-5.8v0.6
			c0,1.1-0.9,2.1-2.1,2.1s-2.1-0.9-2.1-2.1v-0.6h-0.6c-0.6,0-1.2,0.3-1.7,0.7c-0.4,0.4-0.7,1.1-0.7,1.7v3.3h20v-3.4
			C34.1,17.7,33.8,17,33.4,16.6z"/>
		<path d="M29.1,12.3c0.6,0,1.1,0.5,1.1,1.1v3.1c0,0.6-0.5,1.1-1.1,1.1S28,17.1,28,16.5v-3.1C28,12.8,28.5,12.3,29.1,12.3"/>
		<path d="M19.1,12.3c0.6,0,1.1,0.5,1.1,1.1v3.1c0,0.6-0.5,1.1-1.1,1.1S18,17.1,18,16.5v-3.1C18.1,12.8,18.5,12.3,19.1,12.3"/>
	</g>
</g>
<g id="回上一頁" class="st0">
	<path class="st1" d="M20.7,16.9L14,21.6l6.7,4.7V24c7.4,0,10.1,2.3,13.3,7.1c-1.3-7.6-5.1-12-13.3-12V16.9z"/>
</g>
<g id="圖層_7">
</g>
<path class="st2" d="M25.6,12c0.4,0,0.6,0.3,0.6,0.6v2c0,0.3,0.2,0.6,0.5,0.6c0.6,0.2,1.1,0.4,1.6,0.6c0.3,0.1,0.6,0.1,0.8-0.1
	l1.4-1.4c0.2-0.2,0.7-0.2,0.9,0l2.2,2.2c0.2,0.2,0.2,0.7,0,0.9l-1.2,1.2c-0.2,0.2-0.2,0.6-0.1,0.8c0.3,0.6,0.6,1.2,0.8,1.8
	c0.1,0.3,0.3,0.5,0.6,0.5h1.6c0.4,0,0.6,0.3,0.6,0.6v3.1c0,0.4-0.3,0.6-0.6,0.6h-1.5c-0.3,0-0.6,0.2-0.6,0.5
	c-0.2,0.7-0.4,1.3-0.8,1.9c-0.1,0.3-0.1,0.6,0.1,0.8l1,1c0.2,0.2,0.2,0.7,0,0.9l-2.2,2.2c-0.2,0.2-0.7,0.2-0.9,0l-1-1
	c-0.2-0.2-0.5-0.2-0.8-0.1c-0.6,0.3-1.3,0.6-1.9,0.8c-0.3,0.1-0.5,0.3-0.5,0.6v1.5c0,0.4-0.3,0.6-0.6,0.6h-3.1
	c-0.4,0-0.6-0.3-0.6-0.6v-1.6c0-0.3-0.2-0.5-0.5-0.6c-0.6-0.2-1.2-0.5-1.8-0.8c-0.3-0.2-0.6-0.1-0.8,0.1l-1.2,1.2
	c-0.2,0.2-0.7,0.2-0.9,0l-2.2-2.2c-0.2-0.2-0.2-0.7,0-0.9l1.4-1.4c0.2-0.2,0.2-0.5,0.1-0.8c-0.3-0.5-0.5-1.1-0.6-1.6
	c-0.1-0.3-0.3-0.5-0.6-0.5h-2c-0.4,0-0.6-0.3-0.6-0.6v-3.1c0-0.4,0.3-0.6,0.6-0.6h2.1c0.3,0,0.5-0.2,0.6-0.5c0.2-0.5,0.4-1,0.6-1.5
	c0.1-0.3,0.1-0.6-0.1-0.8l-1.5-1.5c-0.2-0.2-0.2-0.7,0-0.9l2.2-2.2c0.2-0.2,0.7-0.2,0.9,0l1.5,1.5c0.2,0.2,0.5,0.2,0.8,0.1
	c0.5-0.3,1-0.5,1.5-0.6c0.3-0.1,0.5-0.3,0.5-0.6v-2.1c0-0.4,0.3-0.6,0.6-0.6L25.6,12z M30.1,24.2c0,3.2-2.6,5.9-5.9,5.9
	s-5.9-2.6-5.9-5.9s2.6-5.9,5.9-5.9S30.1,21,30.1,24.2z M24.2,26.7c1.4,0,2.4-1.1,2.4-2.4s-1.1-2.4-2.4-2.4c-1.4,0-2.4,1.1-2.4,2.4
	S22.9,26.7,24.2,26.7z"/>
</svg>
