<?xml version="1.0" encoding="utf-8"?>
<!-- Generator: Adobe Illustrator 27.5.0, SVG Export Plug-In . SVG Version: 6.00 Build 0)  -->
<svg version="1.1" xmlns="http://www.w3.org/2000/svg" xmlns:xlink="http://www.w3.org/1999/xlink" x="0px" y="0px"
	 viewBox="0 0 48 48" style="enable-background:new 0 0 48 48;" xml:space="preserve">
<style type="text/css">
	.st0{display:none;}
	.st1{display:inline;}
	.st2{display:inline;fill-rule:evenodd;clip-rule:evenodd;}
</style>
<g id="FB" class="st0">
	<g class="st1">
		<g>
			<path d="M21.8,18.5v2.2h-2.2V24h2.2v9.8h4.4V24h2.9l0.4-3.3h-3.3v-1.9c0-0.9,0.1-1.4,1.5-1.4h1.8v-3.3h-2.9
				C23,14.2,21.8,15.8,21.8,18.5z"/>
		</g>
	</g>
</g>
<g id="IG" class="st0">
	<g class="st1">
		<g>
			<path d="M30.5,13.1h-13c-2.4,0-4.4,2-4.4,4.4v13.1c0,2.4,2,4.4,4.4,4.4h13.1c2.4,0,4.4-2,4.4-4.4V17.5C34.9,15,33,13.1,30.5,13.1
				z M28.4,16.4h3.3v3.3h-3.3V16.4z M24,19.6c2.4,0,4.4,2,4.4,4.4s-2,4.4-4.4,4.4s-4.4-2-4.4-4.4S21.6,19.6,24,19.6z M32.7,30.5
				c0,1.2-1,2.2-2.2,2.2h-13c-1.2,0-2.2-1-2.2-2.2v-7.6h2.3c-0.7,3.6,1.7,7,5.3,7.6c3.6,0.7,7-1.7,7.6-5.3c0.1-0.4,0.1-0.9,0.1-1.3
				s0-0.7-0.1-1.1h2.3L32.7,30.5L32.7,30.5z"/>
		</g>
	</g>
</g>
<g id="LINE">
	<g>
		<path d="M37.3,21L37.3,21L37.3,21C37.3,21,37.3,21,37.3,21C37.3,21,37.3,21,37.3,21l0-0.3c0-0.1,0-0.1,0-0.2l0-0.1l0,0
			c-0.3-1.9-1.2-3.6-2.6-5.1c-1.4-1.5-3.2-2.7-5.2-3.4c-1.7-0.6-3.6-1-5.4-1c-2.5,0-5,0.6-7.1,1.7c-4.1,2.2-6.5,6.2-6.2,10.2
			c0.2,2.1,1,4.1,2.4,5.7c1.3,1.6,3,2.8,5,3.7c1.2,0.5,2.4,0.7,3.7,1l0.2,0c0.4,0.1,0.4,0.2,0.5,0.2c0,0.1,0,0.2,0,0.3
			c0,0.1,0,0.1-0.1,0.2c-0.1,0.6-0.3,1.1-0.2,1.8c0.1,0.7,0.6,1.2,1.3,1.2c0,0,0,0,0,0c0.7,0,1.5-0.5,2.1-0.8l0.1,0
			c1.3-0.8,2.5-1.6,3.4-2.3c2-1.5,4.3-3.1,6-5.2C36.8,26.5,37.6,23.7,37.3,21z M19,25.1h-2.3c-0.3,0-0.6-0.3-0.6-0.6v-4.8
			c0-0.3,0.3-0.6,0.6-0.6s0.6,0.3,0.6,0.6v4.2H19c0.3,0,0.6,0.3,0.6,0.6C19.6,24.8,19.3,25.1,19,25.1z M21.4,24.5
			c0,0.3-0.3,0.6-0.6,0.6s-0.6-0.3-0.6-0.6v-4.8c0-0.3,0.3-0.6,0.6-0.6s0.6,0.3,0.6,0.6V24.5z M27.1,24.5c0,0.3-0.2,0.5-0.4,0.6
			c-0.1,0-0.1,0-0.2,0c-0.2,0-0.4-0.1-0.5-0.3l-2.3-3.1v2.8c0,0.3-0.3,0.6-0.6,0.6s-0.6-0.3-0.6-0.6v-4.7c0-0.3,0.2-0.5,0.4-0.6
			c0.3-0.1,0.5,0,0.7,0.2l2.3,3.1v-2.9c0-0.3,0.3-0.6,0.6-0.6s0.6,0.3,0.6,0.6V24.5z M31.7,25h-3.1c-0.3,0-0.6-0.3-0.6-0.6v-2.4
			v-2.4c0-0.3,0.3-0.6,0.6-0.6h3c0.3,0,0.6,0.3,0.6,0.6s-0.3,0.6-0.6,0.6h-2.4v1.2h1.9c0.3,0,0.6,0.3,0.6,0.6s-0.3,0.6-0.6,0.6h-1.9
			v1.2h2.5c0.3,0,0.6,0.3,0.6,0.6C32.3,24.7,32,25,31.7,25z"/>
	</g>
</g>
<g id="轉寄友人" class="st0">
	<g class="st1">
		<path d="M29.1,20H11.8h0c-1.3,0-2.3,1.1-2.3,2.3v10.7v0c0,1.3,1.1,2.3,2.3,2.3h17.3h0c1.3,0,2.3-1.1,2.4-2.3v0V22.4v0
			C31.5,21.1,30.4,20,29.1,20z M29.6,21.1L29.6,21.1L29.6,21.1L29.6,21.1L29.6,21.1z M30.2,22.4V33l-5.4-6.2l5.4-4.7
			C30.2,22.1,30.2,22.3,30.2,22.4z M29.9,34.1L29.9,34.1L29.9,34.1L29.9,34.1L29.9,34.1z M23.8,27.3L23.8,27.3L23.8,27.3L23.8,27.3
			L23.8,27.3z M20.2,30L20.2,30L20.2,30L20.2,30z M20.5,28.9l-8.6-7.6H29L20.5,28.9z M17.1,27.6l2.9,2.6l0,0l0,0
			c0.1,0.1,0.3,0.1,0.4,0.2l0,0c0,0,0,0,0,0c0,0,0,0,0,0v0c0.2,0,0.3-0.1,0.4-0.2l0,0L20.7,30l0,0l0.1,0.2l2.9-2.6l5.7,6.5
			c-0.1,0-0.2,0.1-0.4,0.1H11.8c-0.1,0-0.3,0-0.4-0.1L17.1,27.6z M30.2,21.7L30.2,21.7L30.2,21.7L30.2,21.7L30.2,21.7z M16.5,26.7
			L16.5,26.7L16.5,26.7L16.5,26.7L16.5,26.7z M10.8,22l5.4,4.7L10.7,33V22.4C10.7,22.3,10.8,22.1,10.8,22z"/>
		<path d="M38.5,12.6h-5.9c-0.3,0-0.6,0.1-0.8,0.3c-0.2,0.2-0.3,0.5-0.3,0.8v5.9h2.4v-2.9c1.3,1,2.2,2.5,2.3,4.2
			c0.2,1.7-0.4,3.3-1.5,4.5c-1.1,1.2-2.7,1.9-4.4,1.9v2.4v0c2.3,0,4.5-1,6.1-2.7c1.6-1.7,2.3-4,2.2-6.3c-0.2-2.3-1.3-4.4-3.1-5.8
			h3.2L38.5,12.6z"/>
	</g>
</g>
<g id="友善列印" class="st0">
	<path class="st2" d="M29,19H19v-1h10V19z M29,31H19v-6h10V31z M31,19v-4H17v4h-4v9c0,1.1,0.9,2,2,2h2v3h14v-3h2c1.1,0,2-0.9,2-2v-9
		H31z"/>
</g>
<g id="加入行事曆" class="st0">
	<g class="st1">
		<path d="M20.6,21h-0.4c-0.3,0-0.6,0.3-0.6,0.6s0.3,0.6,0.6,0.6h0.4c0.3,0,0.6-0.3,0.6-0.6S20.9,21,20.6,21z"/>
		<path d="M23.3,21h-0.4c-0.3,0-0.6,0.3-0.6,0.6s0.3,0.6,0.6,0.6h0.4c0.3,0,0.6-0.3,0.6-0.6S23.7,21,23.3,21z"/>
		<path d="M26.1,21h-0.4c-0.3,0-0.6,0.3-0.6,0.6s0.3,0.6,0.6,0.6h0.4c0.3,0,0.6-0.3,0.6-0.6S26.4,21,26.1,21z"/>
		<path d="M28.4,22.3h0.4c0.3,0,0.6-0.3,0.6-0.6S29.1,21,28.8,21h-0.4c-0.3,0-0.6,0.3-0.6,0.6S28.1,22.3,28.4,22.3z"/>
		<path d="M17.8,23.4h-0.4c-0.3,0-0.6,0.3-0.6,0.6s0.3,0.6,0.6,0.6h0.4c0.3,0,0.6-0.3,0.6-0.6S18.2,23.4,17.8,23.4z"/>
		<path d="M20.6,23.4h-0.4c-0.3,0-0.6,0.3-0.6,0.6s0.3,0.6,0.6,0.6h0.4c0.3,0,0.6-0.3,0.6-0.6S20.9,23.4,20.6,23.4z"/>
		<path d="M23.3,23.4h-0.4c-0.3,0-0.6,0.3-0.6,0.6s0.3,0.6,0.6,0.6h0.4c0.3,0,0.6-0.3,0.6-0.6S23.7,23.4,23.3,23.4z"/>
		<path d="M26.1,23.4h-0.4c-0.3,0-0.6,0.3-0.6,0.6s0.3,0.6,0.6,0.6h0.4c0.3,0,0.6-0.3,0.6-0.6S26.4,23.4,26.1,23.4z"/>
		<path d="M17.8,25.7h-0.4c-0.3,0-0.6,0.3-0.6,0.6c0,0.3,0.3,0.6,0.6,0.6h0.4c0.3,0,0.6-0.3,0.6-0.6C18.5,26,18.2,25.7,17.8,25.7z"
			/>
		<path d="M20.6,25.7h-0.4c-0.3,0-0.6,0.3-0.6,0.6c0,0.3,0.3,0.6,0.6,0.6h0.4c0.3,0,0.6-0.3,0.6-0.6C21.2,26,20.9,25.7,20.6,25.7z"
			/>
		<path d="M23.3,25.7h-0.4c-0.3,0-0.6,0.3-0.6,0.6c0,0.3,0.3,0.6,0.6,0.6h0.4c0.3,0,0.6-0.3,0.6-0.6C23.9,26,23.7,25.7,23.3,25.7z"
			/>
		<path d="M26.1,25.7h-0.4c-0.3,0-0.6,0.3-0.6,0.6c0,0.3,0.3,0.6,0.6,0.6h0.4c0.3,0,0.6-0.3,0.6-0.6C26.7,26,26.4,25.7,26.1,25.7z"
			/>
		<path d="M17.8,28.1h-0.4c-0.3,0-0.6,0.3-0.6,0.6c0,0.3,0.3,0.6,0.6,0.6h0.4c0.3,0,0.6-0.3,0.6-0.6C18.5,28.3,18.2,28.1,17.8,28.1z
			"/>
		<path d="M20.6,28.1h-0.4c-0.3,0-0.6,0.3-0.6,0.6c0,0.3,0.3,0.6,0.6,0.6h0.4c0.3,0,0.6-0.3,0.6-0.6C21.2,28.3,20.9,28.1,20.6,28.1z
			"/>
		<path d="M23.3,28.1h-0.4c-0.3,0-0.6,0.3-0.6,0.6c0,0.3,0.3,0.6,0.6,0.6h0.4c0.3,0,0.6-0.3,0.6-0.6C23.9,28.3,23.7,28.1,23.3,28.1z
			"/>
		<path d="M26.1,28.1h-0.4c-0.3,0-0.6,0.3-0.6,0.6c0,0.3,0.3,0.6,0.6,0.6h0.4c0.3,0,0.6-0.3,0.6-0.6C26.7,28.3,26.4,28.1,26.1,28.1z
			"/>
		<path d="M17.8,30.4h-0.4c-0.3,0-0.6,0.3-0.6,0.6c0,0.3,0.3,0.6,0.6,0.6h0.4c0.3,0,0.6-0.3,0.6-0.6C18.5,30.7,18.2,30.4,17.8,30.4z
			"/>
		<path d="M20.6,30.4h-0.4c-0.3,0-0.6,0.3-0.6,0.6c0,0.3,0.3,0.6,0.6,0.6h0.4c0.3,0,0.6-0.3,0.6-0.6C21.2,30.7,20.9,30.4,20.6,30.4z
			"/>
		<path d="M23.3,30.4h-0.4c-0.3,0-0.6,0.3-0.6,0.6c0,0.3,0.3,0.6,0.6,0.6h0.4c0.3,0,0.6-0.3,0.6-0.6C23.9,30.7,23.7,30.4,23.3,30.4z
			"/>
		<path d="M26.1,30.4h-0.4c-0.3,0-0.6,0.3-0.6,0.6c0,0.3,0.3,0.6,0.6,0.6h0.4c0.3,0,0.6-0.3,0.6-0.6C26.7,30.7,26.4,30.4,26.1,30.4z
			"/>
		<path d="M35.2,19.3c-0.2,0-0.5,0-0.7,0v-3.2c0-0.3-0.3-0.6-0.6-0.6h-1.7c0-0.9-0.7-1.6-1.6-1.6c-0.9,0-1.6,0.7-1.6,1.6H20
			c0-0.9-0.7-1.6-1.6-1.6s-1.6,0.7-1.6,1.6h-1.7c-0.3,0-0.6,0.3-0.6,0.6v17.2c0,0.3,0.3,0.6,0.6,0.6h18.8c0.3,0,0.6-0.3,0.6-0.6
			v-1.1c0.2,0,0.5,0,0.7,0c3.6,0,6.5-2.9,6.5-6.5C41.7,22.2,38.8,19.3,35.2,19.3z M30.2,16.2v-0.6c0-0.2,0.2-0.4,0.4-0.4
			c0.2,0,0.4,0.2,0.4,0.4v1.2c0,0.2-0.2,0.4-0.4,0.4c-0.2,0-0.4-0.2-0.4-0.4V16.2z M18.1,16.2v-0.6c0-0.2,0.2-0.4,0.4-0.4
			c0.2,0,0.4,0.2,0.4,0.4v1.2c0,0.2-0.2,0.4-0.4,0.4c-0.2,0-0.4-0.2-0.4-0.4V16.2z M15.7,16.8h1.1c0,0.9,0.7,1.6,1.6,1.6
			s1.6-0.7,1.6-1.6H29c0,0.9,0.8,1.6,1.8,1.6l0,0l0-0.2l0-0.1l0,0.2c0.8-0.1,1.4-0.7,1.4-1.6h1.1v1.9H15.7V16.8z M33.2,32.8H15.7
			V19.9h16.7c-1.5,0.7-2.7,2-3.3,3.6c-0.1-0.1-0.2-0.1-0.3-0.1h-0.4c-0.3,0-0.6,0.3-0.6,0.6s0.3,0.6,0.6,0.6h0.4c0,0,0,0,0,0
			c-0.1,0.4-0.1,0.7-0.1,1.1h-0.3c-0.3,0-0.6,0.3-0.6,0.6c0,0.3,0.3,0.6,0.6,0.6h0.4c0.1,0.4,0.2,0.8,0.3,1.2
			c-0.1-0.1-0.2-0.1-0.3-0.1h-0.4c-0.3,0-0.6,0.3-0.6,0.6c0,0.3,0.3,0.6,0.6,0.6h0.4c0.3,0,0.6-0.2,0.6-0.5c0.8,1.5,2.2,2.7,3.9,3.3
			V32.8z M38,26.7h-1.9v1.9c0,0.5-0.4,0.9-0.9,0.9s-0.9-0.4-0.9-0.9v-1.9h-1.9c-0.5,0-0.9-0.4-0.9-0.9s0.4-0.9,0.9-0.9h1.9V23
			c0-0.5,0.4-0.9,0.9-0.9s0.9,0.4,0.9,0.9v1.9H38c0.5,0,0.9,0.4,0.9,0.9S38.5,26.7,38,26.7z"/>
	</g>
</g>
</svg>
