<svg width="54" height="54" viewBox="0 0 54 54" fill="none" xmlns="http://www.w3.org/2000/svg">
<g clip-path="url(#clip0_53_1417)">
<path d="M51.3633 47.6334H50.8729C49.9986 46.644 49.5007 45.2676 49.5007 43.8097C49.5007 42.3518 49.9975 40.9754 50.8718 39.986H51.3633C52.0668 39.986 52.7291 39.655 53.227 39.0527C53.7248 38.4505 54 37.6521 54 36.8028C54 35.047 52.8177 33.6196 51.3633 33.6196H48.9396C49.216 33.365 49.4807 33.0887 49.7296 32.7869C51.2009 31.0107 52.0067 28.65 52.0004 26.1378C51.9877 21.2968 48.8648 17.3076 44.897 16.853C45.0141 16.5028 45.0763 16.1247 45.0763 15.7351C45.0763 14.09 43.9679 12.7518 42.6062 12.7518H42.1875C41.4187 11.8694 40.982 10.6508 40.982 9.35845C40.982 8.06607 41.4187 6.84753 42.1875 5.96387H42.6062C43.2644 5.96387 43.8845 5.65446 44.3539 5.08913C44.82 4.52506 45.0763 3.77637 45.0763 2.98057C45.0763 1.33676 43.9679 -0.00146484 42.6062 -0.00146484H13.2153C8.89632 -0.000191559 5.37156 4.18509 5.3589 9.32789C5.35257 11.8401 6.15835 14.2008 7.62964 15.977C7.8796 16.2788 8.14433 16.5551 8.4196 16.8097H5.18171C3.81906 16.8097 2.71058 18.1479 2.71058 19.7917C2.71058 20.5888 2.96792 21.3375 3.4341 21.9003C3.90132 22.4644 4.52148 22.775 5.18171 22.775H5.59937C6.36824 23.6574 6.80593 24.8772 6.80593 26.1696C6.80593 27.462 6.36824 28.6818 5.59937 29.5642H5.18171C3.81906 29.5642 2.71058 30.9024 2.71058 32.5462C2.71058 33.342 2.96687 34.0907 3.43515 34.6573C3.61023 34.8674 3.8064 35.0431 4.01839 35.1794C1.61581 36.9798 0.00952618 40.1592 3.39889e-05 43.7766C-0.00629414 46.5116 0.871206 49.0824 2.47222 51.0152C4.06691 52.9404 6.18683 54.0011 8.4407 54.0011H51.3633C52.0668 54.0011 52.7291 53.67 53.227 53.0678C53.7258 52.4655 54 51.6671 54 50.8179C54 49.062 52.8177 47.6347 51.3633 47.6347V47.6334ZM52.418 36.8028C52.418 37.1428 52.3083 37.4611 52.109 37.703C51.9096 37.945 51.6449 38.0761 51.3633 38.0761H45.0384V35.5295H51.3633C51.9445 35.5295 52.418 36.1012 52.418 36.8028ZM8.74867 14.6273C7.57796 13.214 6.93566 11.3346 6.94199 9.33553C6.95253 5.24192 9.76644 1.91101 13.2163 1.91101H42.6073C43.0967 1.91101 43.4954 2.39231 43.4954 2.98311C43.4954 3.2696 43.4025 3.54081 43.237 3.74199C43.0682 3.94572 42.8446 4.05649 42.6073 4.05649H17.3233C16.8866 4.05649 16.5323 4.48432 16.5323 5.01146C16.5323 5.5386 16.8866 5.96642 17.3233 5.96642H40.1794C39.6753 6.97868 39.4011 8.14628 39.4011 9.361C39.4011 10.5757 39.6753 11.742 40.1784 12.7543H13.1119C12.3494 12.7543 11.6353 12.3901 11.1006 11.7293C10.5669 11.0685 10.2822 10.1975 10.3012 9.27696C10.3381 7.45107 11.629 5.96642 13.1794 5.96642H14.1582C14.5948 5.96642 14.9492 5.5386 14.9492 5.01146C14.9492 4.48432 14.5948 4.05649 14.1582 4.05649H13.1794C10.7768 4.05649 8.77609 6.37769 8.71914 9.23112C8.69066 10.6712 9.13468 12.0323 9.96894 13.0637C10.8032 14.0963 11.9201 14.6642 13.1119 14.6642H42.6062C43.0956 14.6642 43.4943 15.1455 43.4943 15.7376C43.4943 16.0241 43.4015 16.294 43.2348 16.4965C43.0661 16.7002 42.8436 16.811 42.6062 16.811H13.1119C11.4634 16.811 9.9141 16.0356 8.74761 14.6286L8.74867 14.6273ZM4.55312 20.5506C4.38542 20.3482 4.29367 20.0795 4.29367 19.7917C4.29367 19.2009 4.69234 18.7196 5.18277 18.7196H44.144C47.5928 18.7196 50.4078 22.0505 50.4194 26.1454C50.4246 28.1445 49.7834 30.0239 48.6127 31.4372C47.635 32.6175 46.3884 33.3509 45.0394 33.5572V31.3875C45.9275 31.194 46.7438 30.6732 47.3903 29.8736C48.2246 28.841 48.6686 27.4798 48.6401 26.0397C48.5842 23.1863 46.5845 20.8651 44.1809 20.8651H5.18171C4.94441 20.8651 4.72082 20.7531 4.55207 20.5506H4.55312ZM7.61066 22.775H44.1809C45.7313 22.775 47.0222 24.2597 47.0581 26.0856C47.076 27.0074 46.7923 27.8784 46.2576 28.5392C45.9137 28.9645 45.4961 29.265 45.0384 29.4267V27.4289C45.0384 26.9018 44.684 26.4739 44.2473 26.4739H28.6011C28.1644 26.4739 27.81 26.9018 27.81 27.4289C27.81 27.956 28.1644 28.3839 28.6011 28.3839H33.9399V29.5629H7.6096C8.11375 28.5507 8.38796 27.3818 8.38796 26.1683C8.38796 24.9549 8.11375 23.786 7.6096 22.7738L7.61066 22.775ZM35.523 28.3851H43.4563V41.924L39.8535 39.6703C39.7396 39.599 39.6141 39.5633 39.4896 39.5633C39.3652 39.5633 39.2397 39.599 39.1258 39.6703L35.523 41.924V28.3851ZM5.18277 31.4741H33.9409V33.6196H5.18171C4.94441 33.6196 4.71976 33.5076 4.55312 33.3077C4.38437 33.1039 4.29261 32.834 4.29261 32.5462C4.29261 31.9554 4.69128 31.4741 5.18171 31.4741H5.18277ZM52.109 51.7168C51.9096 51.9575 51.6449 52.0899 51.3633 52.0899H8.4407C6.60871 52.0899 4.8864 51.2279 3.59019 49.6643C2.28976 48.0943 1.57574 46.0048 1.58101 43.783C1.59261 39.2322 4.72082 35.5308 8.55355 35.5308H33.9388V38.0774H8.51453C5.91683 38.0774 3.75367 40.587 3.69249 43.6709C3.66191 45.2281 4.14179 46.7001 5.0446 47.8155C5.94742 48.9309 7.15292 49.5446 8.4407 49.5446H37.2737C37.7104 49.5446 38.0648 49.1168 38.0648 48.5896C38.0648 48.0625 37.7104 47.6347 37.2737 47.6347H8.4407C7.58218 47.6347 6.77851 47.2247 6.17628 46.4811C5.57406 45.7362 5.25449 44.7558 5.27453 43.7168C5.31566 41.6604 6.76902 39.9873 8.51453 39.9873H33.9399V43.4952C33.9399 43.8288 34.0833 44.1382 34.3196 44.3114C34.5558 44.4845 34.849 44.4973 35.0948 44.3432L39.4886 41.5955L43.8824 44.3432C43.9963 44.4145 44.1218 44.4502 44.2463 44.4502C44.3887 44.4502 44.5311 44.4031 44.6576 44.3114C44.8939 44.1382 45.0373 43.8288 45.0373 43.4952V39.9873H48.8352C48.2425 41.118 47.9177 42.4371 47.9177 43.811C47.9177 45.1849 48.2425 46.504 48.8352 47.6347H40.4368C40.0001 47.6347 39.6457 48.0625 39.6457 48.5896C39.6457 49.1168 40.0001 49.5446 40.4368 49.5446H51.3623C51.9434 49.5446 52.417 50.1163 52.417 50.8179C52.417 51.1578 52.3073 51.4762 52.1079 51.7181L52.109 51.7168Z" fill="#444444"/>
</g>
<defs>
<clipPath id="clip0_53_1417">
<rect width="54" height="54" fill="white"/>
</clipPath>
</defs>
</svg>
