<svg width="54" height="54" viewBox="0 0 54 54" fill="none" xmlns="http://www.w3.org/2000/svg">
<g clip-path="url(#clip0_53_1420)">
<path d="M53.2051 12.6194C53.6434 12.6194 54 12.264 54 11.8256V8.52799C54 8.08967 53.6446 7.7331 53.2062 7.7331H43.4394V4.88628H44.634C45.0723 4.88628 45.4289 4.53085 45.4289 4.09253V0.794886C45.43 0.356563 45.0746 0 44.6362 0H9.3683C8.92997 0 8.57341 0.355427 8.57341 0.79375V4.09139C8.57341 4.52971 8.92884 4.88628 9.36716 4.88628H10.5629V7.7331H0.794886C0.356563 7.7331 0 8.08853 0 8.52685V11.8234C0 12.2617 0.355427 12.6182 0.79375 12.6182H1.98949V49.1137H0.794886C0.356563 49.1137 0 49.4692 0 49.9086V53.2051C0 53.6434 0.355427 54 0.79375 54H53.2051C53.6434 54 54 53.6446 54 53.2062V49.9086C54 49.4703 53.6446 49.1137 53.2062 49.1137H52.0105V12.6194H53.2051ZM52.4102 9.32287V11.0296H43.4371V9.32287H52.4102ZM27.7949 49.1126V35.2305H32.6664V49.1149L27.7949 49.1126ZM21.3336 49.1126V35.2305H26.2051V49.1149L21.3336 49.1126ZM33.4613 33.6384H20.5387C20.0993 33.6384 19.7438 33.9939 19.7438 34.4333V49.1126H18.7877L17.0333 44.2263V27.7949H36.9667V44.2274L35.2123 49.1137H34.2562V34.4345C34.2562 33.995 33.9007 33.6396 33.4613 33.6396V33.6373V33.6384ZM11.9165 45.162H15.6786L17.098 49.1137H10.4982L11.9176 45.162H11.9165ZM38.3214 45.162H42.0835L43.503 49.1137H36.9031L38.3226 45.162H38.3214ZM10.1632 1.58977H43.8379V3.2965H10.1632V1.58977ZM41.8485 4.88628V43.5722H38.5576V27C38.5576 26.5605 38.2022 26.2051 37.7628 26.2051H16.2395C15.8001 26.2051 15.4446 26.5605 15.4446 27V43.5722H12.1538V4.88628H41.8485ZM1.58977 9.32287H10.5629V11.0296H1.58977V9.32287ZM3.57926 12.6194H10.5629V44.2286L8.80847 49.1149H3.57926V12.6194ZM52.4102 52.4091H1.58977V50.7024H52.4102V52.4091ZM50.4207 49.1126H45.1927L43.4382 44.2263V12.6194H50.4219V49.1126H50.4207Z" fill="#444444"/>
<path d="M24.2861 23.5322H29.714C30.1535 23.5322 30.5089 23.1768 30.5089 22.7373V17.3105C30.5089 16.8711 30.1535 16.5156 29.714 16.5156H24.2861C23.8466 16.5156 23.4912 16.8711 23.4912 17.3105V22.7373C23.4912 23.1768 23.8466 23.5322 24.2861 23.5322ZM25.081 18.1054H28.9191V21.9424H25.081V18.1054Z" fill="#444444"/>
<path d="M15.3349 23.5322H20.7629C21.2023 23.5322 21.5577 23.1768 21.5577 22.7373V17.3105C21.5577 16.8711 21.2023 16.5156 20.7629 16.5156H15.3349C14.8955 16.5156 14.54 16.8711 14.54 17.3105V22.7373C14.54 23.1768 14.8955 23.5322 15.3349 23.5322ZM16.1298 18.1054H19.968V21.9424H16.1298V18.1054Z" fill="#444444"/>
<path d="M33.2373 23.5322H38.6652C39.1047 23.5322 39.4601 23.1768 39.4601 22.7373V17.3105C39.4601 16.8711 39.1047 16.5156 38.6652 16.5156H33.2373C32.7978 16.5156 32.4424 16.8711 32.4424 17.3105V22.7373C32.4424 23.1768 32.7978 23.5322 33.2373 23.5322ZM34.0322 18.1054H37.8703V21.9424H34.0322V18.1054Z" fill="#444444"/>
<path d="M24.2861 14.5773H29.714C30.1535 14.5773 30.5089 14.2218 30.5089 13.7824V8.35446C30.5089 7.915 30.1535 7.55957 29.714 7.55957H24.2861C23.8466 7.55957 23.4912 7.915 23.4912 8.35446V13.7824C23.4912 14.2207 23.8478 14.5761 24.2861 14.5773ZM25.081 9.14934H28.9191V12.9875H25.081V9.14934Z" fill="#444444"/>
<path d="M15.3349 14.5773H20.7629C21.2023 14.5773 21.5577 14.2218 21.5577 13.7824V8.35446C21.5577 7.915 21.2023 7.55957 20.7629 7.55957H15.3349C14.8955 7.55957 14.54 7.915 14.54 8.35446V13.7824C14.54 14.2207 14.8966 14.5761 15.3349 14.5773ZM16.1298 9.14934H19.968V12.9875H16.1298V9.14934Z" fill="#444444"/>
<path d="M33.2373 14.5773H38.6652C39.1047 14.5773 39.4601 14.2218 39.4601 13.7824V8.35446C39.4601 7.915 39.1047 7.55957 38.6652 7.55957H33.2373C32.7978 7.55957 32.4424 7.915 32.4424 8.35446V13.7824C32.4424 14.2207 32.7989 14.5761 33.2373 14.5773ZM34.0322 9.14934H37.8703V12.9875H34.0322V9.14934Z" fill="#444444"/>
</g>
<defs>
<clipPath id="clip0_53_1420">
<rect width="54" height="54" fill="white"/>
</clipPath>
</defs>
</svg>
