<?xml version="1.0" encoding="utf-8"?>
<!-- Generator: Adobe Illustrator 27.5.0, SVG Export Plug-In . SVG Version: 6.00 Build 0)  -->
<svg version="1.1" xmlns="http://www.w3.org/2000/svg" xmlns:xlink="http://www.w3.org/1999/xlink" x="0px" y="0px"
	 viewBox="0 0 48 48" style="enable-background:new 0 0 48 48;" xml:space="preserve">
<style type="text/css">
	.st0{display:none;}
	.st1{display:inline;}
	.st2{fill-rule:evenodd;clip-rule:evenodd;}
</style>
<g id="FB" class="st0">
	<g class="st1">
		<g>
			<path d="M21.8,18.5v2.2h-2.2V24h2.2v9.8h4.4V24h2.9l0.4-3.3h-3.3v-1.9c0-0.9,0.1-1.4,1.5-1.4h1.8v-3.3h-2.9
				C23,14.2,21.8,15.8,21.8,18.5z"/>
		</g>
	</g>
</g>
<g id="IG" class="st0">
	<g class="st1">
		<g>
			<path d="M30.5,13.1h-13c-2.4,0-4.4,2-4.4,4.4v13.1c0,2.4,2,4.4,4.4,4.4h13.1c2.4,0,4.4-2,4.4-4.4V17.5C34.9,15,33,13.1,30.5,13.1
				z M28.4,16.4h3.3v3.3h-3.3V16.4z M24,19.6c2.4,0,4.4,2,4.4,4.4s-2,4.4-4.4,4.4s-4.4-2-4.4-4.4S21.6,19.6,24,19.6z M32.7,30.5
				c0,1.2-1,2.2-2.2,2.2h-13c-1.2,0-2.2-1-2.2-2.2v-7.6h2.3c-0.7,3.6,1.7,7,5.3,7.6c3.6,0.7,7-1.7,7.6-5.3c0.1-0.4,0.1-0.9,0.1-1.3
				s0-0.7-0.1-1.1h2.3L32.7,30.5L32.7,30.5z"/>
		</g>
	</g>
</g>
<g id="LINE" class="st0">
	<g class="st1">
		<path d="M34.2,21.7L34.2,21.7L34.2,21.7C34.2,21.7,34.2,21.7,34.2,21.7C34.2,21.7,34.2,21.7,34.2,21.7l0-0.3c0,0,0-0.1,0-0.1l0,0
			l0,0c-0.3-1.4-0.9-2.8-2-3.9c-1.1-1.1-2.4-2.1-4-2.6C26.8,14.2,25.4,14,24,14c-2,0-3.9,0.5-5.5,1.3c-3.2,1.7-5,4.8-4.7,7.9
			c0.1,1.6,0.8,3.1,1.8,4.4c1,1.2,2.3,2.2,3.8,2.8c0.9,0.4,1.9,0.6,2.9,0.8l0.1,0c0.3,0.1,0.3,0.1,0.4,0.2c0,0.1,0,0.2,0,0.2
			c0,0.1,0,0.1,0,0.2c-0.1,0.4-0.2,0.9-0.1,1.4c0.1,0.6,0.5,0.9,1,0.9c0,0,0,0,0,0c0.6,0,1.2-0.4,1.6-0.6l0.1,0
			c1-0.6,1.9-1.2,2.7-1.8c1.6-1.1,3.3-2.4,4.6-4C33.8,25.9,34.5,23.8,34.2,21.7z M20.1,24.9h-1.8c-0.3,0-0.5-0.2-0.5-0.5v-3.7
			c0-0.3,0.2-0.5,0.5-0.5c0.3,0,0.5,0.2,0.5,0.5v3.2h1.3c0.3,0,0.5,0.2,0.5,0.5C20.6,24.6,20.4,24.9,20.1,24.9z M22,24.4
			c0,0.3-0.2,0.5-0.5,0.5c-0.3,0-0.5-0.2-0.5-0.5v-3.7c0-0.3,0.2-0.5,0.5-0.5c0.3,0,0.5,0.2,0.5,0.5V24.4z M26.4,24.4
			c0,0.2-0.1,0.4-0.3,0.5c0,0-0.1,0-0.1,0c-0.2,0-0.3-0.1-0.4-0.2l-1.7-2.4v2.1c0,0.3-0.2,0.5-0.5,0.5c-0.3,0-0.5-0.2-0.5-0.5v-3.6
			c0-0.2,0.1-0.4,0.3-0.5c0.2-0.1,0.4,0,0.5,0.2l1.7,2.4v-2.2c0-0.3,0.2-0.5,0.5-0.5c0.3,0,0.5,0.2,0.5,0.5V24.4z M29.9,24.8h-2.4
			c-0.3,0-0.5-0.2-0.5-0.5v-1.9v-1.9c0-0.3,0.2-0.5,0.5-0.5h2.3c0.3,0,0.5,0.2,0.5,0.5c0,0.3-0.2,0.5-0.5,0.5H28v0.9h1.5
			c0.3,0,0.5,0.2,0.5,0.5c0,0.3-0.2,0.5-0.5,0.5H28v0.9h1.9c0.3,0,0.5,0.2,0.5,0.5C30.4,24.5,30.2,24.8,29.9,24.8z"/>
	</g>
</g>
<g id="轉寄友人" class="st0">
	<g class="st1">
		<path d="M29.1,20H11.8h0c-1.3,0-2.3,1.1-2.3,2.3v10.7v0c0,1.3,1.1,2.3,2.3,2.3h17.3h0c1.3,0,2.3-1.1,2.4-2.3v0V22.4v0
			C31.5,21.1,30.4,20,29.1,20z M29.6,21.1L29.6,21.1L29.6,21.1L29.6,21.1L29.6,21.1z M30.2,22.4V33l-5.4-6.2l5.4-4.7
			C30.2,22.1,30.2,22.3,30.2,22.4z M29.9,34.1L29.9,34.1L29.9,34.1L29.9,34.1L29.9,34.1z M23.8,27.3L23.8,27.3L23.8,27.3L23.8,27.3
			L23.8,27.3z M20.2,30L20.2,30L20.2,30L20.2,30z M20.5,28.9l-8.6-7.6H29L20.5,28.9z M17.1,27.6l2.9,2.6l0,0l0,0
			c0.1,0.1,0.3,0.1,0.4,0.2l0,0c0,0,0,0,0,0c0,0,0,0,0,0v0c0.2,0,0.3-0.1,0.4-0.2l0,0L20.7,30l0,0l0.1,0.2l2.9-2.6l5.7,6.5
			c-0.1,0-0.2,0.1-0.4,0.1H11.8c-0.1,0-0.3,0-0.4-0.1L17.1,27.6z M30.2,21.7L30.2,21.7L30.2,21.7L30.2,21.7L30.2,21.7z M16.5,26.7
			L16.5,26.7L16.5,26.7L16.5,26.7L16.5,26.7z M10.8,22l5.4,4.7L10.7,33V22.4C10.7,22.3,10.8,22.1,10.8,22z"/>
		<path d="M38.5,12.6h-5.9c-0.3,0-0.6,0.1-0.8,0.3c-0.2,0.2-0.3,0.5-0.3,0.8v5.9h2.4v-2.9c1.3,1,2.2,2.5,2.3,4.2
			c0.2,1.7-0.4,3.3-1.5,4.5c-1.1,1.2-2.7,1.9-4.4,1.9v2.4v0c2.3,0,4.5-1,6.1-2.7c1.6-1.7,2.3-4,2.2-6.3c-0.2-2.3-1.3-4.4-3.1-5.8
			h3.2L38.5,12.6z"/>
	</g>
</g>
<g id="友善列印">
	<path class="st2" d="M29,19H19v-1h10V19z M29,31H19v-6h10V31z M31,19v-4H17v4h-4v9c0,1.1,0.9,2,2,2h2v3h14v-3h2c1.1,0,2-0.9,2-2v-9
		H31z"/>
</g>
<g id="加入行事曆" class="st0">
	<g class="st1">
		<path d="M16.5,21h-0.4c-0.3,0-0.6,0.3-0.6,0.6s0.3,0.6,0.6,0.6h0.4c0.3,0,0.6-0.3,0.6-0.6S16.8,21,16.5,21z"/>
		<path d="M19.2,21h-0.4c-0.3,0-0.6,0.3-0.6,0.6s0.3,0.6,0.6,0.6h0.4c0.3,0,0.6-0.3,0.6-0.6S19.6,21,19.2,21z"/>
		<path d="M22,21h-0.4c-0.3,0-0.6,0.3-0.6,0.6s0.3,0.6,0.6,0.6H22c0.3,0,0.6-0.3,0.6-0.6S22.3,21,22,21z"/>
		<path d="M24.3,22.3h0.4c0.3,0,0.6-0.3,0.6-0.6S25,21,24.7,21h-0.4c-0.3,0-0.6,0.3-0.6,0.6S24,22.3,24.3,22.3z"/>
		<path d="M13.8,23.4h-0.4c-0.3,0-0.6,0.3-0.6,0.6s0.3,0.6,0.6,0.6h0.4c0.3,0,0.6-0.3,0.6-0.6S14.1,23.4,13.8,23.4z"/>
		<path d="M16.5,23.4h-0.4c-0.3,0-0.6,0.3-0.6,0.6s0.3,0.6,0.6,0.6h0.4c0.3,0,0.6-0.3,0.6-0.6S16.8,23.4,16.5,23.4z"/>
		<path d="M19.2,23.4h-0.4c-0.3,0-0.6,0.3-0.6,0.6s0.3,0.6,0.6,0.6h0.4c0.3,0,0.6-0.3,0.6-0.6S19.6,23.4,19.2,23.4z"/>
		<path d="M22,23.4h-0.4c-0.3,0-0.6,0.3-0.6,0.6s0.3,0.6,0.6,0.6H22c0.3,0,0.6-0.3,0.6-0.6S22.3,23.4,22,23.4z"/>
		<path d="M13.8,25.7h-0.4c-0.3,0-0.6,0.3-0.6,0.6c0,0.3,0.3,0.6,0.6,0.6h0.4c0.3,0,0.6-0.3,0.6-0.6C14.4,26,14.1,25.7,13.8,25.7z"
			/>
		<path d="M16.5,25.7h-0.4c-0.3,0-0.6,0.3-0.6,0.6c0,0.3,0.3,0.6,0.6,0.6h0.4c0.3,0,0.6-0.3,0.6-0.6C17.1,26,16.8,25.7,16.5,25.7z"
			/>
		<path d="M19.2,25.7h-0.4c-0.3,0-0.6,0.3-0.6,0.6c0,0.3,0.3,0.6,0.6,0.6h0.4c0.3,0,0.6-0.3,0.6-0.6C19.8,26,19.6,25.7,19.2,25.7z"
			/>
		<path d="M22,25.7h-0.4c-0.3,0-0.6,0.3-0.6,0.6c0,0.3,0.3,0.6,0.6,0.6H22c0.3,0,0.6-0.3,0.6-0.6C22.6,26,22.3,25.7,22,25.7z"/>
		<path d="M13.8,28.1h-0.4c-0.3,0-0.6,0.3-0.6,0.6c0,0.3,0.3,0.6,0.6,0.6h0.4c0.3,0,0.6-0.3,0.6-0.6C14.4,28.3,14.1,28.1,13.8,28.1z
			"/>
		<path d="M16.5,28.1h-0.4c-0.3,0-0.6,0.3-0.6,0.6c0,0.3,0.3,0.6,0.6,0.6h0.4c0.3,0,0.6-0.3,0.6-0.6C17.1,28.3,16.8,28.1,16.5,28.1z
			"/>
		<path d="M19.2,28.1h-0.4c-0.3,0-0.6,0.3-0.6,0.6c0,0.3,0.3,0.6,0.6,0.6h0.4c0.3,0,0.6-0.3,0.6-0.6C19.8,28.3,19.6,28.1,19.2,28.1z
			"/>
		<path d="M22,28.1h-0.4c-0.3,0-0.6,0.3-0.6,0.6c0,0.3,0.3,0.6,0.6,0.6H22c0.3,0,0.6-0.3,0.6-0.6C22.6,28.3,22.3,28.1,22,28.1z"/>
		<path d="M13.8,30.4h-0.4c-0.3,0-0.6,0.3-0.6,0.6c0,0.3,0.3,0.6,0.6,0.6h0.4c0.3,0,0.6-0.3,0.6-0.6C14.4,30.7,14.1,30.4,13.8,30.4z
			"/>
		<path d="M16.5,30.4h-0.4c-0.3,0-0.6,0.3-0.6,0.6c0,0.3,0.3,0.6,0.6,0.6h0.4c0.3,0,0.6-0.3,0.6-0.6C17.1,30.7,16.8,30.4,16.5,30.4z
			"/>
		<path d="M19.2,30.4h-0.4c-0.3,0-0.6,0.3-0.6,0.6c0,0.3,0.3,0.6,0.6,0.6h0.4c0.3,0,0.6-0.3,0.6-0.6C19.8,30.7,19.6,30.4,19.2,30.4z
			"/>
		<path d="M22,30.4h-0.4c-0.3,0-0.6,0.3-0.6,0.6c0,0.3,0.3,0.6,0.6,0.6H22c0.3,0,0.6-0.3,0.6-0.6C22.6,30.7,22.3,30.4,22,30.4z"/>
		<path d="M31.1,19.3c-0.2,0-0.5,0-0.7,0v-3.2c0-0.3-0.3-0.6-0.6-0.6H28c0-0.9-0.7-1.6-1.6-1.6c-0.9,0-1.6,0.7-1.6,1.6h-8.9
			c0-0.9-0.7-1.6-1.6-1.6s-1.6,0.7-1.6,1.6H11c-0.3,0-0.6,0.3-0.6,0.6v17.2c0,0.3,0.3,0.6,0.6,0.6h18.8c0.3,0,0.6-0.3,0.6-0.6v-1.1
			c0.2,0,0.5,0,0.7,0c3.6,0,6.5-2.9,6.5-6.5C37.6,22.2,34.7,19.3,31.1,19.3z M26.1,16.2v-0.6c0-0.2,0.2-0.4,0.4-0.4
			c0.2,0,0.4,0.2,0.4,0.4v1.2c0,0.2-0.2,0.4-0.4,0.4c-0.2,0-0.4-0.2-0.4-0.4V16.2z M14,16.2v-0.6c0-0.2,0.2-0.4,0.4-0.4
			c0.2,0,0.4,0.2,0.4,0.4v1.2c0,0.2-0.2,0.4-0.4,0.4c-0.2,0-0.4-0.2-0.4-0.4V16.2z M11.6,16.8h1.1c0,0.9,0.7,1.6,1.6,1.6
			s1.6-0.7,1.6-1.6h8.9c0,0.9,0.8,1.6,1.8,1.6l0,0l0-0.2l0-0.1l0,0.2c0.8-0.1,1.4-0.7,1.4-1.6h1.1v1.9H11.6V16.8z M29.2,32.8H11.6
			V19.9h16.7c-1.5,0.7-2.7,2-3.3,3.6c-0.1-0.1-0.2-0.1-0.3-0.1h-0.4c-0.3,0-0.6,0.3-0.6,0.6s0.3,0.6,0.6,0.6h0.4c0,0,0,0,0,0
			c-0.1,0.4-0.1,0.7-0.1,1.1h-0.3c-0.3,0-0.6,0.3-0.6,0.6c0,0.3,0.3,0.6,0.6,0.6h0.4c0.1,0.4,0.2,0.8,0.3,1.2
			c-0.1-0.1-0.2-0.1-0.3-0.1h-0.4c-0.3,0-0.6,0.3-0.6,0.6c0,0.3,0.3,0.6,0.6,0.6h0.4c0.3,0,0.6-0.2,0.6-0.5c0.8,1.5,2.2,2.7,3.9,3.3
			V32.8z M33.9,26.7H32v1.9c0,0.5-0.4,0.9-0.9,0.9s-0.9-0.4-0.9-0.9v-1.9h-1.9c-0.5,0-0.9-0.4-0.9-0.9s0.4-0.9,0.9-0.9h1.9V23
			c0-0.5,0.4-0.9,0.9-0.9S32,22.5,32,23v1.9h1.9c0.5,0,0.9,0.4,0.9,0.9S34.4,26.7,33.9,26.7z"/>
	</g>
</g>
</svg>
