<?xml version="1.0" encoding="utf-8"?>
<!-- Generator: Adobe Illustrator 27.9.0, SVG Export Plug-In . SVG Version: 6.00 Build 0)  -->
<svg version="1.1" id="圖層_1" xmlns="http://www.w3.org/2000/svg" xmlns:xlink="http://www.w3.org/1999/xlink" x="0px" y="0px"
	 viewBox="0 0 48 48" style="enable-background:new 0 0 48 48;" xml:space="preserve">
<style type="text/css">
	.st0{fill:#4285F4;}
	.st1{fill:#34A853;}
	.st2{fill:#FBBC05;}
	.st3{fill:#EA4335;}
	.st4{fill:none;}
</style>
<g>
	<path class="st0" d="M39.4,24.4c0-1.1-0.1-2.2-0.3-3.3H24v6.2h8.6c-0.4,2-1.5,3.7-3.2,4.8v4h5.2C37.6,33.3,39.4,29.2,39.4,24.4z"/>
	<path class="st1" d="M24,40c4.3,0,7.9-1.4,10.6-3.9l-5.2-4c-1.4,1-3.3,1.5-5.4,1.5c-4.2,0-7.7-2.8-9-6.6H9.7v4.1
		C12.3,36.4,17.7,40,24,40z"/>
	<path class="st2" d="M15,27c-0.3-1-0.5-2-0.5-3s0.2-2.1,0.5-3v-4.1H9.7C8.6,19,8,21.5,8,24c0,2.6,0.6,5,1.7,7.2
		C9.7,31.2,15,27,15,27z"/>
	<path class="st3" d="M24,14.4c2.3,0,4.5,0.8,6.1,2.4l4.6-4.6C31.9,9.6,28.3,8,24,8c-6.3,0-11.7,3.6-14.3,8.8L15,21
		C16.3,17.2,19.8,14.4,24,14.4z"/>
	<path class="st4" d="M8,8h32v32H8V8z"/>
</g>
</svg>
