<?xml version="1.0" encoding="utf-8"?>
<!-- Generator: Adobe Illustrator 27.5.0, SVG Export Plug-In . SVG Version: 6.00 Build 0)  -->
<svg version="1.1" id="圖層_1" xmlns="http://www.w3.org/2000/svg" xmlns:xlink="http://www.w3.org/1999/xlink" x="0px" y="0px"
	 viewBox="0 0 48 48" style="enable-background:new 0 0 48 48;" xml:space="preserve">
<g>
	<g>
		<path d="M30.5,13.1H17.5c-2.4,0-4.4,2-4.4,4.4v13.1c0,2.4,2,4.4,4.4,4.4h13.1c2.4,0,4.4-2,4.4-4.4V17.5C34.9,15,33,13.1,30.5,13.1
			z M28.4,16.4h3.3v3.3h-3.3V16.4z M24,19.6c2.4,0,4.4,2,4.4,4.4c0,2.4-2,4.4-4.4,4.4c-2.4,0-4.4-2-4.4-4.4
			C19.6,21.6,21.6,19.6,24,19.6z M32.7,30.5c0,1.2-1,2.2-2.2,2.2H17.5c-1.2,0-2.2-1-2.2-2.2v-7.6h2.3c-0.7,3.6,1.7,7,5.3,7.6
			c3.6,0.7,7-1.7,7.6-5.3c0.1-0.4,0.1-0.9,0.1-1.3c0-0.4,0-0.7-0.1-1.1h2.3L32.7,30.5L32.7,30.5z"/>
	</g>
</g>
</svg>
