<svg width="54" height="54" viewBox="0 0 54 54" fill="none" xmlns="http://www.w3.org/2000/svg">
<g clip-path="url(#clip0_53_950)">
<mask id="mask0_53_950" style="mask-type:luminance" maskUnits="userSpaceOnUse" x="0" y="0" width="54" height="54">
<path d="M54 0H0V54H54V0Z" fill="white"/>
</mask>
<g mask="url(#mask0_53_950)">
<path d="M47.3423 53.9998H6.65818C4.47736 53.9998 2.70312 52.2255 2.70312 50.0447V45.6435C2.70312 45.2069 3.0575 44.8525 3.49414 44.8525C3.93078 44.8525 4.28515 45.2069 4.28515 45.6435V50.0447C4.28515 51.353 5.34985 52.4177 6.65818 52.4177H47.3423C48.6506 52.4177 49.7153 51.353 49.7153 50.0447V37.1006C49.7153 36.6639 50.0697 36.3096 50.5063 36.3096C50.943 36.3096 51.2974 36.6639 51.2974 37.1006V50.0447C51.2974 52.2255 49.5231 53.9998 47.3423 53.9998Z" fill="#444444"/>
<path d="M38.7343 50.8358H6.66274C4.47876 50.8358 2.70215 49.0592 2.70215 46.8752V7.57534C2.70215 5.39136 4.47876 3.61475 6.66274 3.61475H47.3366C49.5206 3.61475 51.2972 5.39136 51.2972 7.57534V38.2729C51.2972 39.3313 50.8851 40.3256 50.1368 41.0731L41.5345 49.6754C40.7862 50.4237 39.7919 50.8358 38.7343 50.8358ZM6.66274 5.19677C5.35125 5.19677 4.28417 6.26384 4.28417 7.57534V46.8752C4.28417 48.1867 5.35125 49.2537 6.66274 49.2537H38.7343C39.3695 49.2537 39.9667 49.0062 40.416 48.5569L49.0183 39.9546C49.4676 39.5053 49.7151 38.9081 49.7151 38.2729V7.57534C49.7151 6.26384 48.6481 5.19677 47.3366 5.19677H6.66274Z" fill="#444444"/>
<path d="M37.4355 50.8358C36.9989 50.8358 36.6445 50.4814 36.6445 50.0448C36.6445 49.6082 36.9989 49.2538 37.4355 49.2538C38.4314 49.2538 39.2414 48.4438 39.2414 47.4479V42.1679C39.2414 40.2995 40.761 38.78 42.6293 38.78H47.9093C48.9052 38.78 49.7152 37.97 49.7152 36.9741C49.7152 36.5375 50.0696 36.1831 50.5062 36.1831C50.9429 36.1831 51.2972 36.5375 51.2972 36.9741C51.2972 38.8425 49.7777 40.362 47.9093 40.362H42.6293C41.6334 40.362 40.8234 41.172 40.8234 42.1679V47.4479C40.8234 49.3163 39.3039 50.8358 37.4355 50.8358Z" fill="#444444"/>
<path d="M12.8463 16.5005H3.49414C3.0575 16.5005 2.70312 16.1461 2.70312 15.7095C2.70312 15.2728 3.0575 14.9185 3.49414 14.9185H12.8463C13.2829 14.9185 13.6373 15.2728 13.6373 15.7095C13.6373 16.1461 13.2829 16.5005 12.8463 16.5005Z" fill="#444444"/>
<path d="M50.5058 16.5005H16.0098C15.5731 16.5005 15.2188 16.1461 15.2188 15.7095C15.2188 15.2728 15.5731 14.9185 16.0098 14.9185H50.5058C50.9424 14.9185 51.2968 15.2728 51.2968 15.7095C51.2968 16.1461 50.9424 16.5005 50.5058 16.5005Z" fill="#444444"/>
<path d="M12.4504 9.92799C11.1239 9.92799 10.0449 8.84905 10.0449 7.52252V2.40547C10.0449 1.07894 11.1239 0 12.4504 0H12.8135C14.14 0 15.2189 1.07894 15.2189 2.40547V4.40594C15.2189 4.84257 14.8646 5.19695 14.4279 5.19695C13.9913 5.19695 13.6369 4.84257 13.6369 4.40594V2.40547C13.6369 1.95143 13.2675 1.58202 12.8135 1.58202H12.4504C11.9963 1.58202 11.6269 1.95143 11.6269 2.40547V7.52252C11.6269 7.97656 11.9963 8.34597 12.4504 8.34597C12.9044 8.34597 13.2414 8.70034 13.2414 9.13698C13.2414 9.57362 12.887 9.92799 12.4504 9.92799Z" fill="#444444"/>
<path d="M41.1867 9.92799C39.8602 9.92799 38.7812 8.84905 38.7812 7.52252V2.40547C38.7812 1.07894 39.8602 0 41.1867 0H41.5498C42.8763 0 43.9553 1.07894 43.9553 2.40547V4.40594C43.9553 4.84257 43.6009 5.19695 43.1642 5.19695C42.7276 5.19695 42.3732 4.84257 42.3732 4.40594V2.40547C42.3732 1.95143 42.0038 1.58202 41.5498 1.58202H41.1867C40.7327 1.58202 40.3633 1.95143 40.3633 2.40547V7.52252C40.3633 7.97656 40.7327 8.34597 41.1867 8.34597C41.6408 8.34597 41.9777 8.70034 41.9777 9.13698C41.9777 9.57362 41.6234 9.92799 41.1867 9.92799Z" fill="#444444"/>
<path d="M12.7601 26.5204H8.99327C8.14135 26.5204 7.44922 25.8275 7.44922 24.9764V21.2096C7.44922 20.3577 8.14215 19.6655 8.99327 19.6655H12.7601C13.612 19.6655 14.3041 20.3585 14.3041 21.2096V24.9764C14.3041 25.8283 13.6112 26.5204 12.7601 26.5204ZM9.03124 24.9384H12.7229V21.2468H9.03124V24.9384Z" fill="#444444"/>
<path d="M23.5091 26.5204H19.7423C18.8904 26.5204 18.1982 25.8275 18.1982 24.9764V21.2096C18.1982 20.3577 18.8912 19.6655 19.7423 19.6655H23.5091C24.361 19.6655 25.0532 20.3585 25.0532 21.2096V24.9764C25.0532 25.8283 24.3602 26.5204 23.5091 26.5204ZM19.7803 24.9384H23.4719V21.2468H19.7803V24.9384Z" fill="#444444"/>
<path d="M34.2581 26.5204H30.4913C29.6394 26.5204 28.9473 25.8275 28.9473 24.9764V21.2096C28.9473 20.3577 29.6402 19.6655 30.4913 19.6655H34.2581C35.11 19.6655 35.8022 20.3585 35.8022 21.2096V24.9764C35.8022 25.8283 35.1092 26.5204 34.2581 26.5204ZM30.5293 24.9384H34.2209V21.2468H30.5293V24.9384Z" fill="#444444"/>
<path d="M45.0062 26.5204H41.2394C40.3874 26.5204 39.6953 25.8275 39.6953 24.9764V21.2096C39.6953 20.3577 40.3882 19.6655 41.2394 19.6655H45.0062C45.8581 19.6655 46.5502 20.3585 46.5502 21.2096V24.9764C46.5502 25.8283 45.8573 26.5204 45.0062 26.5204ZM41.2773 24.9384H44.969V21.2468H41.2773V24.9384Z" fill="#444444"/>
<path d="M12.7601 36.3051H8.99327C8.14135 36.3051 7.44922 35.6122 7.44922 34.761V30.9942C7.44922 30.1423 8.14215 29.4502 8.99327 29.4502H12.7601C13.612 29.4502 14.3041 30.1431 14.3041 30.9942V34.761C14.3041 35.613 13.6112 36.3051 12.7601 36.3051ZM9.03124 34.7231H12.7229V31.0314H9.03124V34.7231Z" fill="#444444"/>
<path d="M23.5091 36.3051H19.7423C18.8904 36.3051 18.1982 35.6122 18.1982 34.761V30.9942C18.1982 30.1423 18.8912 29.4502 19.7423 29.4502H23.5091C24.361 29.4502 25.0532 30.1431 25.0532 30.9942V34.761C25.0532 35.613 24.3602 36.3051 23.5091 36.3051ZM19.7803 34.7231H23.4719V31.0314H19.7803V34.7231Z" fill="#444444"/>
<path d="M34.2581 36.3051H30.4913C29.6394 36.3051 28.9473 35.6122 28.9473 34.761V30.9942C28.9473 30.1423 29.6402 29.4502 30.4913 29.4502H34.2581C35.11 29.4502 35.8022 30.1431 35.8022 30.9942V34.761C35.8022 35.613 35.1092 36.3051 34.2581 36.3051ZM30.5293 34.7231H34.2209V31.0314H30.5293V34.7231Z" fill="#444444"/>
<path d="M45.0062 36.54H41.2394C40.3874 36.54 39.6953 35.847 39.6953 34.9959V31.2291C39.6953 30.3772 40.3882 29.6851 41.2394 29.6851H45.0062C45.8581 29.6851 46.5502 30.378 46.5502 31.2291V34.9959C46.5502 35.8478 45.8573 36.54 45.0062 36.54ZM41.2773 34.9579H44.969V31.2663H41.2773V34.9579Z" fill="#444444"/>
<path d="M12.7601 46.0898H8.99327C8.14135 46.0898 7.44922 45.3968 7.44922 44.5457V40.7789C7.44922 39.927 8.14215 39.2349 8.99327 39.2349H12.7601C13.612 39.2349 14.3041 39.9278 14.3041 40.7789V44.5457C14.3041 45.3976 13.6112 46.0898 12.7601 46.0898ZM9.03124 44.5077H12.7229V40.8161H9.03124V44.5077Z" fill="#444444"/>
<path d="M23.5091 46.0898H19.7423C18.8904 46.0898 18.1982 45.3968 18.1982 44.5457V40.7789C18.1982 39.927 18.8912 39.2349 19.7423 39.2349H23.5091C24.361 39.2349 25.0532 39.9278 25.0532 40.7789V44.5457C25.0532 45.3976 24.3602 46.0898 23.5091 46.0898ZM19.7803 44.5077H23.4719V40.8161H19.7803V44.5077Z" fill="#444444"/>
<path d="M34.2581 46.0898H30.4913C29.6394 46.0898 28.9473 45.3968 28.9473 44.5457C28.9473 44.1091 29.3016 43.7547 29.7383 43.7547C30.1749 43.7547 30.5087 44.0885 30.5285 44.5077H34.2209V40.8161H30.5293V41.865C30.5293 42.3016 30.1749 42.656 29.7383 42.656C29.3016 42.656 28.9473 42.3016 28.9473 41.865V40.7789C28.9473 39.927 29.6402 39.2349 30.4913 39.2349H34.2581C35.11 39.2349 35.8022 39.9278 35.8022 40.7789V44.5457C35.8022 45.3976 35.1092 46.0898 34.2581 46.0898Z" fill="#444444"/>
</g>
</g>
<defs>
<clipPath id="clip0_53_950">
<rect width="54" height="54" fill="white"/>
</clipPath>
</defs>
</svg>
