<svg width="54" height="54" viewBox="0 0 54 54" fill="none" xmlns="http://www.w3.org/2000/svg">
<g clip-path="url(#clip0_53_795)">
<path d="M17.3671 50.7544L18.2198 51.6071L18.2206 50.4012L18.2221 48.3043C18.2223 47.9981 18.4706 47.75 18.7768 47.75H30.1641C33.348 47.75 35.9375 45.1605 35.9375 41.9766V34.6992C35.9375 34.3929 36.1859 34.1445 36.4922 34.1445C36.7985 34.1445 37.0469 34.3929 37.0469 34.6992V41.9766C37.0469 45.7713 33.9588 48.8594 30.1641 48.8594H19.8307H19.331L19.3307 49.359L19.3281 52.9457C19.328 53.17 19.1928 53.3721 18.9855 53.4578L19.1766 53.9198L18.9855 53.4578C18.9168 53.4862 18.8449 53.5 18.7736 53.5C18.6289 53.5 18.4872 53.4435 18.3812 53.3375L14.0495 49.0058L13.9031 48.8594H13.696H7.38281C3.58807 48.8594 0.5 45.7713 0.5 41.9766V25.7344C0.5 21.9396 3.58807 18.8516 7.38281 18.8516H18.0352C18.3414 18.8516 18.5898 19.0999 18.5898 19.4062C18.5898 19.7126 18.3414 19.9609 18.0352 19.9609H7.38281C4.1989 19.9609 1.60938 22.5505 1.60938 25.7344V41.9766C1.60938 45.1605 4.1989 47.75 7.38281 47.75H14.2361C14.4623 47.75 14.6589 47.8858 14.7449 48.0833L14.7828 48.1702L14.8498 48.2372L17.3671 50.7544Z" fill="black" stroke="#444444"/>
<path d="M42.9147 29.8064L42.712 29.6038L42.4347 29.6763C41.2107 29.9966 39.9474 30.1588 38.6705 30.1588H36.0012C27.8248 30.1588 21.1719 23.506 21.1719 15.3295C21.1719 7.15292 27.8248 0.5 36.0013 0.5H38.6706C46.8471 0.5 53.5 7.15291 53.5 15.3295C53.5 17.6996 52.9581 19.9619 51.8888 22.058C50.9476 23.9032 49.6055 25.5562 47.99 26.8645L47.8047 27.0145V27.253V33.355C47.8047 33.5793 47.6696 33.7816 47.4623 33.8674L47.4622 33.8675C47.3936 33.8959 47.3217 33.9097 47.2502 33.9097C47.1057 33.9097 46.964 33.8533 46.8579 33.7473C46.8579 33.7473 46.8578 33.7473 46.8578 33.7473L42.9147 29.8064ZM45.8419 31.1635L46.6953 32.0165V30.8098V26.7388C46.6953 26.5645 46.7772 26.4004 46.9163 26.2956C50.394 23.6764 52.3906 19.6771 52.3906 15.3295C52.3906 7.76375 46.2364 1.60938 38.6706 1.60938H36.0013C28.4356 1.60938 22.2812 7.76374 22.2812 15.3295C22.2812 22.8952 28.4355 29.0495 36.0013 29.0495H38.6706C40.0448 29.0495 41.4025 28.8467 42.7059 28.4461L42.706 28.4461C42.7598 28.4296 42.8147 28.4216 42.8687 28.4216C43.0137 28.4216 43.1554 28.4785 43.261 28.584L45.8419 31.1635Z" fill="black" stroke="#444444"/>
<path d="M34.9261 8.95588L34.9261 8.9559C34.1256 9.70312 33.666 10.7607 33.666 11.8551C33.666 12.1614 33.9144 12.4098 34.2207 12.4098C34.527 12.4098 34.7754 12.1614 34.7754 11.8551C34.7754 11.0562 35.099 10.3121 35.6831 9.76693L35.6831 9.76692C36.2676 9.22141 37.0343 8.95108 37.8349 9.00631L34.9261 8.95588ZM34.9261 8.95588C35.7385 8.19744 36.7968 7.82293 37.9111 7.89942L34.9261 8.95588ZM38.1859 18.6444V18.6443V16.1947V15.8011L38.5685 15.7087C40.4558 15.2527 41.7214 13.5287 41.5868 11.5751C41.4518 9.61616 39.8702 8.03451 37.9112 7.89943L38.1859 18.6444ZM38.1859 18.6444C38.186 18.9507 37.9377 19.199 37.6313 19.199C37.3251 19.199 37.0767 18.9506 37.0767 18.6443V16.1104C37.0767 15.4012 37.5594 14.7984 38.2582 14.642C39.6439 14.332 40.578 13.0704 40.4801 11.6514M38.1859 18.6444L40.4801 11.6514M40.4801 11.6514C40.3828 10.2394 39.2471 9.10365 37.8349 9.00631L40.4801 11.6514Z" fill="black" stroke="#444444"/>
<path d="M38.0229 22.4237C37.9204 22.3212 37.7754 22.2612 37.6309 22.2612C37.4863 22.2612 37.3413 22.3213 37.2388 22.4238C37.1362 22.5263 37.0762 22.6713 37.0762 22.8159C37.0762 22.9617 37.1364 23.1066 37.2388 23.2091C37.2388 23.2091 37.2388 23.2091 37.2388 23.2092M38.0229 22.4237L38.3765 23.5626C38.1804 23.7588 37.9082 23.8706 37.6309 23.8706C37.3535 23.8706 37.0814 23.7588 36.8852 23.5626L37.2388 23.2092M38.0229 22.4237C38.0229 22.4237 38.0229 22.4238 38.023 22.4238C38.1255 22.5265 38.1855 22.6715 38.1855 22.8159C38.1855 22.9608 38.126 23.1052 38.0225 23.2095M38.0229 22.4237L38.0225 23.2095M37.2388 23.2092C37.3405 23.3108 37.485 23.3706 37.6309 23.3706C37.7765 23.3706 37.9209 23.3109 38.0225 23.2095M37.2388 23.2092L38.0225 23.2095" fill="black" stroke="#444444"/>
<path d="M6.75 33.1953H29.0039C29.3102 33.1953 29.5586 33.4437 29.5586 33.75C29.5586 34.0564 29.3103 34.3047 29.0039 34.3047H6.75C6.44371 34.3047 6.19531 34.0563 6.19531 33.75C6.19531 33.4437 6.44371 33.1953 6.75 33.1953Z" fill="black" stroke="#444444"/>
<path d="M29.3958 39.264L29.3959 39.2641C29.4985 39.3668 29.5586 39.5118 29.5586 39.6562C29.5586 39.8016 29.4987 39.9456 29.396 40.0483L29.3958 40.0485C29.2934 40.1509 29.1485 40.2109 29.0039 40.2109C28.8593 40.2109 28.7143 40.1509 28.6118 40.0484C28.5093 39.9458 28.4492 39.8008 28.4492 39.6562C28.4492 39.5115 28.5092 39.3666 28.6117 39.2642L28.6118 39.2641C28.7143 39.1616 28.8593 39.1016 29.0039 39.1016C29.1485 39.1016 29.2934 39.1616 29.3958 39.264Z" fill="black" stroke="#444444"/>
<path d="M6.75 39.1016H24.8555C25.1618 39.1016 25.4102 39.3499 25.4102 39.6562C25.4102 39.9626 25.1619 40.2109 24.8555 40.2109H6.75C6.44371 40.2109 6.19531 39.9626 6.19531 39.6562C6.19531 39.3499 6.44371 39.1016 6.75 39.1016Z" fill="black" stroke="#444444"/>
<path d="M6.75 27.2891H22.1484C22.4547 27.2891 22.7031 27.5374 22.7031 27.8438C22.7031 28.1501 22.4548 28.3984 22.1484 28.3984H6.75C6.44371 28.3984 6.19531 28.1501 6.19531 27.8438C6.19531 27.5374 6.44371 27.2891 6.75 27.2891Z" fill="black" stroke="#444444"/>
</g>
<defs>
<clipPath id="clip0_53_795">
<rect width="54" height="54" fill="white"/>
</clipPath>
</defs>
</svg>
