<?xml version="1.0" encoding="utf-8"?>
<!-- Generator: Adobe Illustrator 27.9.0, SVG Export Plug-In . SVG Version: 6.00 Build 0)  -->
<svg version="1.1" id="圖層_1" xmlns="http://www.w3.org/2000/svg" xmlns:xlink="http://www.w3.org/1999/xlink" x="0px" y="0px"
	 viewBox="0 0 32 32" style="enable-background:new 0 0 32 32;" xml:space="preserve">
<style type="text/css">
	.st0{display:none;}
	.st1{display:inline;}
	.st2{display:inline;fill-rule:evenodd;clip-rule:evenodd;}
</style>
<g id="FB" class="st0">
	<g class="st1">
		<g>
			<path d="M21.8,10.5v2.2h-2.2V16h2.2v9.8h4.4V16h2.9l0.4-3.3h-3.3v-1.9c0-0.9,0.1-1.4,1.5-1.4h1.8V6.1h-2.9
				C23,6.2,21.8,7.8,21.8,10.5z"/>
		</g>
	</g>
</g>
<g id="IG" class="st0">
	<g class="st1">
		<g>
			<path d="M30.5,5.1h-13c-2.4,0-4.4,2-4.4,4.4v13.1c0,2.4,2,4.4,4.4,4.4h13.1c2.4,0,4.4-2,4.4-4.4V9.5C34.9,7,33,5.1,30.5,5.1z
				 M28.4,8.4h3.3v3.3h-3.3V8.4z M24,11.6c2.4,0,4.4,2,4.4,4.4s-2,4.4-4.4,4.4s-4.4-2-4.4-4.4S21.6,11.6,24,11.6z M32.7,22.5
				c0,1.2-1,2.2-2.2,2.2h-13c-1.2,0-2.2-1-2.2-2.2v-7.6h2.3c-0.7,3.6,1.7,7,5.3,7.6c3.6,0.7,7-1.7,7.6-5.3c0.1-0.4,0.1-0.9,0.1-1.3
				s0-0.7-0.1-1.1h2.3L32.7,22.5L32.7,22.5z"/>
		</g>
	</g>
</g>
<g id="LINE" class="st0">
	<g class="st1">
		<path d="M37.3,13L37.3,13L37.3,13L37.3,13L37.3,13v-0.3c0-0.1,0-0.1,0-0.2v-0.1l0,0c-0.3-1.9-1.2-3.6-2.6-5.1
			c-1.4-1.5-3.2-2.7-5.2-3.4c-1.7-0.6-3.6-1-5.4-1c-2.5,0-5,0.6-7.1,1.7c-4.1,2.2-6.5,6.2-6.2,10.2c0.2,2.1,1,4.1,2.4,5.7
			c1.3,1.6,3,2.8,5,3.7c1.2,0.5,2.4,0.7,3.7,1h0.2c0.4,0.1,0.4,0.2,0.5,0.2c0,0.1,0,0.2,0,0.3s0,0.1-0.1,0.2
			c-0.1,0.6-0.3,1.1-0.2,1.8c0.1,0.7,0.6,1.2,1.3,1.2l0,0c0.7,0,1.5-0.5,2.1-0.8h0.1c1.3-0.8,2.5-1.6,3.4-2.3c2-1.5,4.3-3.1,6-5.2
			C36.8,18.5,37.6,15.7,37.3,13z M19,17.1h-2.3c-0.3,0-0.6-0.3-0.6-0.6v-4.8c0-0.3,0.3-0.6,0.6-0.6s0.6,0.3,0.6,0.6v4.2H19
			c0.3,0,0.6,0.3,0.6,0.6C19.6,16.8,19.3,17.1,19,17.1z M21.4,16.5c0,0.3-0.3,0.6-0.6,0.6s-0.6-0.3-0.6-0.6v-4.8
			c0-0.3,0.3-0.6,0.6-0.6s0.6,0.3,0.6,0.6V16.5z M27.1,16.5c0,0.3-0.2,0.5-0.4,0.6c-0.1,0-0.1,0-0.2,0c-0.2,0-0.4-0.1-0.5-0.3
			l-2.3-3.1v2.8c0,0.3-0.3,0.6-0.6,0.6s-0.6-0.3-0.6-0.6v-4.7c0-0.3,0.2-0.5,0.4-0.6c0.3-0.1,0.5,0,0.7,0.2l2.3,3.1v-2.9
			c0-0.3,0.3-0.6,0.6-0.6s0.6,0.3,0.6,0.6V16.5z M31.7,17h-3.1c-0.3,0-0.6-0.3-0.6-0.6V14v-2.4c0-0.3,0.3-0.6,0.6-0.6h3
			c0.3,0,0.6,0.3,0.6,0.6s-0.3,0.6-0.6,0.6h-2.4v1.2h1.9c0.3,0,0.6,0.3,0.6,0.6s-0.3,0.6-0.6,0.6h-1.9v1.2h2.5
			c0.3,0,0.6,0.3,0.6,0.6C32.3,16.7,32,17,31.7,17z"/>
	</g>
</g>
<g id="友善列印" class="st0">
	<path class="st2" d="M29,11H19v-1h10V11z M29,23H19v-6h10V23z M31,11V7H17v4h-4v9c0,1.1,0.9,2,2,2h2v3h14v-3h2c1.1,0,2-0.9,2-2v-9
		H31z"/>
</g>
<g id="加入行事曆" class="st0">
	<g class="st1">
		<g>
			<path d="M27.3,19.8c0-2.1,1.1-4.1,2.9-5.2H14v9c0,0.6,0.3,1.2,0.7,1.7c0.4,0.4,1.1,0.7,1.7,0.7h17.1c-1.6,0-3.2-0.7-4.4-1.8
				S27.3,21.5,27.3,19.8z"/>
			<path d="M33.5,14.6c-1.4,0-2.7,0.6-3.7,1.5c-1,1-1.5,2.3-1.5,3.7s0.6,2.7,1.5,3.7c1,1,2.3,1.5,3.7,1.5s2.7-0.6,3.7-1.5
				c1-1,1.5-2.3,1.5-3.7s-0.6-2.7-1.5-3.7C36.2,15.1,34.9,14.6,33.5,14.6L33.5,14.6z M35.4,20.3H34v1.4c0,0.3-0.2,0.5-0.5,0.5
				S33,22,33,21.7v-1.4h-1.4c-0.3,0-0.5-0.2-0.5-0.5s0.2-0.5,0.5-0.5H33v-1.4c0-0.3,0.2-0.5,0.5-0.5s0.5,0.2,0.5,0.5v1.4h1.4
				c0.3,0,0.5,0.2,0.5,0.5S35.7,20.3,35.4,20.3z"/>
		</g>
		<path d="M33.4,8.6c-0.4-0.4-1.1-0.7-1.7-0.7h-0.6v0.6c0,1.1-0.9,2.1-2.1,2.1c-1.1,0-2.1-0.9-2.1-2.1V7.9h-5.8v0.6
			c0,1.1-0.9,2.1-2.1,2.1s-2.1-0.9-2.1-2.1V7.9h-0.6c-0.6,0-1.2,0.3-1.7,0.7c-0.4,0.4-0.7,1.1-0.7,1.7v3.3h20v-3.4
			C34.1,9.7,33.8,9,33.4,8.6z"/>
		<path d="M29.1,4.3c0.6,0,1.1,0.5,1.1,1.1v3.1c0,0.6-0.5,1.1-1.1,1.1S28,9.1,28,8.5V5.4C28,4.8,28.5,4.3,29.1,4.3"/>
		<path d="M19.1,4.3c0.6,0,1.1,0.5,1.1,1.1v3.1c0,0.6-0.5,1.1-1.1,1.1S18,9.1,18,8.5V5.4C18.1,4.8,18.5,4.3,19.1,4.3"/>
	</g>
</g>
<path d="M16,0C7.2,0,0,7.2,0,16s7.2,16,16,16s16-7.2,16-16S24.8,0,16,0z M16,9c0.3,0,0.5,0.1,0.7,0.3C16.9,9.5,17,9.7,17,10
	c0,0.3-0.1,0.5-0.3,0.7C16.5,10.9,16.3,11,16,11c-0.6,0-1-0.4-1-1S15.4,9,16,9L16,9z M16,13c0.3,0,0.5,0.1,0.7,0.3
	c0.2,0.2,0.3,0.4,0.3,0.7v8c0,0.3-0.1,0.5-0.3,0.7C16.5,22.9,16.3,23,16,23c-0.3,0-0.5-0.1-0.7-0.3C15.1,22.5,15,22.3,15,22v-8
	c0-0.3,0.1-0.5,0.3-0.7C15.5,13.1,15.7,13,16,13L16,13z"/>
</svg>
