<?xml version="1.0" encoding="utf-8"?>
<!-- Generator: Adobe Illustrator 27.5.0, SVG Export Plug-In . SVG Version: 6.00 Build 0)  -->
<svg version="1.1" id="圖層_1" xmlns="http://www.w3.org/2000/svg" xmlns:xlink="http://www.w3.org/1999/xlink" x="0px" y="0px"
	 viewBox="0 0 48 48" style="enable-background:new 0 0 48 48;" xml:space="preserve">
<style type="text/css">
	.st0{fill-rule:evenodd;clip-rule:evenodd;}
	.st1{fill-rule:evenodd;clip-rule:evenodd;fill:#FFFFFF;filter:url(#Adobe_OpacityMaskFilter);}
	.st2{mask:url(#path-2-inside-1_35_1578_00000066501486284676388730000010735144230979853195_);}
</style>
<path class="st0" d="M19.3,19.5h-1.6l0-3.5L15.8,11h1.6l1.1,3.3l1.1-3.3h1.5L19.3,16V19.5z M23.5,19.6H23c-1,0-1.8-0.8-1.8-1.8v-2.9
	c0-1,0.8-1.8,1.8-1.8h0.4c1,0,1.8,0.8,1.8,1.8v2.9C25.3,18.8,24.5,19.6,23.5,19.6z M23.3,14.1c-0.4,0-0.7,0.3-0.7,0.7v3.1
	c0,0.4,0.3,0.7,0.7,0.7c0.4,0,0.7-0.3,0.7-0.7v-3.1C23.9,14.4,23.6,14.1,23.3,14.1z M27.5,19.6c0.6-0.1,1.2-0.3,1.7-0.8v0.7h1.3
	v-6.4h-1.3V18c0,0-0.4,0.5-0.9,0.5c-0.4,0-0.4-0.3-0.4-0.3v-5.1h-1.4v5.6C26.6,19.2,27,19.6,27.5,19.6z M26,27.2
	c0.2-0.2,0.4-0.3,0.7-0.3c0.6,0,0.7,0.8,0.7,0.8v3.6c0,0,0,0.8-0.7,0.8c-0.3,0-0.5-0.1-0.7-0.3V27.2z M31.8,26.9
	c-0.7,0-0.7,0.8-0.7,0.8v1h1.4v-1C32.5,27.6,32.5,26.9,31.8,26.9z M32.3,21C32.3,21,32.3,21,32.3,21c1.9,0,3.4,1.4,3.4,3.2
	c0.2,1.4,0.3,2.8,0.3,4.2c0,1.4-0.1,2.8-0.3,4.2c0,0,0,0.1,0,0.1c-0.1,1.8-1.6,3.2-3.4,3.2c0,0-4.1,0.2-8.3,0.2s-8.3-0.2-8.3-0.2
	c0,0-0.1,0-0.1,0c-1.8,0-3.3-1.5-3.3-3.3c-0.2-1.4-0.3-2.8-0.3-4.2c0-1.4,0.1-2.8,0.3-4.1c0,0,0-0.1,0-0.1c0.1-1.8,1.6-3.2,3.4-3.2
	c0,0,4.1-0.2,8.3-0.2S32.3,21,32.3,21L32.3,21z M17.5,24.6h1.6l0-1.4h-5v1.4h1.6v8.5h1.6V24.6z M22,33.1h1.4l0-7.4h-1.4v6
	c0,0-0.5,0.5-0.9,0.5c-0.4,0-0.4-0.3-0.4-0.3v-6.2h-1.4v6.7c0.1,0.5,0.5,0.9,1,0.9c0.6-0.1,1.2-0.3,1.7-0.8V33.1z M26,32.5
	c0.3,0.5,0.9,0.7,1.5,0.7c1.2,0,1.2-1.7,1.2-1.7l0-4.1c0-1-0.3-1.7-1.2-1.7c-0.6,0-1.1,0.3-1.5,0.7v-3.2h-1.5v9.9H26V32.5z
	 M31.2,29.7H34h0v-2.2c0-0.1,0-0.2,0-0.3c-0.1-1-1-1.6-2-1.5c-0.1,0-0.2,0-0.2,0c-1,0-1.9,0.8-2,1.8v4.2c0.3,1,1.2,1.6,2.2,1.5
	c1,0.1,1.8-0.6,2-1.5v-1.2h-1.5v0.8c0,0,0,0.8-0.7,0.8s-0.7-0.8-0.7-0.8V29.7z"/>
<defs>
	<filter id="Adobe_OpacityMaskFilter" filterUnits="userSpaceOnUse" x="11" y="10" width="26" height="27">
		<feColorMatrix  type="matrix" values="1 0 0 0 0  0 1 0 0 0  0 0 1 0 0  0 0 0 1 0"/>
	</filter>
</defs>
<mask maskUnits="userSpaceOnUse" x="11" y="10" width="26" height="27" id="path-2-inside-1_35_1578_00000066501486284676388730000010735144230979853195_">
	<path class="st1" d="M19.3,19.5h-1.6l0-3.5L15.8,11h1.6l1.1,3.3l1.1-3.3h1.5L19.3,16V19.5z M23.5,19.6H23c-1,0-1.8-0.8-1.8-1.8
		v-2.9c0-1,0.8-1.8,1.8-1.8h0.4c1,0,1.8,0.8,1.8,1.8v2.9C25.3,18.8,24.5,19.6,23.5,19.6z M23.3,14.1c-0.4,0-0.7,0.3-0.7,0.7v3.1
		c0,0.4,0.3,0.7,0.7,0.7c0.4,0,0.7-0.3,0.7-0.7v-3.1C23.9,14.4,23.6,14.1,23.3,14.1z M27.5,19.6c0.6-0.1,1.2-0.3,1.7-0.8v0.7h1.3
		v-6.4h-1.3V18c0,0-0.4,0.5-0.9,0.5c-0.4,0-0.4-0.3-0.4-0.3v-5.1h-1.4v5.6C26.6,19.2,27,19.6,27.5,19.6z M26,27.2
		c0.2-0.2,0.4-0.3,0.7-0.3c0.6,0,0.7,0.8,0.7,0.8v3.6c0,0,0,0.8-0.7,0.8c-0.3,0-0.5-0.1-0.7-0.3V27.2z M31.8,26.9
		c-0.7,0-0.7,0.8-0.7,0.8v1h1.4v-1C32.5,27.6,32.5,26.9,31.8,26.9z M32.3,21C32.3,21,32.3,21,32.3,21c1.9,0,3.4,1.4,3.4,3.2
		c0.2,1.4,0.3,2.8,0.3,4.2c0,1.4-0.1,2.8-0.3,4.2c0,0,0,0.1,0,0.1c-0.1,1.8-1.6,3.2-3.4,3.2c0,0-4.1,0.2-8.3,0.2s-8.3-0.2-8.3-0.2
		c0,0-0.1,0-0.1,0c-1.8,0-3.3-1.5-3.3-3.3c-0.2-1.4-0.3-2.8-0.3-4.2c0-1.4,0.1-2.8,0.3-4.1c0,0,0-0.1,0-0.1c0.1-1.8,1.6-3.2,3.4-3.2
		c0,0,4.1-0.2,8.3-0.2S32.3,21,32.3,21L32.3,21z M17.5,24.6h1.6l0-1.4h-5v1.4h1.6v8.5h1.6V24.6z M22,33.1h1.4l0-7.4h-1.4v6
		c0,0-0.5,0.5-0.9,0.5c-0.4,0-0.4-0.3-0.4-0.3v-6.2h-1.4v6.7c0.1,0.5,0.5,0.9,1,0.9c0.6-0.1,1.2-0.3,1.7-0.8V33.1z M26,32.5
		c0.3,0.5,0.9,0.7,1.5,0.7c1.2,0,1.2-1.7,1.2-1.7l0-4.1c0-1-0.3-1.7-1.2-1.7c-0.6,0-1.1,0.3-1.5,0.7v-3.2h-1.5v9.9H26V32.5z
		 M31.2,29.7H34h0v-2.2c0-0.1,0-0.2,0-0.3c-0.1-1-1-1.6-2-1.5c-0.1,0-0.2,0-0.2,0c-1,0-1.9,0.8-2,1.8v4.2c0.3,1,1.2,1.6,2.2,1.5
		c1,0.1,1.8-0.6,2-1.5v-1.2h-1.5v0.8c0,0,0,0.8-0.7,0.8s-0.7-0.8-0.7-0.8V29.7z"/>
</mask>
<path class="st2" d="M17.7,19.5l-1,0l0,1h1V19.5z M19.3,19.5v1h1v-1H19.3z M17.7,16l1,0l0-0.2l-0.1-0.2L17.7,16z M15.8,11v-1h-1.5
	l0.5,1.4L15.8,11z M17.5,11l0.9-0.3L18.2,10h-0.7V11z M18.5,14.3l-0.9,0.3l0.9,2.8l0.9-2.8L18.5,14.3z M19.6,11v-1h-0.7l-0.2,0.7
	L19.6,11z M21.1,11l0.9,0.3l0.5-1.3h-1.4V11z M19.3,16l-0.9-0.3l-0.1,0.2V16H19.3z M23,19.6l0,1h0V19.6z M21.3,17.8h-1v0l0,0
	L21.3,17.8z M21.3,14.9l-1,0v0H21.3z M23.5,13.1l0-1h0V13.1z M25.3,14.9h1v0l0,0L25.3,14.9z M25.3,17.8l1,0v0H25.3z M22.6,14.7l-1,0
	v0H22.6z M23.3,14.1l0-1l0,0L23.3,14.1z M22.6,17.9h-1v0L22.6,17.9z M23.3,18.6l0,1l0,0L23.3,18.6z M23.9,17.9l1,0v0H23.9z
	 M23.9,14.7h1v0L23.9,14.7z M29.2,18.8h1v-2.4l-1.7,1.7L29.2,18.8z M27.5,19.6l0,1h0l0,0L27.5,19.6z M29.2,19.5h-1v1h1V19.5z
	 M30.5,19.5v1h1v-1H30.5z M30.5,13.1h1v-1h-1V13.1z M29.2,13.1v-1h-1v1H29.2z M29.2,18l0.8,0.6l0.2-0.3V18H29.2z M27.9,18.2h-1v0
	l0,0L27.9,18.2z M27.9,13.1h1v-1h-1V13.1z M26.5,13.1v-1h-1v1H26.5z M26.5,18.7h-1v0.1l0,0.1L26.5,18.7z M26.7,26.9v-1h0l0,0
	L26.7,26.9z M26,27.2l-0.8-0.6L25,26.8v0.4H26z M26.7,32v-1h0l0,0L26.7,32z M26,31.7h-1v0.4l0.3,0.3L26,31.7z M31.2,28.6h-1v1h1
	V28.6z M32.5,28.6v1h1v-1H32.5z M32.5,27.6v-1h-1v1H32.5z M32.3,21l0,1h0L32.3,21z M32.3,21v1h0l0,0L32.3,21z M35.7,24.2l-1,0l0,0.1
	l0,0.1L35.7,24.2z M36,28.4l1,0l0,0l0,0L36,28.4z M35.7,32.6l-1-0.1l0,0.1l0,0.1L35.7,32.6z M35.7,32.7l1,0v0L35.7,32.7z M32.3,35.8
	l0-1l0,0l0,0L32.3,35.8z M15.7,35.8l0.1-1l0,0l0,0L15.7,35.8z M15.6,35.8l0,1h0V35.8z M12.3,32.6l1,0v-0.1l0-0.1L12.3,32.6z
	 M12,28.4l-1,0l0,0l0,0L12,28.4z M12.3,24.2l1,0.2l0-0.1l0-0.1L12.3,24.2z M12.3,24.1l-1,0v0L12.3,24.1z M15.7,20.9l0,1l0,0l0,0
	L15.7,20.9z M32.3,21l-0.1,1l0,0h0V21z M19.1,24.6v1h1l0-1L19.1,24.6z M17.5,24.6v-1h-1v1H17.5z M19.1,23.2l1,0l0-1h-1V23.2z
	 M14.2,23.2v-1h-1v1H14.2z M14.2,24.6h-1v1h1V24.6z M15.8,24.6h1v-1h-1V24.6z M15.8,33.1h-1v1h1V33.1z M17.5,33.1v1h1v-1H17.5z
	 M23.4,33.1v1h1l0-1L23.4,33.1z M22,33.1h-1v1h1V33.1z M23.4,25.7l1,0l0-1h-1V25.7z M22.1,25.7v-1h-1v1H22.1z M22.1,31.7l0.8,0.7
	l0.2-0.3v-0.4H22.1z M20.7,31.9h-1l0,0H20.7z M20.7,25.7h1v-1h-1V25.7z M19.3,25.7v-1h-1v1H19.3z M19.3,32.3h-1v0.1l0,0.1L19.3,32.3
	z M20.3,33.2l0,1l0,0l0,0L20.3,33.2z M22,32.5h1v-2.3l-1.7,1.6L22,32.5z M27.4,33.2v-1l0,0L27.4,33.2z M26,32.5l0.8-0.6L25,29.5v3
	H26z M28.7,31.5h1v0L28.7,31.5z M28.7,27.4h-1v0L28.7,27.4z M27.4,25.7v-1h0l0,0L27.4,25.7z M26,26.4h-1v2.6l1.7-2L26,26.4z
	 M26,23.2h1v-1h-1V23.2z M24.5,23.2v-1h-1v1H24.5z M24.5,33.1h-1v1h1V33.1z M26,33.1v1h1v-1H26z M31.2,29.7v-1h-1v1H31.2z M34,29.7
	v1h1v-1H34z M34,27.5l-1,0l0,0v0H34z M34,27.2l-1,0.1l0,0L34,27.2z M31.9,25.7l-0.1,1l0.1,0l0.1,0L31.9,25.7z M31.7,25.7l0-1h0
	L31.7,25.7z M29.8,27.5l-1,0l0,0v0H29.8z M29.8,31.7h-1v0.1l0,0.1L29.8,31.7z M31.9,33.2l0.1-1l-0.1,0l-0.1,0L31.9,33.2z M34,31.7
	l1,0.2l0-0.1v-0.1H34z M34,30.5h1v-1h-1V30.5z M32.5,30.5v-1h-1v1H32.5z M17.7,20.5h1.6v-2h-1.6V20.5z M16.7,16l0,3.5l2,0l0-3.5
	L16.7,16z M14.9,11.4l1.9,4.9l1.9-0.7l-1.9-4.9L14.9,11.4z M17.5,10h-1.6v2h1.6V10z M19.5,14l-1.1-3.3l-1.9,0.6l1.1,3.3L19.5,14z
	 M18.7,10.7L17.6,14l1.9,0.6l1.1-3.3L18.7,10.7z M21.1,10h-1.5v2h1.5V10z M20.2,16.3l1.8-4.9l-1.9-0.7l-1.8,4.9L20.2,16.3z
	 M20.3,19.5V16h-2v3.5H20.3z M23,20.6h0.4v-2H23V20.6z M20.3,17.8c0,1.5,1.3,2.7,2.8,2.7l0-2c-0.4,0-0.8-0.4-0.8-0.8L20.3,17.8z
	 M20.3,14.9v2.9h2v-2.9H20.3z M23.1,12.1c-1.5,0-2.8,1.2-2.8,2.8l2,0c0-0.4,0.4-0.8,0.8-0.8V12.1z M23.5,12.1h-0.4v2h0.4V12.1z
	 M26.3,14.8c0-1.5-1.3-2.7-2.8-2.7l0,2c0.4,0,0.8,0.4,0.8,0.8L26.3,14.8z M26.3,17.8v-2.9h-2v2.9H26.3z M23.5,20.6
	c1.5,0,2.8-1.2,2.8-2.8l-2,0c0,0.4-0.4,0.8-0.8,0.8V20.6z M23.6,14.7c0,0.2-0.1,0.3-0.3,0.3l0-2c-0.9,0-1.7,0.7-1.7,1.7L23.6,14.7z
	 M23.6,17.9v-3.1h-2v3.1H23.6z M23.3,17.6c0.2,0,0.3,0.1,0.3,0.3l-2,0c0,0.9,0.8,1.7,1.7,1.7L23.3,17.6z M22.9,17.9
	c0-0.2,0.1-0.3,0.3-0.3l0,2c0.9,0,1.7-0.7,1.7-1.7L22.9,17.9z M22.9,14.7v3.1h2v-3.1H22.9z M23.3,15.1c-0.2,0-0.3-0.1-0.3-0.3l2,0
	c0-0.9-0.8-1.7-1.7-1.7L23.3,15.1z M28.5,18.1c-0.3,0.3-0.7,0.5-1.1,0.5l0.2,2c0.9-0.1,1.7-0.5,2.3-1.1L28.5,18.1z M30.2,19.5v-0.7
	h-2v0.7H30.2z M30.5,18.5h-1.3v2h1.3V18.5z M29.5,13.1v6.4h2v-6.4H29.5z M29.2,14.1h1.3v-2h-1.3V14.1z M30.2,18v-4.9h-2V18H30.2z
	 M28.4,19.5c0.6,0,1-0.3,1.2-0.5c0.1-0.1,0.2-0.2,0.3-0.3c0,0,0.1-0.1,0.1-0.1c0,0,0,0,0,0c0,0,0,0,0,0c0,0,0,0,0,0c0,0,0,0,0,0
	c0,0,0,0,0,0c0,0,0,0,0,0c0,0,0,0-0.8-0.6c-0.8-0.6-0.8-0.6-0.8-0.6c0,0,0,0,0,0c0,0,0,0,0,0c0,0,0,0,0,0c0,0,0,0,0,0c0,0,0,0,0,0
	c0,0,0,0,0,0c0,0,0,0,0,0c0,0-0.1,0.1-0.1,0.1c0,0-0.1,0.1-0.1,0.1c0,0,0,0,0.1,0V19.5z M27.9,18.2c-1,0.1-1,0.1-1,0.1c0,0,0,0,0,0
	c0,0,0,0,0,0c0,0,0,0,0,0c0,0,0,0,0,0c0,0,0,0,0,0c0,0,0,0,0,0.1c0,0,0,0.1,0,0.2c0,0.1,0.1,0.3,0.2,0.4c0.3,0.4,0.7,0.6,1.2,0.6v-2
	c0,0,0.1,0,0.2,0.1c0.1,0.1,0.2,0.1,0.2,0.2c0.1,0.1,0.1,0.1,0.1,0.2c0,0,0,0.1,0,0.1c0,0,0,0,0,0c0,0,0,0,0,0c0,0,0,0,0,0
	c0,0,0,0,0,0c0,0,0,0,0,0c0,0,0,0,0,0C28.9,18.1,28.9,18.1,27.9,18.2z M26.9,13.1v5.1h2v-5.1H26.9z M26.5,14.1h1.4v-2h-1.4V14.1z
	 M27.5,18.7v-5.6h-2v5.6H27.5z M27.5,18.6C27.5,18.6,27.5,18.6,27.5,18.6l-2,0.3c0.1,1,1,1.7,2,1.7L27.5,18.6z M26.6,25.9
	c-0.5,0-1.1,0.3-1.4,0.7l1.5,1.3c0,0,0,0,0,0L26.6,25.9z M28.3,27.6c0-0.1,0-0.2,0-0.2c0,0,0,0,0,0c0,0,0,0,0,0c0,0,0,0,0,0
	c0,0,0,0,0,0c0,0,0,0,0,0c0,0,0,0,0-0.1c0,0,0-0.1,0-0.1c0-0.1-0.1-0.3-0.2-0.5c-0.2-0.3-0.6-0.9-1.4-0.9v2c0,0-0.1,0-0.2,0
	c-0.1,0-0.1,0-0.1-0.1c-0.1,0-0.1-0.1-0.1-0.1c0,0,0,0,0,0.1c0,0,0,0,0,0c0,0,0,0,0,0c0,0,0,0,0,0c0,0,0,0,0,0c0,0,0,0,0,0
	c0,0,0,0,0,0c0,0,0,0,0,0c0,0,0-0.1,0-0.2H28.3z M28.3,31.3v-3.6h-2v3.6H28.3z M26.7,33c0.4,0,0.7-0.1,1-0.3
	c0.3-0.2,0.4-0.4,0.5-0.7c0.1-0.2,0.1-0.4,0.2-0.5c0-0.1,0-0.1,0-0.2c0,0,0,0,0-0.1c0,0,0,0,0,0c0,0,0,0,0,0c0,0,0,0,0,0
	c0,0,0,0,0,0c0,0,0,0,0,0c0,0,0,0-1,0s-1,0-1,0c0,0,0,0,0,0c0,0,0,0,0,0c0,0,0,0,0,0c0,0,0,0,0,0c0,0,0,0,0,0c0,0,0,0,0,0
	c0,0,0,0,0,0c0,0,0,0,0,0c0,0,0-0.1,0.1-0.1c0.1-0.1,0.2-0.1,0.2-0.1V33z M25.2,32.4c0.4,0.4,0.9,0.6,1.4,0.6l0-2c0,0,0.1,0,0.1,0
	L25.2,32.4z M25,27.2v4.5h2v-4.5H25z M31.2,27.6c1,0,1,0,1,0c0,0,0,0,0,0c0,0,0,0,0,0c0,0,0,0,0,0c0,0,0,0,0,0c0,0,0,0,0,0
	c0,0,0,0,0,0c0,0,0,0,0,0c0,0,0,0,0,0c0,0,0,0.1-0.1,0.1c-0.1,0.1-0.2,0.1-0.2,0.1v-2c-0.4,0-0.7,0.1-1,0.3
	c-0.3,0.2-0.4,0.4-0.5,0.7c-0.1,0.2-0.1,0.4-0.2,0.5c0,0.1,0,0.1,0,0.2c0,0,0,0,0,0.1c0,0,0,0,0,0c0,0,0,0,0,0c0,0,0,0,0,0
	c0,0,0,0,0,0c0,0,0,0,0,0C30.2,27.6,30.2,27.6,31.2,27.6z M32.2,28.6v-1h-2v1H32.2z M32.5,27.6h-1.4v2h1.4V27.6z M31.5,27.6v1h2v-1
	H31.5z M31.8,27.9c0,0-0.1,0-0.2-0.1c-0.1-0.1-0.1-0.1-0.1-0.1c0,0,0,0,0,0c0,0,0,0,0,0c0,0,0,0,0,0c0,0,0,0,0,0c0,0,0,0,0,0
	c0,0,0,0,0,0c0,0,0,0,0,0c0,0,0,0,0,0c0,0,0.3-0.7,1-1v2c0.7-0.3,1-1,1-1c0,0,0,0,0,0c0,0,0,0,0,0c0,0,0,0,0,0c0,0,0,0,0,0
	c0,0,0,0,0,0c0,0,0,0,0-0.1c0,0,0-0.1,0-0.2c0-0.1-0.1-0.3-0.2-0.5c-0.1-0.2-0.2-0.5-0.5-0.7c-0.3-0.2-0.6-0.3-1-0.3V27.9z M32.3,20
	C32.3,20,32.3,20,32.3,20l0,2c0,0,0,0,0,0L32.3,20z M36.7,24.2c0-2.4-2-4.2-4.3-4.2l0,2c1.3,0,2.3,1,2.3,2.2L36.7,24.2z M37,28.4
	c0-1.4-0.1-2.9-0.3-4.3l-2,0.3c0.2,1.3,0.3,2.7,0.3,4L37,28.4z M36.7,32.7c0.2-1.4,0.3-2.9,0.3-4.3l-2,0c0,1.4-0.1,2.7-0.3,4.1
	L36.7,32.7z M36.7,32.7c0,0,0-0.1,0-0.1l-2,0c0,0,0,0,0,0.1L36.7,32.7z M32.2,36.8c2.4,0.1,4.3-1.8,4.4-4.1l-2-0.1
	c0,1.3-1.1,2.2-2.3,2.2L32.2,36.8z M24,37c2.1,0,4.2-0.1,5.8-0.1c0.8,0,1.4-0.1,1.9-0.1c0.2,0,0.4,0,0.5,0c0.1,0,0.1,0,0.1,0
	c0,0,0,0,0,0c0,0,0,0,0,0c0,0,0,0,0,0c0,0,0,0,0,0c0,0,0,0,0,0c0,0,0,0-0.1-1c-0.1-1-0.1-1-0.1-1h0c0,0,0,0,0,0c0,0,0,0,0,0
	c0,0,0,0,0,0c0,0,0,0,0,0c0,0-0.1,0-0.1,0c-0.1,0-0.3,0-0.5,0c-0.4,0-1.1,0-1.8,0.1C28.1,35,26.1,35,24,35V37z M15.7,35.8
	c-0.1,1-0.1,1-0.1,1c0,0,0,0,0,0c0,0,0,0,0,0c0,0,0,0,0,0c0,0,0,0,0,0c0,0,0,0,0,0c0,0,0.1,0,0.1,0c0.1,0,0.3,0,0.5,0
	c0.5,0,1.1,0,1.9,0.1C19.8,37,21.9,37,24,37v-2c-2.1,0-4.1-0.1-5.7-0.1c-0.8,0-1.4-0.1-1.8-0.1c-0.2,0-0.4,0-0.5,0
	c-0.1,0-0.1,0-0.1,0c0,0,0,0,0,0c0,0,0,0,0,0c0,0,0,0,0,0c0,0,0,0,0,0h0C15.8,34.8,15.8,34.8,15.7,35.8z M15.6,36.8c0,0,0.1,0,0.1,0
	l-0.1-2c0,0-0.1,0-0.1,0V36.8z M11.3,32.6c0,2.4,1.9,4.3,4.3,4.3l0-2c-1.3,0-2.3-1-2.3-2.3L11.3,32.6z M11,28.4
	c0,1.4,0.1,2.9,0.3,4.3l2-0.3c-0.2-1.3-0.3-2.7-0.3-4.1L11,28.4z M11.3,24.1c-0.2,1.4-0.3,2.8-0.3,4.3l2,0c0-1.3,0.1-2.7,0.3-4
	L11.3,24.1z M11.3,24.1c0,0,0,0.1,0,0.1l2,0c0,0,0,0,0-0.1L11.3,24.1z M15.8,19.9c-2.4-0.1-4.3,1.8-4.4,4.1l2,0.1
	c0-1.3,1.1-2.2,2.3-2.2L15.8,19.9z M24,19.7c-2.1,0-4.2,0.1-5.7,0.1c-0.8,0-1.4,0.1-1.9,0.1c-0.2,0-0.4,0-0.5,0c-0.1,0-0.1,0-0.1,0
	c0,0,0,0,0,0c0,0,0,0,0,0c0,0,0,0,0,0c0,0,0,0,0,0c0,0,0,0,0,0c0,0,0,0,0.1,1s0.1,1,0.1,1s0,0,0,0s0,0,0,0c0,0,0,0,0,0c0,0,0,0,0,0
	c0,0,0,0,0,0c0,0,0.1,0,0.1,0c0.1,0,0.3,0,0.5,0c0.4,0,1.1,0,1.9-0.1c1.5-0.1,3.6-0.1,5.7-0.1V19.7z M32.3,21c0.1-1,0.1-1,0.1-1
	c0,0,0,0,0,0c0,0,0,0,0,0c0,0,0,0,0,0c0,0,0,0,0,0c0,0,0,0,0,0c0,0-0.1,0-0.1,0c-0.1,0-0.3,0-0.5,0c-0.5,0-1.1-0.1-1.9-0.1
	c-1.6-0.1-3.6-0.1-5.7-0.1v2c2.1,0,4.1,0.1,5.6,0.1c0.8,0,1.4,0.1,1.9,0.1c0.2,0,0.4,0,0.5,0c0.1,0,0.1,0,0.1,0c0,0,0,0,0,0
	c0,0,0,0,0,0c0,0,0,0,0,0c0,0,0,0,0,0l0,0C32.2,22,32.2,22,32.3,21z M32.3,20L32.3,20l0,2h0V20z M19.1,23.6h-1.6v2h1.6V23.6z
	 M18.1,23.2l0,1.4l2,0l0-1.4L18.1,23.2z M14.2,24.2h5v-2h-5V24.2z M15.2,24.6v-1.4h-2v1.4H15.2z M15.8,23.6h-1.6v2h1.6V23.6z
	 M16.8,33.1v-8.5h-2v8.5H16.8z M17.5,32.1h-1.6v2h1.6V32.1z M16.5,24.6v8.5h2v-8.5H16.5z M23.4,32.1H22v2h1.4V32.1z M22.4,25.7
	l0,7.4l2,0l0-7.4L22.4,25.7z M22.1,26.7h1.4v-2h-1.4V26.7z M23.1,31.7v-6h-2v6H23.1z M21.2,33.2c0.6,0,1-0.3,1.2-0.5
	c0.1-0.1,0.2-0.2,0.3-0.3c0,0,0.1-0.1,0.1-0.1c0,0,0,0,0,0c0,0,0,0,0,0c0,0,0,0,0,0c0,0,0,0,0,0c0,0,0,0,0,0c0,0,0,0,0,0
	c0,0,0,0-0.8-0.7s-0.8-0.7-0.8-0.7c0,0,0,0,0,0c0,0,0,0,0,0c0,0,0,0,0,0c0,0,0,0,0,0c0,0,0,0,0,0c0,0,0,0,0,0c0,0,0,0,0,0
	c0,0-0.1,0.1-0.1,0.1c0,0-0.1,0.1-0.1,0.1c0,0,0,0,0.1,0V33.2z M20.7,31.9c-1,0-1,0-1,0c0,0,0,0,0,0c0,0,0,0,0,0c0,0,0,0,0,0
	c0,0,0,0,0,0c0,0,0,0,0,0c0,0,0,0,0,0.1c0,0,0,0.1,0,0.2c0,0.1,0.1,0.3,0.2,0.5c0.3,0.4,0.7,0.6,1.2,0.6v-2c0,0,0.1,0,0.2,0.1
	c0.1,0.1,0.2,0.1,0.3,0.2c0.1,0.1,0.1,0.2,0.1,0.2c0,0,0,0.1,0,0.1c0,0,0,0,0,0c0,0,0,0,0,0c0,0,0,0,0,0c0,0,0,0,0,0c0,0,0,0,0,0
	c0,0,0,0,0,0C21.7,31.9,21.7,31.9,20.7,31.9z M19.7,25.7v6.2h2v-6.2H19.7z M19.3,26.7h1.4v-2h-1.4V26.7z M20.3,32.3v-6.7h-2v6.7
	H20.3z M20.3,32.2C20.3,32.2,20.3,32.2,20.3,32.2C20.3,32.2,20.3,32.2,20.3,32.2C20.3,32.2,20.3,32.2,20.3,32.2
	C20.3,32.2,20.3,32.2,20.3,32.2l-2,0.3c0.1,1,1,1.7,2,1.7L20.3,32.2z M21.3,31.7c-0.3,0.3-0.7,0.5-1.1,0.5l0.2,2
	c0.9-0.1,1.7-0.4,2.3-1L21.3,31.7z M23,33.1v-0.6h-2v0.6H23z M27.4,32.2c-0.3,0-0.5-0.1-0.7-0.3l-1.6,1.2c0.5,0.7,1.4,1.1,2.3,1.1
	L27.4,32.2z M28.7,31.5c-1,0-1,0-1,0c0,0,0,0,0,0c0,0,0,0,0,0c0,0,0,0,0,0c0,0,0,0,0,0c0,0,0,0,0,0c0,0,0,0,0,0c0,0,0,0.1,0,0.1
	c0,0.1,0,0.3-0.1,0.4c0,0.1-0.1,0.2-0.1,0.2c0,0,0,0,0,0c0,0,0,0,0,0v2c0.6,0,1-0.2,1.4-0.5c0.3-0.3,0.5-0.7,0.6-1
	c0.1-0.3,0.2-0.6,0.2-0.8c0-0.1,0-0.2,0-0.3c0,0,0-0.1,0-0.1c0,0,0,0,0,0c0,0,0,0,0,0c0,0,0,0,0,0c0,0,0,0,0,0c0,0,0,0,0,0
	C29.7,31.5,29.7,31.5,28.7,31.5z M27.7,27.4l0,4.1l2,0l0-4.1L27.7,27.4z M27.4,26.7c0.1,0,0.1,0,0.1,0c0,0,0,0,0,0
	c0.1,0.1,0.1,0.3,0.1,0.7h2c0-0.6-0.1-1.2-0.4-1.8c-0.4-0.6-1-1-1.8-1V26.7z M26.7,27.1c0.2-0.2,0.5-0.4,0.8-0.4l-0.2-2
	c-0.8,0.1-1.6,0.4-2.1,1.1L26.7,27.1z M25,23.2v3.2h2v-3.2H25z M24.5,24.2H26v-2h-1.5V24.2z M25.5,33.1v-9.9h-2v9.9H25.5z M26,32.1
	h-1.5v2H26V32.1z M25,32.5v0.6h2v-0.6H25z M34,28.7h-2.8v2H34V28.7z M34,28.7L34,28.7l0,2h0V28.7z M33,27.5v2.2h2v-2.2H33z M33,27.3
	c0,0,0,0.1,0,0.1l2,0.1c0-0.2,0-0.3,0-0.5L33,27.3z M32.1,26.7c0.4-0.1,0.8,0.2,0.9,0.7l2-0.3c-0.2-1.5-1.6-2.6-3.1-2.4L32.1,26.7z
	 M31.7,26.7c0,0,0.1,0,0.1,0l0.3-2c-0.1,0-0.2,0-0.4,0L31.7,26.7z M30.8,27.5c0-0.5,0.4-0.9,0.9-0.9l0.1-2c-1.6,0-2.9,1.2-3,2.8
	L30.8,27.5z M30.8,31.7v-4.2h-2v4.2H30.8z M31.9,32.2c-0.5,0-1-0.3-1.1-0.8L28.8,32c0.4,1.4,1.8,2.4,3.2,2.2L31.9,32.2z M33,31.5
	c-0.1,0.4-0.5,0.8-1,0.7l-0.2,2c1.5,0.1,2.8-0.9,3.1-2.3L33,31.5z M33,30.5v1.2h2v-1.2H33z M32.5,31.5H34v-2h-1.5V31.5z M33.5,31.3
	v-0.8h-2v0.8H33.5z M31.8,33.1c0.4,0,0.7-0.1,1-0.3c0.3-0.2,0.4-0.4,0.5-0.7c0.1-0.2,0.1-0.4,0.2-0.5c0-0.1,0-0.1,0-0.2
	c0,0,0,0,0-0.1c0,0,0,0,0,0c0,0,0,0,0,0c0,0,0,0,0,0c0,0,0,0,0,0c0,0,0,0,0,0c0,0,0,0-1,0c-1,0-1,0-1,0c0,0,0,0,0,0c0,0,0,0,0,0
	c0,0,0,0,0,0c0,0,0,0,0,0c0,0,0,0,0,0c0,0,0,0,0,0c0,0,0,0,0,0c0,0,0,0,0,0c0,0,0-0.1,0.1-0.1c0.1-0.1,0.2-0.1,0.2-0.1V33.1z
	 M31.2,31.3c-1,0-1,0-1,0c0,0,0,0,0,0c0,0,0,0,0,0c0,0,0,0,0,0c0,0,0,0,0,0c0,0,0,0,0,0c0,0,0,0,0,0.1c0,0,0,0.1,0,0.2
	c0,0.1,0.1,0.3,0.2,0.5c0.1,0.2,0.2,0.5,0.5,0.7c0.3,0.2,0.6,0.3,1,0.3v-2c0,0,0.1,0,0.2,0.1c0.1,0.1,0.1,0.1,0.1,0.1c0,0,0,0,0,0
	c0,0,0,0,0,0c0,0,0,0,0,0c0,0,0,0,0,0c0,0,0,0,0,0c0,0,0,0,0,0c0,0,0,0,0,0c0,0,0,0,0,0C32.2,31.3,32.2,31.3,31.2,31.3z M30.2,29.7
	v1.6h2v-1.6H30.2z"/>
</svg>
