<svg width="453" height="56" viewBox="0 0 453 56" fill="none" xmlns="http://www.w3.org/2000/svg">
<path d="M75.368 11.824V13.6H96.704V11.824H75.368ZM75.512 30.736V32.68H96.536V30.736H75.512ZM77.288 14.392V16.048H94.736V14.392H77.288ZM78.128 23.584V25.12H93.608V23.584H78.128ZM77.864 28.264V29.968H94.424V28.264H77.864ZM75.608 21.088V24.712H78.176V22.888H93.704V24.712H96.416V21.088H75.608ZM84.44 10.6V15.448H87.344V10.6H84.44ZM84.44 26.776V31.696H87.344V26.776H84.44ZM80.816 18.16H91.16V19H80.816V18.16ZM78.152 16.744V20.392H93.992V16.744H78.152ZM81.992 23.944C81.608 24.688 80.912 25.696 80.312 26.464L82.688 26.944C83.336 26.32 84.248 25.408 85.016 24.376L81.992 23.944ZM77.168 25.912L77.288 27.616C81.2 27.592 86.96 27.52 92.432 27.424L92.528 25.912C86.912 25.96 80.96 25.936 77.168 25.912ZM88.112 25.288C89.888 26.08 92.048 27.448 93.176 28.408L94.88 27.016C93.704 26.08 91.544 24.808 89.768 24.04L88.112 25.288ZM110.216 11.032V12.4H114.416V11.032H110.216ZM110.048 15.112V16.432H114.632V15.112H110.048ZM110.048 16.984V18.304H114.632V16.984H110.048ZM106.688 27.976V29.704H118.544V27.976H106.688ZM109.352 13V14.512H115.112V13H109.352ZM111.68 20.248H112.88V21.28H111.68V20.248ZM110.024 18.952V22.576H114.632V18.952H110.024ZM106.976 25.576V27.184H119.144V23.2H105.44V24.808H116.48V25.576H106.976ZM106.016 17.44V22.816H107.84V17.44H106.016ZM103.616 16.528L103.808 18.28C105.368 18.184 107.144 18.064 108.968 17.92L108.992 16.312C106.976 16.408 105.056 16.48 103.616 16.528ZM106.184 25.576C105.872 27.04 105.416 28.84 104.984 30.088L107.576 30.424C107.984 29.128 108.44 27.232 108.824 25.576H106.184ZM117.632 27.976L117.608 28.264C117.344 29.848 117.008 30.688 116.624 30.952C116.36 31.12 116.072 31.144 115.592 31.144C114.968 31.144 113.384 31.12 111.944 31C112.352 31.576 112.664 32.464 112.712 33.088C114.224 33.16 115.688 33.16 116.48 33.136C117.44 33.112 118.112 32.992 118.712 32.512C119.36 31.984 119.792 30.928 120.152 28.984C120.272 28.648 120.32 27.976 120.32 27.976H117.632ZM107.912 19.096C108.152 19.936 108.392 21.016 108.488 21.712L109.928 21.328C109.832 20.656 109.568 19.576 109.304 18.76L107.912 19.096ZM107.936 15.736C108.296 16.648 108.608 17.824 108.656 18.592L110 18.088C109.904 17.32 109.568 16.168 109.16 15.28L107.936 15.736ZM103.88 13.936C104.768 14.584 105.776 15.568 106.256 16.216L107.264 14.632C106.784 14.008 105.752 13.144 104.792 12.52L103.88 13.936ZM106.232 10.528C105.896 11.44 105.2 12.808 104.672 13.648L105.92 14.32C106.52 13.576 107.192 12.424 107.888 11.344L106.232 10.528ZM107.888 12.592C107.12 13.936 105.752 15.832 104.672 16.96L105.848 17.752C106.952 16.672 108.32 14.968 109.472 13.504L107.888 12.592ZM104.456 18.688C104.216 19.768 103.856 20.92 103.328 21.784C103.736 21.976 104.504 22.312 104.84 22.528C105.368 21.64 105.848 20.296 106.112 19.072L104.456 18.688ZM117.032 17.44V22.816H118.88V17.44H117.032ZM114.8 16.528L114.968 18.28C116.528 18.184 118.376 18.088 120.272 17.968L120.296 16.36C118.208 16.456 116.288 16.504 114.8 16.528ZM118.952 19.12C119.36 20.08 119.792 21.4 119.936 22.24L121.448 21.736C121.256 20.896 120.824 19.648 120.368 18.664L118.952 19.12ZM118.904 15.64C119.36 16.552 119.792 17.776 119.936 18.592L121.376 17.944C121.208 17.152 120.752 15.952 120.272 15.064L118.904 15.64ZM114.728 13.936C115.52 14.56 116.384 15.472 116.816 16.12L117.896 14.584C117.464 13.984 116.552 13.168 115.712 12.568L114.728 13.936ZM117.152 10.576C116.768 11.512 116.048 12.88 115.496 13.696L116.744 14.392C117.344 13.648 118.088 12.472 118.784 11.416L117.152 10.576ZM118.928 12.496C118.136 13.84 116.672 15.736 115.592 16.864L116.744 17.656C117.896 16.576 119.336 14.872 120.512 13.408L118.928 12.496ZM115.472 18.688C115.256 19.72 114.944 20.824 114.44 21.688C114.872 21.88 115.592 22.264 115.928 22.504C116.408 21.64 116.864 20.296 117.128 19.072L115.472 18.688ZM99.056 12.856C100.256 13.6 101.768 14.704 102.44 15.52L104.192 13.36C103.424 12.568 101.888 11.56 100.688 10.936L99.056 12.856ZM98.552 19.24C99.752 19.888 101.336 20.968 102.032 21.688L103.688 19.504C102.92 18.76 101.336 17.824 100.136 17.248L98.552 19.24ZM99.08 31.432L101.648 32.896C102.608 30.544 103.592 27.736 104.384 25.168L102.104 23.704C101.192 26.512 99.968 29.56 99.08 31.432ZM123.272 14.032V16.792H144.776V14.032H123.272ZM133.784 17.68V33.16H136.712V17.68H133.784ZM127.112 20.44V31.024H129.992V23.152H141.944V20.44H127.112ZM140.696 20.44V27.88C140.696 28.168 140.576 28.264 140.192 28.288C139.856 28.288 138.56 28.288 137.456 28.24C137.816 28.96 138.248 30.064 138.368 30.856C140.168 30.856 141.464 30.832 142.4 30.424C143.336 29.992 143.624 29.248 143.624 27.928V20.44H140.696ZM130.976 10.576C129.704 15.616 126.92 21.184 122.408 24.16C122.936 24.808 123.68 25.984 124.064 26.704C129.2 23.128 132.2 17.152 133.952 11.248L130.976 10.576ZM156.464 20.416V23.896H159.392V20.416H156.464ZM156.344 23.536C154.376 25.36 150.464 26.752 146.576 27.352C147.128 27.88 147.848 28.864 148.208 29.488C152.288 28.744 156.296 26.968 158.696 24.568L156.344 23.536ZM160.256 23.632L157.616 24.16C159.32 29.008 162.176 31.936 167.552 33.16C167.912 32.368 168.68 31.216 169.304 30.616C164.432 29.752 161.576 27.376 160.256 23.632ZM166.04 25.12C164.888 25.936 162.92 27.04 161.504 27.64L163.4 29.2C164.816 28.672 166.736 27.76 168.272 26.824L166.04 25.12ZM149.552 30.592L149.936 33.064C152.816 32.704 156.848 32.224 160.592 31.768L160.544 29.392C156.584 29.848 152.336 30.328 149.552 30.592ZM147.2 22.672V25.168H168.8V22.672H147.2ZM154.112 14.68L154.424 17.104L168.848 15.688L168.56 13.336L154.112 14.68ZM162.488 12.304C163.808 12.664 165.584 13.312 166.472 13.792L167.744 11.968C166.784 11.536 164.984 10.96 163.712 10.672L162.488 12.304ZM158.048 10.792C158.504 17.224 161.696 22.168 165.92 22.168C167.936 22.168 168.872 21.52 169.256 18.4C168.536 18.184 167.576 17.704 166.976 17.176C166.856 18.832 166.664 19.456 166.064 19.456C163.688 19.48 161.216 15.568 160.88 10.792H158.048ZM152.648 10.624C151.28 13.072 148.832 15.304 146.264 16.672C146.864 17.176 147.872 18.28 148.304 18.832C150.92 17.152 153.68 14.44 155.36 11.536L152.648 10.624ZM150.44 15.088V21.832H153.2V13.384L152.408 13.12L150.44 15.088ZM152.336 27.448V31.48H155.096V25.84L154.232 25.552L152.336 27.448ZM172.904 14.536V16.384H183.056V14.536H172.904ZM177.584 11.824V13.672H184.04V11.824H177.584ZM174.296 21.832V23.536H184.304V21.832H174.296ZM176.264 10.624V15.256H178.928V10.624H176.264ZM171.8 14.536V21.088C171.8 24.16 171.704 28.408 170.36 31.408C170.864 31.672 171.896 32.488 172.28 32.944C173.888 29.656 174.152 24.496 174.152 21.088V14.536H171.8ZM174.416 17.8L174.608 19.264L181.976 18.616L181.808 17.152L174.416 17.8ZM182.36 14.536V14.824C182.216 15.952 181.976 17.368 181.76 18.232L183.8 18.592C184.112 17.608 184.496 16.072 184.76 14.752L183.056 14.464L182.696 14.536H182.36ZM176.408 16.12V19.192C176.408 20.8 176.888 21.232 178.88 21.232C179.288 21.232 181.016 21.232 181.424 21.232C182.72 21.232 183.272 20.872 183.44 19.576C182.912 19.48 182.192 19.264 181.784 19.024C181.736 19.672 181.616 19.792 181.16 19.792C180.8 19.792 179.432 19.792 179.144 19.792C178.544 19.792 178.424 19.72 178.424 19.216V16.12H176.408ZM173.864 30.784L174.152 32.872C176.864 32.584 180.656 32.128 184.232 31.72L184.184 29.752C180.416 30.16 176.456 30.568 173.864 30.784ZM175.784 28.24C176.096 28.96 176.36 29.92 176.408 30.52L178.472 30.112C178.376 29.512 178.064 28.576 177.704 27.88L175.784 28.24ZM180.32 27.832C180.176 28.504 179.888 29.464 179.648 30.16L181.64 30.496C181.928 29.872 182.24 29.056 182.624 28.168L180.32 27.832ZM177.152 25.552H181.232V26.632H177.152V25.552ZM175.016 24.232V27.952H183.512V24.232H175.016ZM183.536 17.536L183.872 20.056L193.112 18.808L192.8 16.312L183.536 17.536ZM188.72 12.016C189.584 13.264 190.52 14.92 190.856 16L193.04 14.8C192.656 13.744 191.696 12.112 190.784 10.96L188.72 12.016ZM190.784 19.792C189.44 24.424 186.464 28.984 182.624 31.096C183.344 31.576 184.16 32.368 184.64 33.016C188.408 30.592 191.456 25.768 192.896 20.944L190.784 19.792ZM185.504 10.72C185.792 23.92 186.872 32.92 190.88 33.064C191.84 33.088 193.04 32.176 193.64 28.168C193.184 27.904 192.08 27.136 191.648 26.56C191.528 28.6 191.288 29.728 190.928 29.728C189.344 29.584 188.216 20.92 188.168 10.72H185.504ZM205.352 19.312H213.56V20.296H205.352V19.312ZM205.352 16.816H213.56V17.8H205.352V16.816ZM202.736 15.256V21.88H216.32V15.256H202.736ZM201.728 22.912L201.968 25.072C205.52 25 210.632 24.856 215.48 24.712L215.552 22.744C210.536 22.84 205.184 22.912 201.728 22.912ZM212.312 22C213.488 23.056 214.88 24.568 215.504 25.528L217.544 24.376C216.872 23.392 215.408 21.952 214.208 20.968L212.312 22ZM208.04 10.816V24.088L210.824 23.8V10.816H208.04ZM201.224 25.864V28.072H217.256V25.864H201.224ZM211.424 24.088V30.448C211.424 30.736 211.304 30.832 210.968 30.832C210.608 30.856 209.384 30.856 208.28 30.808C208.616 31.48 208.952 32.488 209.072 33.208C210.824 33.208 212.096 33.208 213.008 32.824C213.944 32.464 214.208 31.816 214.208 30.52V24.088H211.424ZM203.36 28.816C204.392 29.8 205.64 31.216 206.168 32.128L208.448 30.664C207.824 29.752 206.528 28.432 205.472 27.52L203.36 28.816ZM201.752 12.256V14.344H217.04V12.256H201.752ZM199.688 10.72C198.464 14.152 196.376 17.56 194.192 19.744C194.696 20.44 195.464 22.024 195.728 22.72C198.344 19.984 200.84 15.664 202.4 11.56L199.688 10.72ZM197.36 17.344V33.136H200.12V14.632L200.096 14.608L197.36 17.344ZM222.08 23.056V33.208H224.936V25.24H235.232V33.208H238.232V23.056H222.08ZM223.52 26.608V28.768H236V26.608H223.52ZM223.664 30.184V32.344H236.12V30.184H223.664ZM228.464 20.872C228.248 21.784 227.768 23.056 227.336 23.992L229.688 24.496C230.24 23.728 230.936 22.528 231.56 21.304L228.464 20.872ZM219.464 11.704V13.912H227.216V11.704H219.464ZM226.568 11.704V19.648C226.568 19.888 226.472 19.984 226.184 19.984C225.92 19.984 225.008 19.984 224.168 19.96C224.456 20.536 224.792 21.376 224.888 22C226.352 22 227.408 22 228.176 21.664C228.92 21.328 229.16 20.776 229.16 19.648V11.704H226.568ZM230.432 11.704V13.912H238.712V11.704H230.432ZM237.368 11.704V19.552C237.368 19.84 237.272 19.888 236.96 19.912C236.672 19.936 235.592 19.936 234.704 19.888C235.016 20.488 235.328 21.4 235.448 22.048C237.032 22.072 238.184 22.048 239 21.712C239.816 21.328 240.056 20.752 240.056 19.576V11.704H237.368ZM229.736 18.76L230.696 20.896C232.496 20.272 234.728 19.432 236.792 18.64L236.36 16.576C233.936 17.44 231.44 18.256 229.736 18.76ZM230.864 15.328C231.944 15.928 233.36 16.84 234.008 17.512L235.448 15.64C234.752 14.992 233.312 14.152 232.232 13.648L230.864 15.328ZM218.816 19.168L219.848 21.52C221.528 20.848 223.568 19.984 225.512 19.144L225.104 17.08C222.776 17.896 220.424 18.712 218.816 19.168ZM220.088 15.352C221.168 15.952 222.512 16.888 223.136 17.536L224.576 15.712C223.928 15.064 222.536 14.224 221.48 13.696L220.088 15.352ZM244.088 14.8V26.968H246.992V17.632H260.912V26.848H263.936V14.8H244.088ZM245.6 22.792V25.624H262.592V22.792H245.6ZM252.416 10.624V33.16H255.464V10.624H252.416ZM273.128 17.488V28.96C273.128 31.984 273.992 32.92 277.064 32.92C277.688 32.92 280.328 32.92 280.976 32.92C283.856 32.92 284.648 31.504 284.984 26.992C284.168 26.8 282.944 26.272 282.296 25.744C282.104 29.512 281.912 30.304 280.736 30.304C280.112 30.304 277.952 30.304 277.448 30.304C276.32 30.304 276.128 30.136 276.128 28.96V17.488H273.128ZM273.224 12.928C276.056 14.032 279.416 15.904 281.24 17.44L283.16 14.896C281.24 13.504 277.928 11.704 275.096 10.696L273.224 12.928ZM268.808 19.192C268.496 22.408 267.8 25.552 266.384 27.616L269.072 29.152C270.656 26.8 271.28 23.104 271.64 19.768L268.808 19.192ZM282.632 19.576C284.552 22.216 286.232 25.912 286.712 28.384L289.64 26.944C289.064 24.424 287.336 20.896 285.272 18.256L282.632 19.576ZM298.64 14.848L296.048 15.424C298.328 24.688 302.288 30.736 311.48 33.16C311.912 32.296 312.824 30.976 313.496 30.352C304.712 28.408 300.536 22.864 298.64 14.848ZM292.016 11.824V14.632H304.904V11.824H292.016ZM308.984 17.536V18.064C307.496 24.808 302.816 28.96 296.672 30.592C297.272 31.216 297.992 32.392 298.352 33.16C305.168 30.928 310.16 26.56 312.032 18.208L310.04 17.416L309.536 17.536H308.984ZM304.256 11.824V12.136C303.872 14.2 303.032 17.968 302.24 20.848L305.264 21.28C306.008 18.424 306.824 14.92 307.352 12.064L305.12 11.704L304.616 11.824H304.256ZM304.736 17.536L304.184 20.248H309.584V17.536H304.736ZM295.856 12.592V16.264C295.856 20.176 295.352 26.224 290.576 30.304C291.224 30.832 292.232 32.032 292.664 32.776C298.184 27.928 298.808 20.944 298.808 16.264V12.592H295.856ZM330.584 15.976C328.088 23.8 322.928 28.24 314.624 30.424C315.2 31.12 316.112 32.512 316.448 33.232C325.04 30.544 330.632 25.504 333.656 16.864L330.584 15.976ZM321.32 16.168L318.44 17.032C321.44 25.336 326.384 30.832 335.384 33.184C335.84 32.344 336.776 30.976 337.472 30.304C328.928 28.384 323.744 23.272 321.32 16.168ZM315.056 14.416V17.248H337.04V14.416H315.056ZM324.488 10.624V16.144H327.464V10.624H324.488ZM349.448 11.248V28.504C349.448 31.912 350.336 32.872 353.36 32.872C354.008 32.872 356.792 32.872 357.488 32.872C360.32 32.872 361.088 31.336 361.448 27.184C360.632 27.016 359.456 26.488 358.76 25.984C358.592 29.368 358.4 30.208 357.224 30.208C356.648 30.208 354.248 30.208 353.72 30.208C352.544 30.208 352.376 29.968 352.376 28.528V11.248H349.448ZM358.448 15.256C356.312 17.08 353.12 19.24 350.144 20.656C350.552 21.28 351.104 22.288 351.296 22.96C354.416 21.496 357.848 19.696 360.56 17.776L358.448 15.256ZM344.816 10.936C343.328 14.56 340.808 18.112 338.216 20.344C338.744 21.064 339.584 22.648 339.872 23.392C342.896 20.608 345.848 16.168 347.648 11.896L344.816 10.936ZM342.272 17.704V33.112H345.152V14.92L345.104 14.872L342.272 17.704ZM367.208 17.896V19.504H380.624V17.896H367.208ZM368.36 15.4V16.984H379.64V15.4H368.36ZM372.584 14.416V18.856H375.2V14.416H372.584ZM372.296 24.448V29.2H374.84V24.448H372.296ZM374.96 23.992L373.112 24.664C374.552 26.656 377.072 28.384 379.688 29.224C380 28.672 380.672 27.832 381.152 27.4C378.68 26.824 376.184 25.504 374.96 23.992ZM373.808 22.984C372.296 24.688 369.416 26.08 366.656 26.896C367.112 27.304 367.904 28.24 368.216 28.696C371.024 27.664 374.144 25.888 375.992 23.776L373.808 22.984ZM379.064 23.656C378.344 24.304 377.072 25.264 376.112 25.816L377.552 26.8C378.512 26.296 379.736 25.576 380.768 24.76L379.064 23.656ZM370.832 21.688H377.048V22.912H370.832V21.688ZM368.456 20.248V24.352H379.544V20.248H368.456ZM363.704 11.536V33.184H366.392V14.128H381.44V33.184H384.272V11.536H363.704ZM365.408 29.728V32.296H382.976V29.728H365.408ZM397.352 16.984H401.288V18.976H397.352V16.984ZM394.664 15.112V20.872H404.144V15.112H394.664ZM394.52 23.848H396.392V26.488H394.52V23.848ZM392.192 21.904V28.408H398.84V21.904H392.192ZM402.296 23.848H404.24V26.488H402.296V23.848ZM399.92 21.904V28.408H406.736V21.904H399.92ZM387.944 11.464V33.16H390.752V13.984H408.464V11.464H387.944ZM389.768 29.608V32.2H409.112V29.608H389.768Z" fill="black"/>
<path d="M78.02 48H76.724V40.548H74.156V39.432H80.588V40.548H78.02V48ZM83.3048 41.412C84.1128 41.412 84.7168 41.592 85.1168 41.952C85.5248 42.304 85.7288 42.86 85.7288 43.62V48H84.8288L84.5768 47.1H84.5288C84.2488 47.452 83.9528 47.712 83.6408 47.88C83.3368 48.04 82.9128 48.12 82.3688 48.12C81.7848 48.12 81.3008 47.964 80.9168 47.652C80.5328 47.332 80.3408 46.836 80.3408 46.164C80.3408 45.5 80.5888 45 81.0848 44.664C81.5888 44.32 82.3528 44.132 83.3768 44.1L84.4808 44.064V43.704C84.4808 43.232 84.3728 42.9 84.1568 42.708C83.9408 42.508 83.6368 42.408 83.2448 42.408C82.9168 42.408 82.6008 42.456 82.2968 42.552C81.9928 42.648 81.7008 42.764 81.4208 42.9L81.0128 41.976C81.3168 41.816 81.6648 41.684 82.0568 41.58C82.4568 41.468 82.8728 41.412 83.3048 41.412ZM84.4688 44.892L83.6048 44.916C82.8688 44.948 82.3568 45.072 82.0688 45.288C81.7888 45.504 81.6488 45.8 81.6488 46.176C81.6488 46.512 81.7488 46.756 81.9488 46.908C82.1488 47.06 82.4088 47.136 82.7288 47.136C83.2248 47.136 83.6368 46.996 83.9648 46.716C84.3008 46.436 84.4688 46.016 84.4688 45.456V44.892ZM88.3354 39.072C88.5274 39.072 88.6954 39.128 88.8394 39.24C88.9834 39.352 89.0554 39.54 89.0554 39.804C89.0554 40.06 88.9834 40.248 88.8394 40.368C88.6954 40.48 88.5274 40.536 88.3354 40.536C88.1354 40.536 87.9634 40.48 87.8194 40.368C87.6754 40.248 87.6034 40.06 87.6034 39.804C87.6034 39.54 87.6754 39.352 87.8194 39.24C87.9634 39.128 88.1354 39.072 88.3354 39.072ZM88.9594 41.532V48H87.6874V41.532H88.9594ZM96.2489 47.988L95.3249 44.76C95.2689 44.552 95.2049 44.316 95.1329 44.052C95.0609 43.78 94.9969 43.524 94.9409 43.284C94.8849 43.036 94.8409 42.844 94.8089 42.708H94.7609C94.7369 42.844 94.6969 43.036 94.6409 43.284C94.5849 43.524 94.5209 43.78 94.4489 44.052C94.3849 44.316 94.3209 44.556 94.2569 44.772L93.2969 47.988H91.8809L90.0929 41.52H91.3889L92.2289 44.796C92.3169 45.132 92.3969 45.492 92.4689 45.876C92.5489 46.252 92.6049 46.556 92.6369 46.788H92.6849C92.7089 46.652 92.7409 46.472 92.7809 46.248C92.8289 46.016 92.8769 45.788 92.9249 45.564C92.9809 45.34 93.0329 45.156 93.0809 45.012L94.1129 41.52H95.5049L96.5129 45.012C96.5609 45.172 96.6129 45.364 96.6689 45.588C96.7249 45.804 96.7729 46.02 96.8129 46.236C96.8609 46.452 96.8929 46.632 96.9089 46.776H96.9569C96.9729 46.648 97.0009 46.472 97.0409 46.248C97.0809 46.024 97.1289 45.784 97.1849 45.528C97.2489 45.272 97.3089 45.028 97.3649 44.796L98.2289 41.52H99.5129L97.7009 47.988H96.2489ZM103.145 41.412C103.953 41.412 104.557 41.592 104.957 41.952C105.365 42.304 105.569 42.86 105.569 43.62V48H104.669L104.417 47.1H104.369C104.089 47.452 103.793 47.712 103.481 47.88C103.177 48.04 102.753 48.12 102.209 48.12C101.625 48.12 101.141 47.964 100.757 47.652C100.373 47.332 100.181 46.836 100.181 46.164C100.181 45.5 100.429 45 100.925 44.664C101.429 44.32 102.193 44.132 103.217 44.1L104.321 44.064V43.704C104.321 43.232 104.213 42.9 103.997 42.708C103.781 42.508 103.477 42.408 103.085 42.408C102.757 42.408 102.441 42.456 102.137 42.552C101.833 42.648 101.541 42.764 101.261 42.9L100.853 41.976C101.157 41.816 101.505 41.684 101.897 41.58C102.297 41.468 102.713 41.412 103.145 41.412ZM104.309 44.892L103.445 44.916C102.709 44.948 102.197 45.072 101.909 45.288C101.629 45.504 101.489 45.8 101.489 46.176C101.489 46.512 101.589 46.756 101.789 46.908C101.989 47.06 102.249 47.136 102.569 47.136C103.065 47.136 103.477 46.996 103.805 46.716C104.141 46.436 104.309 46.016 104.309 45.456V44.892ZM110.803 41.412C111.555 41.412 112.131 41.6 112.531 41.976C112.931 42.352 113.131 42.956 113.131 43.788V48H111.871V43.968C111.871 42.96 111.427 42.456 110.539 42.456C109.883 42.456 109.427 42.652 109.171 43.044C108.923 43.436 108.799 44 108.799 44.736V48H107.527V41.532H108.535L108.715 42.396H108.787C108.995 42.06 109.279 41.812 109.639 41.652C110.007 41.492 110.395 41.412 110.803 41.412ZM121.923 43.392H125.019V47.664C124.563 47.816 124.095 47.928 123.615 48C123.143 48.08 122.603 48.12 121.995 48.12C120.683 48.12 119.675 47.732 118.971 46.956C118.275 46.18 117.927 45.1 117.927 43.716C117.927 42.82 118.099 42.044 118.443 41.388C118.795 40.724 119.303 40.212 119.967 39.852C120.631 39.492 121.435 39.312 122.379 39.312C122.851 39.312 123.303 39.36 123.735 39.456C124.167 39.552 124.567 39.676 124.935 39.828L124.467 40.908C124.171 40.772 123.839 40.66 123.471 40.572C123.103 40.476 122.723 40.428 122.331 40.428C121.699 40.428 121.151 40.564 120.687 40.836C120.231 41.1 119.879 41.48 119.631 41.976C119.391 42.472 119.271 43.056 119.271 43.728C119.271 44.368 119.371 44.936 119.571 45.432C119.771 45.928 120.087 46.316 120.519 46.596C120.951 46.876 121.515 47.016 122.211 47.016C122.555 47.016 122.843 47 123.075 46.968C123.315 46.928 123.535 46.884 123.735 46.836V44.508H121.923V43.392ZM128.194 48H126.922V38.88H128.194V48ZM135.891 44.76C135.891 45.832 135.615 46.66 135.063 47.244C134.511 47.828 133.767 48.12 132.831 48.12C132.247 48.12 131.727 47.992 131.271 47.736C130.823 47.472 130.467 47.092 130.203 46.596C129.947 46.092 129.819 45.48 129.819 44.76C129.819 43.688 130.091 42.864 130.635 42.288C131.179 41.704 131.923 41.412 132.867 41.412C133.459 41.412 133.979 41.544 134.427 41.808C134.883 42.064 135.239 42.44 135.495 42.936C135.759 43.432 135.891 44.04 135.891 44.76ZM131.127 44.76C131.127 45.488 131.263 46.056 131.535 46.464C131.815 46.872 132.255 47.076 132.855 47.076C133.455 47.076 133.891 46.872 134.163 46.464C134.443 46.056 134.583 45.488 134.583 44.76C134.583 44.024 134.443 43.46 134.163 43.068C133.891 42.668 133.451 42.468 132.843 42.468C132.243 42.468 131.807 42.668 131.535 43.068C131.263 43.46 131.127 44.024 131.127 44.76ZM138.721 48L136.273 41.532H137.617L138.961 45.312C139.041 45.568 139.125 45.848 139.213 46.152C139.301 46.456 139.361 46.708 139.393 46.908H139.441C139.473 46.708 139.537 46.456 139.633 46.152C139.729 45.84 139.817 45.56 139.897 45.312L141.241 41.532H142.585L140.125 48H138.721ZM146.13 41.412C146.978 41.412 147.646 41.676 148.134 42.204C148.622 42.724 148.866 43.436 148.866 44.34V45.036H144.522C144.538 45.7 144.71 46.208 145.038 46.56C145.374 46.912 145.842 47.088 146.442 47.088C146.858 47.088 147.226 47.052 147.546 46.98C147.874 46.9 148.21 46.784 148.554 46.632V47.688C148.226 47.84 147.898 47.948 147.57 48.012C147.242 48.084 146.85 48.12 146.394 48.12C145.77 48.12 145.218 47.996 144.738 47.748C144.258 47.5 143.882 47.132 143.61 46.644C143.346 46.156 143.214 45.548 143.214 44.82C143.214 44.092 143.334 43.476 143.574 42.972C143.822 42.468 144.162 42.084 144.594 41.82C145.034 41.548 145.546 41.412 146.13 41.412ZM146.13 42.396C145.674 42.396 145.306 42.544 145.026 42.84C144.754 43.136 144.594 43.556 144.546 44.1H147.594C147.586 43.596 147.462 43.188 147.222 42.876C146.99 42.556 146.626 42.396 146.13 42.396ZM156.114 39.432C157.234 39.432 158.05 39.66 158.562 40.116C159.074 40.564 159.33 41.192 159.33 42C159.33 42.48 159.222 42.928 159.006 43.344C158.798 43.76 158.446 44.1 157.95 44.364C157.454 44.62 156.782 44.748 155.934 44.748H155.01V48H153.714V39.432H156.114ZM156.018 40.524H155.01V43.656H155.79C156.518 43.656 157.066 43.536 157.434 43.296C157.81 43.048 157.998 42.632 157.998 42.048C157.998 41.536 157.838 41.156 157.518 40.908C157.198 40.652 156.698 40.524 156.018 40.524ZM166.486 41.532V48H165.466L165.286 47.148H165.226C165.018 47.484 164.73 47.732 164.362 47.892C163.994 48.044 163.606 48.12 163.198 48.12C162.438 48.12 161.858 47.936 161.458 47.568C161.058 47.192 160.858 46.592 160.858 45.768V41.532H162.142V45.576C162.142 46.08 162.246 46.456 162.454 46.704C162.67 46.952 163.002 47.076 163.45 47.076C164.114 47.076 164.574 46.884 164.83 46.5C165.086 46.108 165.214 45.544 165.214 44.808V41.532H166.486ZM171.704 41.412C172.488 41.412 173.116 41.692 173.588 42.252C174.06 42.812 174.296 43.648 174.296 44.76C174.296 45.856 174.056 46.692 173.576 47.268C173.096 47.836 172.468 48.12 171.692 48.12C171.204 48.12 170.804 48.032 170.492 47.856C170.18 47.672 169.932 47.456 169.748 47.208H169.664C169.68 47.352 169.696 47.524 169.712 47.724C169.736 47.916 169.748 48.088 169.748 48.24V50.88H168.476V41.532H169.508L169.688 42.396H169.748C169.932 42.124 170.176 41.892 170.48 41.7C170.792 41.508 171.2 41.412 171.704 41.412ZM171.404 42.456C170.804 42.456 170.38 42.628 170.132 42.972C169.884 43.316 169.756 43.844 169.748 44.556V44.748C169.748 45.5 169.868 46.076 170.108 46.476C170.348 46.876 170.788 47.076 171.428 47.076C171.956 47.076 172.348 46.86 172.604 46.428C172.86 45.996 172.988 45.432 172.988 44.736C172.988 44.032 172.856 43.476 172.592 43.068C172.336 42.66 171.94 42.456 171.404 42.456ZM179.146 41.412C179.93 41.412 180.558 41.692 181.03 42.252C181.502 42.812 181.738 43.648 181.738 44.76C181.738 45.856 181.498 46.692 181.018 47.268C180.538 47.836 179.91 48.12 179.134 48.12C178.646 48.12 178.246 48.032 177.934 47.856C177.622 47.672 177.374 47.456 177.19 47.208H177.106C177.122 47.352 177.138 47.524 177.154 47.724C177.178 47.916 177.19 48.088 177.19 48.24V50.88H175.918V41.532H176.95L177.13 42.396H177.19C177.374 42.124 177.618 41.892 177.922 41.7C178.234 41.508 178.642 41.412 179.146 41.412ZM178.846 42.456C178.246 42.456 177.822 42.628 177.574 42.972C177.326 43.316 177.198 43.844 177.19 44.556V44.748C177.19 45.5 177.31 46.076 177.55 46.476C177.79 46.876 178.23 47.076 178.87 47.076C179.398 47.076 179.79 46.86 180.046 46.428C180.302 45.996 180.43 45.432 180.43 44.736C180.43 44.032 180.298 43.476 180.034 43.068C179.778 42.66 179.382 42.456 178.846 42.456ZM185.903 41.412C186.751 41.412 187.419 41.676 187.907 42.204C188.395 42.724 188.639 43.436 188.639 44.34V45.036H184.295C184.311 45.7 184.483 46.208 184.811 46.56C185.147 46.912 185.615 47.088 186.215 47.088C186.631 47.088 186.999 47.052 187.319 46.98C187.647 46.9 187.983 46.784 188.327 46.632V47.688C187.999 47.84 187.671 47.948 187.343 48.012C187.015 48.084 186.623 48.12 186.167 48.12C185.543 48.12 184.991 47.996 184.511 47.748C184.031 47.5 183.655 47.132 183.383 46.644C183.119 46.156 182.987 45.548 182.987 44.82C182.987 44.092 183.107 43.476 183.347 42.972C183.595 42.468 183.935 42.084 184.367 41.82C184.807 41.548 185.319 41.412 185.903 41.412ZM185.903 42.396C185.447 42.396 185.079 42.544 184.799 42.84C184.527 43.136 184.367 43.556 184.319 44.1H187.367C187.359 43.596 187.235 43.188 186.995 42.876C186.763 42.556 186.399 42.396 185.903 42.396ZM192.554 47.088C192.914 47.088 193.238 47.036 193.526 46.932V47.892C193.39 47.956 193.206 48.008 192.974 48.048C192.742 48.096 192.51 48.12 192.278 48.12C191.926 48.12 191.602 48.06 191.306 47.94C191.018 47.82 190.786 47.612 190.61 47.316C190.434 47.02 190.346 46.608 190.346 46.08V42.504H189.446V41.928L190.394 41.448L190.838 40.08H191.618V41.532H193.466V42.504H191.618V46.056C191.618 46.408 191.702 46.668 191.87 46.836C192.046 47.004 192.274 47.088 192.554 47.088ZM198.012 41.412C198.268 41.412 198.504 41.432 198.72 41.472L198.588 42.66C198.38 42.604 198.164 42.576 197.94 42.576C197.612 42.576 197.308 42.656 197.028 42.816C196.748 42.976 196.52 43.208 196.344 43.512C196.176 43.808 196.092 44.168 196.092 44.592V48H194.82V41.532H195.828L195.996 42.684H196.044C196.244 42.34 196.512 42.044 196.848 41.796C197.184 41.54 197.572 41.412 198.012 41.412ZM198.934 41.532H200.302L201.646 45.204C201.75 45.484 201.842 45.752 201.922 46.008C202.002 46.264 202.058 46.52 202.09 46.776H202.138C202.178 46.568 202.238 46.324 202.318 46.044C202.406 45.764 202.502 45.48 202.606 45.192L203.878 41.532H205.246L202.474 48.876C202.242 49.5 201.93 49.988 201.538 50.34C201.154 50.7 200.65 50.88 200.026 50.88C199.826 50.88 199.654 50.868 199.51 50.844C199.366 50.828 199.242 50.808 199.138 50.784V49.776C199.218 49.792 199.322 49.808 199.45 49.824C199.578 49.84 199.71 49.848 199.846 49.848C200.214 49.848 200.51 49.74 200.734 49.524C200.958 49.316 201.134 49.04 201.262 48.696L201.526 48L198.934 41.532ZM213.167 40.428C212.319 40.428 211.651 40.724 211.163 41.316C210.683 41.9 210.443 42.704 210.443 43.728C210.443 44.744 210.667 45.544 211.115 46.128C211.563 46.712 212.243 47.004 213.155 47.004C213.523 47.004 213.875 46.972 214.211 46.908C214.555 46.836 214.903 46.744 215.255 46.632V47.748C214.919 47.876 214.575 47.968 214.223 48.024C213.871 48.088 213.463 48.12 212.999 48.12C212.119 48.12 211.387 47.94 210.803 47.58C210.227 47.212 209.795 46.7 209.507 46.044C209.227 45.38 209.087 44.604 209.087 43.716C209.087 42.852 209.243 42.092 209.555 41.436C209.875 40.772 210.339 40.252 210.947 39.876C211.555 39.5 212.299 39.312 213.179 39.312C213.611 39.312 214.031 39.36 214.439 39.456C214.855 39.544 215.235 39.672 215.579 39.84L215.099 40.92C214.819 40.792 214.519 40.68 214.199 40.584C213.879 40.48 213.535 40.428 213.167 40.428ZM222.525 41.532V48H221.505L221.325 47.148H221.265C221.057 47.484 220.769 47.732 220.401 47.892C220.033 48.044 219.645 48.12 219.237 48.12C218.477 48.12 217.897 47.936 217.497 47.568C217.097 47.192 216.897 46.592 216.897 45.768V41.532H218.181V45.576C218.181 46.08 218.285 46.456 218.493 46.704C218.709 46.952 219.041 47.076 219.489 47.076C220.153 47.076 220.613 46.884 220.869 46.5C221.125 46.108 221.253 45.544 221.253 44.808V41.532H222.525ZM225.788 48H224.516V38.88H225.788V48ZM230.113 47.088C230.473 47.088 230.797 47.036 231.085 46.932V47.892C230.949 47.956 230.765 48.008 230.533 48.048C230.301 48.096 230.069 48.12 229.837 48.12C229.485 48.12 229.161 48.06 228.865 47.94C228.577 47.82 228.345 47.612 228.169 47.316C227.993 47.02 227.905 46.608 227.905 46.08V42.504H227.005V41.928L227.953 41.448L228.397 40.08H229.177V41.532H231.025V42.504H229.177V46.056C229.177 46.408 229.261 46.668 229.429 46.836C229.605 47.004 229.833 47.088 230.113 47.088ZM237.947 41.532V48H236.927L236.747 47.148H236.687C236.479 47.484 236.191 47.732 235.823 47.892C235.455 48.044 235.067 48.12 234.659 48.12C233.899 48.12 233.319 47.936 232.919 47.568C232.519 47.192 232.319 46.592 232.319 45.768V41.532H233.603V45.576C233.603 46.08 233.707 46.456 233.915 46.704C234.131 46.952 234.463 47.076 234.911 47.076C235.575 47.076 236.035 46.884 236.291 46.5C236.547 46.108 236.675 45.544 236.675 44.808V41.532H237.947ZM243.129 41.412C243.385 41.412 243.621 41.432 243.837 41.472L243.705 42.66C243.497 42.604 243.281 42.576 243.057 42.576C242.729 42.576 242.425 42.656 242.145 42.816C241.865 42.976 241.637 43.208 241.461 43.512C241.293 43.808 241.209 44.168 241.209 44.592V48H239.937V41.532H240.945L241.113 42.684H241.161C241.361 42.34 241.629 42.044 241.965 41.796C242.301 41.54 242.689 41.412 243.129 41.412ZM247.309 41.412C248.117 41.412 248.721 41.592 249.121 41.952C249.529 42.304 249.733 42.86 249.733 43.62V48H248.833L248.581 47.1H248.533C248.253 47.452 247.957 47.712 247.645 47.88C247.341 48.04 246.917 48.12 246.373 48.12C245.789 48.12 245.305 47.964 244.921 47.652C244.537 47.332 244.345 46.836 244.345 46.164C244.345 45.5 244.593 45 245.089 44.664C245.593 44.32 246.357 44.132 247.381 44.1L248.485 44.064V43.704C248.485 43.232 248.377 42.9 248.161 42.708C247.945 42.508 247.641 42.408 247.249 42.408C246.921 42.408 246.605 42.456 246.301 42.552C245.997 42.648 245.705 42.764 245.425 42.9L245.017 41.976C245.321 41.816 245.669 41.684 246.061 41.58C246.461 41.468 246.877 41.412 247.309 41.412ZM248.473 44.892L247.609 44.916C246.873 44.948 246.361 45.072 246.073 45.288C245.793 45.504 245.653 45.8 245.653 46.176C245.653 46.512 245.753 46.756 245.953 46.908C246.153 47.06 246.413 47.136 246.733 47.136C247.229 47.136 247.641 46.996 247.969 46.716C248.305 46.436 248.473 46.016 248.473 45.456V44.892ZM252.963 48H251.691V38.88H252.963V48ZM264.906 48H263.61V44.088H259.518V48H258.222V39.432H259.518V42.984H263.61V39.432H264.906V48ZM269.599 41.412C270.447 41.412 271.115 41.676 271.603 42.204C272.091 42.724 272.335 43.436 272.335 44.34V45.036H267.991C268.007 45.7 268.179 46.208 268.507 46.56C268.843 46.912 269.311 47.088 269.911 47.088C270.327 47.088 270.695 47.052 271.015 46.98C271.343 46.9 271.679 46.784 272.023 46.632V47.688C271.695 47.84 271.367 47.948 271.039 48.012C270.711 48.084 270.319 48.12 269.863 48.12C269.239 48.12 268.687 47.996 268.207 47.748C267.727 47.5 267.351 47.132 267.079 46.644C266.815 46.156 266.683 45.548 266.683 44.82C266.683 44.092 266.803 43.476 267.043 42.972C267.291 42.468 267.631 42.084 268.063 41.82C268.503 41.548 269.015 41.412 269.599 41.412ZM269.599 42.396C269.143 42.396 268.775 42.544 268.495 42.84C268.223 43.136 268.063 43.556 268.015 44.1H271.063C271.055 43.596 270.931 43.188 270.691 42.876C270.459 42.556 270.095 42.396 269.599 42.396ZM277.114 41.412C277.37 41.412 277.606 41.432 277.822 41.472L277.69 42.66C277.482 42.604 277.266 42.576 277.042 42.576C276.714 42.576 276.41 42.656 276.13 42.816C275.85 42.976 275.622 43.208 275.446 43.512C275.278 43.808 275.194 44.168 275.194 44.592V48H273.922V41.532H274.93L275.098 42.684H275.146C275.346 42.34 275.614 42.044 275.95 41.796C276.286 41.54 276.674 41.412 277.114 41.412ZM279.667 39.072C279.859 39.072 280.027 39.128 280.171 39.24C280.315 39.352 280.387 39.54 280.387 39.804C280.387 40.06 280.315 40.248 280.171 40.368C280.027 40.48 279.859 40.536 279.667 40.536C279.467 40.536 279.295 40.48 279.151 40.368C279.007 40.248 278.935 40.06 278.935 39.804C278.935 39.54 279.007 39.352 279.151 39.24C279.295 39.128 279.467 39.072 279.667 39.072ZM280.291 41.532V48H279.019V41.532H280.291ZM284.617 47.088C284.977 47.088 285.301 47.036 285.589 46.932V47.892C285.453 47.956 285.269 48.008 285.037 48.048C284.805 48.096 284.573 48.12 284.341 48.12C283.989 48.12 283.665 48.06 283.369 47.94C283.081 47.82 282.849 47.612 282.673 47.316C282.497 47.02 282.409 46.608 282.409 46.08V42.504H281.509V41.928L282.457 41.448L282.901 40.08H283.681V41.532H285.529V42.504H283.681V46.056C283.681 46.408 283.765 46.668 283.933 46.836C284.109 47.004 284.337 47.088 284.617 47.088ZM289.391 41.412C290.199 41.412 290.803 41.592 291.203 41.952C291.611 42.304 291.815 42.86 291.815 43.62V48H290.915L290.663 47.1H290.615C290.335 47.452 290.039 47.712 289.727 47.88C289.423 48.04 288.999 48.12 288.455 48.12C287.871 48.12 287.387 47.964 287.003 47.652C286.619 47.332 286.427 46.836 286.427 46.164C286.427 45.5 286.675 45 287.171 44.664C287.675 44.32 288.439 44.132 289.463 44.1L290.567 44.064V43.704C290.567 43.232 290.459 42.9 290.243 42.708C290.027 42.508 289.723 42.408 289.331 42.408C289.003 42.408 288.687 42.456 288.383 42.552C288.079 42.648 287.787 42.764 287.507 42.9L287.099 41.976C287.403 41.816 287.751 41.684 288.143 41.58C288.543 41.468 288.959 41.412 289.391 41.412ZM290.555 44.892L289.691 44.916C288.955 44.948 288.443 45.072 288.155 45.288C287.875 45.504 287.735 45.8 287.735 46.176C287.735 46.512 287.835 46.756 288.035 46.908C288.235 47.06 288.495 47.136 288.815 47.136C289.311 47.136 289.723 46.996 290.051 46.716C290.387 46.436 290.555 46.016 290.555 45.456V44.892ZM296.005 41.412C296.421 41.412 296.797 41.492 297.133 41.652C297.469 41.812 297.753 42.056 297.985 42.384H298.045L298.189 41.532H299.221V48.084C299.221 49.948 298.225 50.88 296.233 50.88C295.769 50.88 295.341 50.848 294.949 50.784C294.557 50.72 294.197 50.62 293.869 50.484V49.368C294.205 49.536 294.577 49.66 294.985 49.74C295.401 49.828 295.841 49.872 296.305 49.872C296.825 49.872 297.229 49.72 297.517 49.416C297.813 49.12 297.961 48.7 297.961 48.156V47.94C297.961 47.836 297.965 47.7 297.973 47.532C297.981 47.364 297.989 47.236 297.997 47.148H297.949C297.725 47.484 297.449 47.732 297.121 47.892C296.801 48.044 296.429 48.12 296.005 48.12C295.189 48.12 294.549 47.828 294.085 47.244C293.629 46.652 293.401 45.832 293.401 44.784C293.401 43.744 293.629 42.924 294.085 42.324C294.549 41.716 295.189 41.412 296.005 41.412ZM296.269 42.468C295.765 42.468 295.377 42.668 295.105 43.068C294.841 43.46 294.709 44.036 294.709 44.796C294.709 45.548 294.841 46.12 295.105 46.512C295.377 46.904 295.773 47.1 296.293 47.1C296.885 47.1 297.317 46.94 297.589 46.62C297.869 46.292 298.009 45.76 298.009 45.024V44.784C298.009 43.952 297.869 43.36 297.589 43.008C297.309 42.648 296.869 42.468 296.269 42.468ZM303.759 41.412C304.607 41.412 305.275 41.676 305.763 42.204C306.251 42.724 306.495 43.436 306.495 44.34V45.036H302.151C302.167 45.7 302.339 46.208 302.667 46.56C303.003 46.912 303.471 47.088 304.071 47.088C304.487 47.088 304.855 47.052 305.175 46.98C305.503 46.9 305.839 46.784 306.183 46.632V47.688C305.855 47.84 305.527 47.948 305.199 48.012C304.871 48.084 304.479 48.12 304.023 48.12C303.399 48.12 302.847 47.996 302.367 47.748C301.887 47.5 301.511 47.132 301.239 46.644C300.975 46.156 300.843 45.548 300.843 44.82C300.843 44.092 300.963 43.476 301.203 42.972C301.451 42.468 301.791 42.084 302.223 41.82C302.663 41.548 303.175 41.412 303.759 41.412ZM303.759 42.396C303.303 42.396 302.935 42.544 302.655 42.84C302.383 43.136 302.223 43.556 302.175 44.1H305.223C305.215 43.596 305.091 43.188 304.851 42.876C304.619 42.556 304.255 42.396 303.759 42.396ZM315.003 40.428C314.155 40.428 313.487 40.724 312.999 41.316C312.519 41.9 312.279 42.704 312.279 43.728C312.279 44.744 312.503 45.544 312.951 46.128C313.399 46.712 314.079 47.004 314.991 47.004C315.359 47.004 315.711 46.972 316.047 46.908C316.391 46.836 316.739 46.744 317.091 46.632V47.748C316.755 47.876 316.411 47.968 316.059 48.024C315.707 48.088 315.299 48.12 314.835 48.12C313.955 48.12 313.223 47.94 312.639 47.58C312.063 47.212 311.631 46.7 311.343 46.044C311.063 45.38 310.923 44.604 310.923 43.716C310.923 42.852 311.079 42.092 311.391 41.436C311.711 40.772 312.175 40.252 312.783 39.876C313.391 39.5 314.135 39.312 315.015 39.312C315.447 39.312 315.867 39.36 316.275 39.456C316.691 39.544 317.071 39.672 317.415 39.84L316.935 40.92C316.655 40.792 316.355 40.68 316.035 40.584C315.715 40.48 315.371 40.428 315.003 40.428ZM321.337 41.412C322.185 41.412 322.853 41.676 323.341 42.204C323.829 42.724 324.073 43.436 324.073 44.34V45.036H319.729C319.745 45.7 319.917 46.208 320.245 46.56C320.581 46.912 321.049 47.088 321.649 47.088C322.065 47.088 322.433 47.052 322.753 46.98C323.081 46.9 323.417 46.784 323.761 46.632V47.688C323.433 47.84 323.105 47.948 322.777 48.012C322.449 48.084 322.057 48.12 321.601 48.12C320.977 48.12 320.425 47.996 319.945 47.748C319.465 47.5 319.089 47.132 318.817 46.644C318.553 46.156 318.421 45.548 318.421 44.82C318.421 44.092 318.541 43.476 318.781 42.972C319.029 42.468 319.369 42.084 319.801 41.82C320.241 41.548 320.753 41.412 321.337 41.412ZM321.337 42.396C320.881 42.396 320.513 42.544 320.233 42.84C319.961 43.136 319.801 43.556 319.753 44.1H322.801C322.793 43.596 322.669 43.188 322.429 42.876C322.197 42.556 321.833 42.396 321.337 42.396ZM328.936 41.412C329.688 41.412 330.264 41.6 330.664 41.976C331.064 42.352 331.264 42.956 331.264 43.788V48H330.004V43.968C330.004 42.96 329.56 42.456 328.672 42.456C328.016 42.456 327.56 42.652 327.304 43.044C327.056 43.436 326.932 44 326.932 44.736V48H325.66V41.532H326.668L326.848 42.396H326.92C327.128 42.06 327.412 41.812 327.772 41.652C328.14 41.492 328.528 41.412 328.936 41.412ZM335.547 47.088C335.907 47.088 336.231 47.036 336.519 46.932V47.892C336.383 47.956 336.199 48.008 335.967 48.048C335.735 48.096 335.503 48.12 335.271 48.12C334.919 48.12 334.595 48.06 334.299 47.94C334.011 47.82 333.779 47.612 333.603 47.316C333.427 47.02 333.339 46.608 333.339 46.08V42.504H332.439V41.928L333.387 41.448L333.831 40.08H334.611V41.532H336.459V42.504H334.611V46.056C334.611 46.408 334.695 46.668 334.863 46.836C335.039 47.004 335.267 47.088 335.547 47.088ZM340.356 41.412C341.204 41.412 341.872 41.676 342.36 42.204C342.848 42.724 343.092 43.436 343.092 44.34V45.036H338.748C338.764 45.7 338.936 46.208 339.264 46.56C339.6 46.912 340.068 47.088 340.668 47.088C341.084 47.088 341.452 47.052 341.772 46.98C342.1 46.9 342.436 46.784 342.78 46.632V47.688C342.452 47.84 342.124 47.948 341.796 48.012C341.468 48.084 341.076 48.12 340.62 48.12C339.996 48.12 339.444 47.996 338.964 47.748C338.484 47.5 338.108 47.132 337.836 46.644C337.572 46.156 337.44 45.548 337.44 44.82C337.44 44.092 337.56 43.476 337.8 42.972C338.048 42.468 338.388 42.084 338.82 41.82C339.26 41.548 339.772 41.412 340.356 41.412ZM340.356 42.396C339.9 42.396 339.532 42.544 339.252 42.84C338.98 43.136 338.82 43.556 338.772 44.1H341.82C341.812 43.596 341.688 43.188 341.448 42.876C341.216 42.556 340.852 42.396 340.356 42.396ZM347.872 41.412C348.128 41.412 348.364 41.432 348.58 41.472L348.448 42.66C348.24 42.604 348.024 42.576 347.8 42.576C347.472 42.576 347.168 42.656 346.888 42.816C346.608 42.976 346.38 43.208 346.204 43.512C346.036 43.808 345.952 44.168 345.952 44.592V48H344.68V41.532H345.688L345.856 42.684H345.904C346.104 42.34 346.372 42.044 346.708 41.796C347.044 41.54 347.432 41.412 347.872 41.412ZM355.57 39.3C356.226 39.3 356.75 39.464 357.142 39.792C357.542 40.112 357.742 40.568 357.742 41.16C357.742 41.672 357.578 42.108 357.25 42.468C356.922 42.828 356.514 43.152 356.026 43.44L358.15 45.492C358.342 45.244 358.502 44.96 358.63 44.64C358.758 44.32 358.866 43.98 358.954 43.62H360.25C360.13 44.116 359.966 44.596 359.758 45.06C359.558 45.516 359.298 45.928 358.978 46.296L360.73 48H359.074L358.138 47.1C357.77 47.404 357.358 47.652 356.902 47.844C356.454 48.028 355.922 48.12 355.306 48.12C354.434 48.12 353.746 47.912 353.242 47.496C352.738 47.072 352.486 46.488 352.486 45.744C352.486 45.136 352.642 44.648 352.954 44.28C353.274 43.904 353.706 43.56 354.25 43.248C353.978 42.944 353.746 42.632 353.554 42.312C353.362 41.992 353.266 41.624 353.266 41.208C353.266 40.616 353.474 40.152 353.89 39.816C354.306 39.472 354.866 39.3 355.57 39.3ZM355.534 40.32C355.238 40.32 354.99 40.396 354.79 40.548C354.59 40.7 354.49 40.928 354.49 41.232C354.49 41.496 354.558 41.744 354.694 41.976C354.83 42.2 355.022 42.444 355.27 42.708C355.71 42.46 356.026 42.224 356.218 42C356.418 41.776 356.518 41.512 356.518 41.208C356.518 40.936 356.422 40.72 356.23 40.56C356.046 40.4 355.814 40.32 355.534 40.32ZM355.006 44.028C354.63 44.26 354.338 44.5 354.13 44.748C353.922 44.988 353.818 45.296 353.818 45.672C353.818 46.08 353.958 46.408 354.238 46.656C354.526 46.896 354.902 47.016 355.366 47.016C355.806 47.016 356.186 46.948 356.506 46.812C356.834 46.676 357.114 46.508 357.346 46.308L355.006 44.028ZM368.663 40.428C367.815 40.428 367.147 40.724 366.659 41.316C366.179 41.9 365.939 42.704 365.939 43.728C365.939 44.744 366.163 45.544 366.611 46.128C367.059 46.712 367.739 47.004 368.651 47.004C369.019 47.004 369.371 46.972 369.707 46.908C370.051 46.836 370.399 46.744 370.751 46.632V47.748C370.415 47.876 370.071 47.968 369.719 48.024C369.367 48.088 368.959 48.12 368.495 48.12C367.615 48.12 366.883 47.94 366.299 47.58C365.723 47.212 365.291 46.7 365.003 46.044C364.723 45.38 364.583 44.604 364.583 43.716C364.583 42.852 364.739 42.092 365.051 41.436C365.371 40.772 365.835 40.252 366.443 39.876C367.051 39.5 367.795 39.312 368.675 39.312C369.107 39.312 369.527 39.36 369.935 39.456C370.351 39.544 370.731 39.672 371.075 39.84L370.595 40.92C370.315 40.792 370.015 40.68 369.695 40.584C369.375 40.48 369.031 40.428 368.663 40.428ZM378.021 41.532V48H377.001L376.821 47.148H376.761C376.553 47.484 376.265 47.732 375.897 47.892C375.529 48.044 375.141 48.12 374.733 48.12C373.973 48.12 373.393 47.936 372.993 47.568C372.593 47.192 372.393 46.592 372.393 45.768V41.532H373.677V45.576C373.677 46.08 373.781 46.456 373.989 46.704C374.205 46.952 374.537 47.076 374.985 47.076C375.649 47.076 376.109 46.884 376.365 46.5C376.621 46.108 376.749 45.544 376.749 44.808V41.532H378.021ZM381.284 48H380.012V38.88H381.284V48ZM385.609 47.088C385.969 47.088 386.293 47.036 386.581 46.932V47.892C386.445 47.956 386.261 48.008 386.029 48.048C385.797 48.096 385.565 48.12 385.333 48.12C384.981 48.12 384.657 48.06 384.361 47.94C384.073 47.82 383.841 47.612 383.665 47.316C383.489 47.02 383.401 46.608 383.401 46.08V42.504H382.501V41.928L383.449 41.448L383.893 40.08H384.673V41.532H386.521V42.504H384.673V46.056C384.673 46.408 384.757 46.668 384.925 46.836C385.101 47.004 385.329 47.088 385.609 47.088ZM393.443 41.532V48H392.423L392.243 47.148H392.183C391.975 47.484 391.687 47.732 391.319 47.892C390.951 48.044 390.563 48.12 390.155 48.12C389.395 48.12 388.815 47.936 388.415 47.568C388.015 47.192 387.815 46.592 387.815 45.768V41.532H389.099V45.576C389.099 46.08 389.203 46.456 389.411 46.704C389.627 46.952 389.959 47.076 390.407 47.076C391.071 47.076 391.531 46.884 391.787 46.5C392.043 46.108 392.171 45.544 392.171 44.808V41.532H393.443ZM398.626 41.412C398.882 41.412 399.118 41.432 399.334 41.472L399.202 42.66C398.994 42.604 398.778 42.576 398.554 42.576C398.226 42.576 397.922 42.656 397.642 42.816C397.362 42.976 397.134 43.208 396.958 43.512C396.79 43.808 396.706 44.168 396.706 44.592V48H395.434V41.532H396.442L396.61 42.684H396.658C396.858 42.34 397.126 42.044 397.462 41.796C397.798 41.54 398.186 41.412 398.626 41.412ZM402.805 41.412C403.613 41.412 404.217 41.592 404.617 41.952C405.025 42.304 405.229 42.86 405.229 43.62V48H404.329L404.077 47.1H404.029C403.749 47.452 403.453 47.712 403.141 47.88C402.837 48.04 402.413 48.12 401.869 48.12C401.285 48.12 400.801 47.964 400.417 47.652C400.033 47.332 399.841 46.836 399.841 46.164C399.841 45.5 400.089 45 400.585 44.664C401.089 44.32 401.853 44.132 402.877 44.1L403.981 44.064V43.704C403.981 43.232 403.873 42.9 403.657 42.708C403.441 42.508 403.137 42.408 402.745 42.408C402.417 42.408 402.101 42.456 401.797 42.552C401.493 42.648 401.201 42.764 400.921 42.9L400.513 41.976C400.817 41.816 401.165 41.684 401.557 41.58C401.957 41.468 402.373 41.412 402.805 41.412ZM403.969 44.892L403.105 44.916C402.369 44.948 401.857 45.072 401.569 45.288C401.289 45.504 401.149 45.8 401.149 46.176C401.149 46.512 401.249 46.756 401.449 46.908C401.649 47.06 401.909 47.136 402.229 47.136C402.725 47.136 403.137 46.996 403.465 46.716C403.801 46.436 403.969 46.016 403.969 45.456V44.892ZM408.459 48H407.187V38.88H408.459V48ZM416.118 39.432C417.238 39.432 418.054 39.66 418.566 40.116C419.078 40.564 419.334 41.192 419.334 42C419.334 42.48 419.226 42.928 419.01 43.344C418.802 43.76 418.45 44.1 417.954 44.364C417.458 44.62 416.786 44.748 415.938 44.748H415.014V48H413.718V39.432H416.118ZM416.022 40.524H415.014V43.656H415.794C416.522 43.656 417.07 43.536 417.438 43.296C417.814 43.048 418.002 42.632 418.002 42.048C418.002 41.536 417.842 41.156 417.522 40.908C417.202 40.652 416.702 40.524 416.022 40.524ZM423.43 41.412C424.238 41.412 424.842 41.592 425.242 41.952C425.65 42.304 425.854 42.86 425.854 43.62V48H424.954L424.702 47.1H424.654C424.374 47.452 424.078 47.712 423.766 47.88C423.462 48.04 423.038 48.12 422.494 48.12C421.91 48.12 421.426 47.964 421.042 47.652C420.658 47.332 420.466 46.836 420.466 46.164C420.466 45.5 420.714 45 421.21 44.664C421.714 44.32 422.478 44.132 423.502 44.1L424.606 44.064V43.704C424.606 43.232 424.498 42.9 424.282 42.708C424.066 42.508 423.762 42.408 423.37 42.408C423.042 42.408 422.726 42.456 422.422 42.552C422.118 42.648 421.826 42.764 421.546 42.9L421.138 41.976C421.442 41.816 421.79 41.684 422.182 41.58C422.582 41.468 422.998 41.412 423.43 41.412ZM424.594 44.892L423.73 44.916C422.994 44.948 422.482 45.072 422.194 45.288C421.914 45.504 421.774 45.8 421.774 46.176C421.774 46.512 421.874 46.756 422.074 46.908C422.274 47.06 422.534 47.136 422.854 47.136C423.35 47.136 423.762 46.996 424.09 46.716C424.426 46.436 424.594 46.016 424.594 45.456V44.892ZM431.004 41.412C431.26 41.412 431.496 41.432 431.712 41.472L431.58 42.66C431.372 42.604 431.156 42.576 430.932 42.576C430.604 42.576 430.3 42.656 430.02 42.816C429.74 42.976 429.512 43.208 429.336 43.512C429.168 43.808 429.084 44.168 429.084 44.592V48H427.812V41.532H428.82L428.988 42.684H429.036C429.236 42.34 429.504 42.044 429.84 41.796C430.176 41.54 430.564 41.412 431.004 41.412ZM434.17 38.88V43.44C434.17 43.6 434.162 43.792 434.146 44.016C434.13 44.24 434.118 44.44 434.11 44.616H434.146C434.234 44.496 434.354 44.34 434.506 44.148C434.666 43.948 434.806 43.784 434.926 43.656L436.906 41.532H438.382L435.778 44.304L438.55 48H437.05L434.914 45.108L434.17 45.732V48H432.91V38.88H434.17Z" fill="black"/>
<g clip-path="url(#clip0_27_1760)">
<path d="M35.5529 0H28.0137V7.54934H35.5529V0Z" fill="#FFE200"/>
<path d="M37.6417 38.5029L37.6349 55.9999L9.44434 55.9931L15.2281 38.5029H37.6417Z" fill="#28B3CA"/>
<path d="M30.0752 23.2273L30.0956 35.9413L55.9999 35.9617V13.6748L30.0752 23.2273Z" fill="#13AE67"/>
<path d="M0 36.6091V16.8091L27.2175 16.8227L27.2243 26.2049L0 36.6091Z" fill="#EB6100"/>
<path d="M31.8512 11.6716H23.3525V3.15479H31.8512V11.6648V11.6716ZM25.1557 9.86606H30.048V4.96717H25.1557V9.86606Z" fill="#231815"/>
<path d="M25.1489 4.96021H20.1953V0H25.1489V4.96021ZM21.9985 3.15464H23.3457V1.80557H21.9985V3.15464Z" fill="#231815"/>
<path d="M30.0478 17.6062V23.2137L23.325 25.7347V31.1173L5.73574 38.251V18.6146H27.2376V16.809H3.92578V40.8674L23.3182 33.0455V35.9549H40.4517V50.8015H13.2546L17.2555 38.5099H15.2278L10.5737 52.607H42.2548V35.9549H52.0259V9.08252L30.041 17.6062H30.0478ZM25.1282 27.0088L30.0478 25.1351V28.5078L25.1282 30.4292V27.002V27.0088ZM40.4585 34.1493H25.1282V32.3642L31.8509 29.7546V24.4742L40.4585 21.3127V34.1425V34.1493ZM50.2295 34.1493H42.2616V18.7304L31.8509 22.5528V18.8667L50.2295 11.6648V34.1493Z" fill="#231815"/>
</g>
<defs>
<clipPath id="clip0_27_1760">
<rect width="56" height="56" fill="white"/>
</clipPath>
</defs>
</svg>
