<svg width="215" height="70" viewBox="0 0 215 70" fill="none" xmlns="http://www.w3.org/2000/svg">
<g clip-path="url(#clip0_27_1880)">
<path d="M75.2429 62.6678H74.1641V61.7979H77.4911V62.6678H76.4123V66.2055H75.2429V62.6678Z" fill="#221714"/>
<path d="M80.078 61.7979H81.511L83.1992 66.2055H81.9145L81.5851 65.261H79.938L79.5921 66.2055H78.4062L80.0698 61.7979H80.078ZM80.7945 62.7092H80.778L80.2098 64.4325H81.3051L80.7862 62.7092H80.7945Z" fill="#221714"/>
<path d="M84.9785 61.7979H86.1479V66.2055H84.9785V61.7979Z" fill="#221714"/>
<path d="M87.9258 61.7979H89.1199L89.6881 65.1864H89.7046L90.2975 61.7979H91.7799L92.3975 65.1864H92.414L92.9823 61.7979H94.1187L93.1387 66.2055H91.6399L91.0222 62.8169H91.0058L90.4293 66.2055H88.914L87.9422 61.7979H87.9258Z" fill="#221714"/>
<path d="M97.0194 61.7979H98.4524L100.141 66.2055H98.8559L98.5265 65.261H96.8794L96.5335 66.2055H95.3477L97.0112 61.7979H97.0194ZM97.7359 62.7092H97.7194L97.1512 64.4325H98.2465L97.7277 62.7092H97.7359Z" fill="#221714"/>
<path d="M101.879 61.7979H103.369L104.852 64.7887H104.868L104.852 61.7979H105.922V66.2055H104.473L102.941 63.1897H102.925L102.966 66.2055H101.895V61.7979H101.879Z" fill="#221714"/>
<path d="M111.852 61.8724H113.243C114.577 61.8724 115.212 62.3281 115.212 63.3223C115.212 64.2088 114.561 64.7473 113.474 64.7473H113.021V66.2883H111.852V61.8807V61.8724ZM113.021 63.9023H113.326C113.729 63.9023 114.05 63.7531 114.05 63.2975C114.05 62.8418 113.729 62.7009 113.326 62.7009H113.021V63.9023Z" fill="#221714"/>
<path d="M119.05 61.7979C120.492 61.7979 121.249 62.6595 121.249 64.0762C121.249 65.493 120.483 66.3546 119.05 66.3546C117.617 66.3546 116.852 65.4764 116.852 64.0762C116.852 62.6761 117.601 61.7979 119.05 61.7979ZM119.05 65.4847C119.759 65.4847 120.039 64.8053 120.039 64.0762C120.039 63.314 119.759 62.6678 119.05 62.6678C118.342 62.6678 118.062 63.314 118.062 64.0762C118.062 64.8384 118.342 65.4847 119.05 65.4847Z" fill="#221714"/>
<path d="M123.917 62.7424H122.838V61.8724H126.165V62.7424H125.086V66.2801H123.917V62.7424Z" fill="#221714"/>
<path d="M127.879 61.8724H130.967V62.7092H129.048V63.6206H130.86V64.4574H129.048V65.4516H131.041V66.2883H127.887V61.8807L127.879 61.8724Z" fill="#221714"/>
<path d="M133.01 61.8724H134.179V63.5626H135.563V61.8724H136.732V66.2801H135.563V64.3911H134.179V66.2801H133.01V61.8724Z" fill="#221714"/>
<path d="M138.865 61.8724H140.035V66.2801H138.865V61.8724Z" fill="#221714"/>
<path d="M145.645 61.8724H146.814V66.2801H145.645V61.8724Z" fill="#221714"/>
<path d="M148.963 61.8724H150.453L151.936 64.8633H151.952L151.936 61.8724H153.006V66.2801H151.557L150.025 63.2643H150.009L150.05 66.2801H148.979V61.8724H148.963Z" fill="#221714"/>
<path d="M155.107 65.1947C155.412 65.3604 155.832 65.4847 156.31 65.4847C156.68 65.4847 157.034 65.4101 157.034 65.0539C157.034 64.2336 154.959 64.7473 154.959 63.1483C154.959 62.0878 155.988 61.7979 156.87 61.7979C157.29 61.7979 157.701 61.8641 157.998 61.9636L157.924 62.8749C157.619 62.7341 157.281 62.6761 156.952 62.6761C156.655 62.6761 156.17 62.7009 156.17 63.0903C156.17 63.8028 158.245 63.3223 158.245 64.913C158.245 66.0563 157.29 66.3629 156.318 66.3629C155.906 66.3629 155.404 66.2966 155.008 66.1723L155.107 65.203V65.1947Z" fill="#221714"/>
<path d="M160.946 62.7424H159.867V61.8724H163.194V62.7424H162.115V66.2801H160.946V62.7424Z" fill="#221714"/>
<path d="M164.998 61.8724H166.167V66.2801H164.998V61.8724Z" fill="#221714"/>
<path d="M169.051 62.7424H167.973V61.8724H171.3V62.7424H170.221V66.2801H169.051V62.7424Z" fill="#221714"/>
<path d="M176.834 64.6065C176.834 65.8161 176.051 66.3546 174.915 66.3546C173.778 66.3546 172.996 65.8078 172.996 64.6065V61.8724H174.166V64.4076C174.166 64.9876 174.322 65.4847 174.915 65.4847C175.508 65.4847 175.664 64.9959 175.664 64.4076V61.8724H176.834V64.6065Z" fill="#221714"/>
<path d="M179.6 62.7424H178.521V61.8724H181.849V62.7424H180.77V66.2801H179.6V62.7424Z" fill="#221714"/>
<path d="M183.57 61.8724H186.659V62.7092H184.74V63.6206H186.551V64.4574H184.74V65.4516H186.733V66.2883H183.579V61.8807L183.57 61.8724Z" fill="#221714"/>
<path d="M78.9824 20.8367H74.5762V17.2825H88.1407V20.8367H83.7428V35.2526H78.9824V20.8367Z" fill="#221714"/>
<path d="M107.809 17.2825H113.491C118.944 17.2825 121.505 19.1383 121.505 23.1814C121.505 26.8102 118.869 28.9726 114.414 28.9726H112.569V35.2526H107.809V17.2825ZM112.569 25.5758H113.796C115.435 25.5758 116.736 24.9875 116.736 23.1068C116.736 21.2261 115.435 20.6876 113.796 20.6876H112.569V25.5758Z" fill="#221714"/>
<path d="M141.855 17.2825H146.615V35.2526H141.855V17.2825Z" fill="#221714"/>
<path d="M33.1735 16.0398C37.5766 16.0398 41.1459 12.4491 41.1459 8.01988C41.1459 3.59062 37.5766 0 33.1735 0C28.7705 0 25.2012 3.59062 25.2012 8.01988C25.2012 12.4491 28.7705 16.0398 33.1735 16.0398Z" fill="#60579C"/>
<path d="M63.5739 17.6802L31.7832 22.2535V25.874L45.5949 28.9064L45.4054 47.7547L31.7832 47.9702V66.1557H53.9296L52.0683 46.8185H63.5739V17.6802Z" fill="#D94771"/>
<path d="M0.214134 18.7738L0 48.4424L9.85841 48.3016L6.16871 70H28.6857V48.0033L31.7824 47.9702V25.8326L0.214134 18.7738Z" fill="#38B0AF"/>
<path d="M31.7832 25.8326V47.9702L45.4054 47.7548L45.5949 28.9064L31.7832 25.8326Z" fill="#60579C"/>
<path d="M84.7552 46.9843L83.5116 47.0257H77.401L76.1493 46.9843L76.1328 47.0008L76.1658 47.6885V48.1939L76.1328 48.8815L76.1493 48.8981L77.401 48.8649H83.5116L84.7634 48.8981L84.7799 48.8815L84.7469 48.1939V47.6968L84.7799 47.0008L84.7634 46.9843H84.7552ZM82.9928 48.2436H77.8293V47.6305H82.9928V48.2436Z" fill="#221714"/>
<path d="M76.0428 51.4001V50.1574H84.8141V51.4333H86.4777L86.4201 50.1077L86.4613 49.362L86.4366 49.3372L83.9576 49.3786H76.7017L74.4451 49.3372L74.4368 49.3454L74.4698 50.3148L74.4121 51.4001H76.0428Z" fill="#221714"/>
<path d="M84.3436 54.6645H81.2552V54.0597H82.9106L85.0684 54.1011L85.0849 54.0845V53.3306L85.0684 53.314H84.3601L84.3683 53.3389L82.9188 53.3555H81.2634V52.6844H81.3787C81.5928 52.6595 81.807 52.6512 82.0211 52.6429C82.4329 52.6181 82.8612 52.5932 83.2894 52.5601H83.3388L83.3718 52.5849C83.5365 52.7009 83.693 52.8252 83.8577 52.9495L84.1542 53.1732L85.1507 52.4772V52.4607C84.6154 52.0961 84.1789 51.831 83.6848 51.5907L83.1741 51.3422L84.2695 51.3671V50.6545L82.5647 50.696H78.2985L76.5936 50.6545V51.3505H76.6101L78.0761 51.3339L77.9773 51.5245C77.9278 51.6156 77.8702 51.7067 77.8125 51.7979C77.7878 51.8393 77.7549 51.8807 77.7302 51.9221L77.6972 51.9801H77.6231C76.8901 51.9801 76.0995 51.9719 75.2676 51.9553H75.1523L75.1441 51.9636L75.4735 52.8501L75.5147 52.8666C76.7995 52.8335 78.1667 52.7921 79.4515 52.7341H79.5833V53.3389H77.9855L75.8277 53.2975L75.8112 53.314V54.068L75.8277 54.0845L77.9773 54.0431H79.575V54.6479H76.6348L74.4852 54.6065L74.4688 54.6231V55.667L74.4852 55.6835L76.6348 55.6421H84.3519L86.5097 55.6835L86.5261 55.667V54.6231L86.5097 54.6065L84.3601 54.6479L84.3436 54.6645ZM79.5997 51.9801H79.3774L79.4927 51.7896C79.5338 51.7233 79.575 51.657 79.608 51.5907C79.6492 51.5245 79.6903 51.4499 79.7315 51.3836L79.7645 51.3256H82.5647L81.9882 51.6073C82.0376 51.6322 82.0787 51.657 82.1282 51.6985L82.4741 51.9221H82.0623C81.7328 51.9304 81.4034 51.947 81.0822 51.9553C80.5963 51.9719 80.0939 51.9801 79.5915 51.9801" fill="#221714"/>
<path d="M76.4714 45.2361H79.5598V45.7829H77.5585L75.8619 45.7498H75.8537V46.5203L75.8619 46.5368L77.5585 46.4954H83.4307L85.1356 46.5368L85.1273 45.7498L83.4307 45.7829H81.2729V45.2361H84.3696L86.2062 45.2692L86.198 44.391L84.3696 44.4325H81.2729V43.7945L81.24 43.7697H79.5846L79.5598 43.8028V44.4325H76.4714L74.6348 44.391V44.3993V45.261L74.643 45.2692L76.4714 45.2361Z" fill="#221714"/>
<path d="M100.477 53.2726H95.3137L95.3302 53.1814C95.3549 53.0489 95.3878 52.9329 95.4126 52.8252L95.429 52.7589H99.4808L101.416 52.8003L101.457 52.7672L101.416 51.7233V51.3919L101.457 50.4722L101.416 50.4391L99.4808 50.4805H95.2726L93.5349 50.4391L93.4855 50.4805V51.3753L93.5184 51.4084L95.2643 51.367H99.7361V51.8641H95.1408L94.0949 51.7647L94.0373 51.7978C93.8808 52.7009 93.6255 53.5957 93.1973 54.6976L94.8196 54.8798C94.8937 54.6562 94.9679 54.4407 95.0337 54.2419L95.0584 54.1673H100.329V54.2502C100.304 54.3745 100.28 54.4905 100.255 54.5899C100.206 54.8136 100.024 54.8384 99.7855 54.855C99.1761 54.8798 98.9208 54.8798 98.649 54.8798L99.1514 55.9155C99.1926 56.0066 99.2173 56.0315 99.349 56.0315H99.7196C100.617 56.0315 101.078 55.9238 101.441 55.6338C101.77 55.3687 101.836 54.9461 101.902 54.565V54.5319C101.943 54.3082 102.017 53.8525 102.067 53.2974L102.009 53.2394L100.469 53.2808L100.477 53.2726Z" fill="#221714"/>
<path d="M98.8724 48.3264L97.9995 48.3513H97.283L96.4018 48.3264L96.3524 48.3844L96.3771 48.8649V49.3372L96.3359 50.0414L96.3853 50.0911L97.2583 50.0497H98.0077L98.8889 50.0911L98.9383 50.0414L98.9053 49.5277H98.9136L98.8971 49.2792V48.8732L98.9218 48.3761L98.8724 48.3264ZM97.8842 49.4615H97.3159V48.9064H97.8842V49.4615Z" fill="#221714"/>
<path d="M95.2571 48.1358L95.2324 48.2021C95.356 48.6329 95.4218 49.0969 95.4383 49.5443L95.496 49.5857L96.0807 49.4863L96.1301 49.42C96.0889 48.9395 96.0148 48.5004 95.8912 48.0778L95.8007 48.0447L95.2571 48.1275V48.1358Z" fill="#221714"/>
<path d="M92.9169 51.5079L91.6405 50.7374C91.1052 52.6595 90.6769 53.8277 90.084 55.0373L90.1169 55.1119L91.5581 55.8244L91.6405 55.7747C92.2993 54.1757 92.6287 53.1981 93.0075 51.7399C93.0322 51.6239 93.0075 51.5576 92.9169 51.5079Z" fill="#221714"/>
<path d="M92.9168 48.169C92.8509 48.6164 92.7109 49.1052 92.5215 49.5609L93.1885 49.7928C93.1885 49.7928 93.238 49.8094 93.2462 49.8094C93.2709 49.8094 93.3203 49.8094 93.3615 49.6686C93.518 49.2212 93.6168 48.7903 93.6909 48.3181L93.6497 48.2435L92.9827 48.1193L92.925 48.1607L92.9168 48.169Z" fill="#221714"/>
<path d="M91.6574 46.2386L91.7644 46.222L92.8268 45.0124L92.8103 44.9379C92.2586 44.4988 91.9868 44.3165 91.4268 44.0348L91.3115 44.0514L90.2656 45.145V45.1864C90.8421 45.493 91.1303 45.7332 91.6656 46.2386" fill="#221714"/>
<path d="M102.109 46.2304L101.541 46.4623L101.508 46.5286C101.557 46.628 101.598 46.7192 101.648 46.8103L101.697 46.9097L101.607 46.9263C101.409 46.9512 101.228 46.9677 101.071 46.976H100.923L101.022 46.8683C101.425 46.3795 101.763 45.899 102.191 45.2693L102.167 45.203L101.425 44.7971L101.359 44.8136L101.318 44.8799C101.129 45.203 100.956 45.5096 100.758 45.783L100.717 45.841L100.668 45.7913C100.618 45.7415 100.544 45.6836 100.462 45.609L100.412 45.5676L100.454 45.5179C100.791 45.087 101.03 44.7473 101.351 44.2171L101.327 44.1591L100.511 43.8029L100.445 43.8194C100.281 44.1923 100.091 44.5899 99.803 45.0208L99.7701 45.0705L99.7207 45.0456C99.6713 45.0208 99.6218 44.9876 99.5724 44.9462H99.4901L99.103 45.4599V45.1036L99.0454 45.0539L97.9007 45.0953H97.2336L96.0889 45.0539L96.0312 45.1036V45.8078L96.0889 45.8575L97.2336 45.8161H97.9007L99.0454 45.8575L99.103 45.8078V45.667L99.2018 45.7333C99.5724 45.9818 99.9101 46.2635 100.19 46.5038L100.239 46.5452L100.207 46.5949C100.149 46.6695 100.091 46.7357 100.042 46.8103V46.8269C99.9677 46.9014 99.9101 46.976 99.8524 47.0589L99.836 47.0837H99.8113C99.5724 47.1003 99.3089 47.1003 99.0948 47.1003L99.0454 47.1583L99.276 47.9702L99.3501 48.0034L99.6218 47.9619C99.8771 47.9288 100.099 47.8956 100.314 47.8625L100.388 47.8459V48.8236L100.322 50.0663H101.467L101.401 48.7656V47.672L101.45 47.6554C101.516 47.6388 101.59 47.6222 101.648 47.6057C101.73 47.5891 101.804 47.5725 101.87 47.5477L101.928 47.5311L101.952 47.5808C101.994 47.6885 102.018 47.7879 102.043 47.8874L102.109 47.9122L102.751 47.6471L102.792 47.5725C102.644 47.0754 102.479 46.6943 102.224 46.2552L102.134 46.2386L102.109 46.2304Z" fill="#221714"/>
<path d="M99.6721 49.8094C99.6721 49.8094 99.7462 49.8094 99.7874 49.6686C99.9438 49.2212 100.043 48.7904 100.117 48.3181L100.076 48.2436L99.4744 48.1276L99.4168 48.1607C99.3591 48.4921 99.2521 48.9892 99.0462 49.5029L99.0215 49.5692L99.5815 49.7846C99.6227 49.8094 99.6556 49.8094 99.6803 49.8094" fill="#221714"/>
<path d="M97.2488 44.6976H97.9735L98.8053 44.739L98.8629 44.681V44.0845L98.8053 44.0348L97.9735 44.0679H97.257L96.417 44.0348L96.3594 44.0845V44.681L96.417 44.739L97.2488 44.6976Z" fill="#221714"/>
<path d="M92.6458 45.6255C93.0082 45.8658 93.3458 46.1226 93.7987 46.512L93.8482 46.5534L93.8152 46.6032C93.7576 46.6777 93.6999 46.7523 93.6423 46.8269C93.5846 46.9014 93.5187 46.976 93.4611 47.0588L93.4446 47.0837H93.4117C93.1564 47.1003 92.9011 47.1003 92.6705 47.1003L92.6211 47.1583L92.8517 47.9702L92.9258 48.0033L93.1976 47.9702C93.4529 47.937 93.6752 47.9039 93.8893 47.8708L93.9634 47.8542V48.8318L93.8976 50.0746H95.0423L94.9764 48.7738V47.6802L95.0258 47.6636C95.0917 47.6471 95.1658 47.6305 95.2234 47.6139C95.3058 47.5974 95.3799 47.5808 95.4458 47.5559L95.5034 47.5394L95.5282 47.5891C95.5693 47.6885 95.594 47.7962 95.6187 47.8956L95.6846 47.9205L96.3846 47.6388V47.9122L96.4423 47.9619L97.274 47.9205H97.9905L98.8305 47.9619L98.8882 47.9122V47.3157L98.8305 47.266L97.9987 47.3074H97.2823L96.4423 47.266L96.3105 47.3985L96.2776 47.2991C96.1376 46.8931 95.9976 46.5949 95.8082 46.2718L95.7176 46.2552L95.1493 46.4872L95.1164 46.5534C95.1658 46.6529 95.207 46.744 95.2564 46.8351L95.3058 46.9346H95.2152C95.1329 46.9511 95.0423 46.9594 94.9599 46.9677H94.9352C94.8611 46.976 94.787 46.9926 94.7129 46.9926L94.5646 47.0091L94.6634 46.8931C95.0505 46.4292 95.3964 45.9569 95.8329 45.2941L95.8082 45.2278L95.067 44.8219L95.0011 44.8385L94.9599 44.913C94.7705 45.2361 94.5976 45.5344 94.3999 45.8161L94.3587 45.8741L94.3093 45.8244C94.2599 45.7747 94.1858 45.7167 94.1034 45.6504L94.054 45.609L94.0952 45.5593C94.4329 45.1284 94.6634 44.7887 94.9929 44.2668L94.9682 44.2088L94.1529 43.8525L94.0787 43.8691C93.8811 44.2751 93.6999 44.6562 93.4364 45.0704L93.4035 45.1201L93.354 45.0953C93.3046 45.0704 93.2552 45.0373 93.2058 44.9959H93.1234L92.6623 45.5841V45.6587L92.6458 45.6255Z" fill="#221714"/>
<path d="M97.9735 46.2469H97.257L96.417 46.2054L96.3594 46.2552V46.8517L96.417 46.9097L97.2488 46.8682H97.9735L98.8053 46.9097L98.8629 46.8517V46.2552L98.8053 46.2054L97.9735 46.2469Z" fill="#221714"/>
<path d="M91.6584 49.4698L92.6301 48.2105L92.6054 48.1359C91.9466 47.6802 91.5678 47.4565 91.0901 47.2494L90.9748 47.2742L90.0195 48.4176L90.036 48.4673C90.5548 48.7407 90.9007 48.9727 91.5513 49.4946L91.6584 49.4698Z" fill="#221714"/>
<path d="M102.143 48.0282L101.591 48.2353L101.566 48.3016C101.739 48.7656 101.863 49.1798 101.937 49.5858L102.003 49.6189L102.67 49.4035L102.711 49.3289C102.612 48.9147 102.448 48.4839 102.217 48.0531L102.135 48.0365L102.143 48.0282Z" fill="#221714"/>
<path d="M110.904 45.1367C110.929 45.0704 110.945 44.9958 110.962 44.9296C110.921 45.0704 110.879 45.2195 110.83 45.3521C110.855 45.2858 110.879 45.2195 110.896 45.1533C110.896 45.1533 110.896 45.1367 110.896 45.1284" fill="#221714"/>
<path d="M110.773 45.551L110.74 45.6338H108.409L106.309 45.5924V47.0174H106.317L108.409 46.9843H110.122L110.015 47.1831C109.093 48.8153 107.915 49.9669 106.07 51.0522L107.075 52.1293C107.075 52.1293 107.141 52.2121 107.157 52.2204C107.174 52.2204 107.19 52.2121 107.207 52.1956C107.685 51.889 108.146 51.5576 108.574 51.2345L108.78 51.0688V52.295L108.731 54.9793H110.394V50.6297H112.288V52.5684L112.239 55.9652H114.002L113.936 52.5684V50.6214H115.986V52.8998C115.986 53.2312 115.863 53.3638 115.542 53.3803C115.245 53.3886 114.957 53.4052 114.66 53.3969L115.146 54.7805C115.163 54.8412 115.223 54.8716 115.327 54.8716C116.53 54.8716 117.139 54.7556 117.419 54.4574C117.601 54.2668 117.675 53.9851 117.666 53.5212L117.642 52.0216V50.8865L117.683 49.2875L117.666 49.271L115.665 49.3124H113.936V47.6885L113.903 47.6637H112.305L112.28 47.6968V49.3207H110.485L110.633 49.1135C111.053 48.5584 111.44 47.9205 111.885 47.0506L111.918 46.976H116.579L118.531 47.0174L118.548 47.0009V45.5841L116.579 45.6256H112.453L112.511 45.4599C112.684 44.9379 112.816 44.4657 112.906 44.0183L112.89 44.0017L111.226 43.8029L111.201 43.8194C111.119 44.3 111.012 44.7308 110.888 45.1367C110.888 45.1367 110.888 45.1533 110.888 45.1616C110.847 45.2942 110.814 45.4267 110.773 45.551Z" fill="#221714"/>
<path d="M111.07 44.4988C111.103 44.358 111.128 44.2171 111.161 44.068C111.136 44.2171 111.103 44.358 111.07 44.4988Z" fill="#221714"/>
<path d="M131.379 53.3141H131.395L131.568 53.1898C131.98 52.9081 132.367 52.6098 132.828 52.2536L131.502 51.3339V51.3505L131.329 51.5576C131.074 51.889 130.794 52.2039 130.489 52.4938L130.399 52.585L130.3 52.4938C130.012 52.2204 129.74 51.9056 129.484 51.5493L129.328 51.3339H132.425L134.245 51.3754H134.253V50.0912H134.245L132.433 50.116H128.949V48.8816H128.941L127.442 48.8733L127.425 48.8899V50.1243H124.238L122.434 50.0829H122.418V51.3588L122.434 51.3754L124.23 51.3339H126.264L126.223 51.3505L125.729 51.5908C124.765 52.063 123.67 52.4027 122.113 52.8418L123.167 53.8857C123.217 53.9354 123.242 53.9437 123.25 53.952C123.266 53.952 123.307 53.9354 123.34 53.9189C124.016 53.7366 124.675 53.5046 125.301 53.2312L125.49 53.1484V54.2503H125.482L125.366 54.2585C124.798 54.3165 124.189 54.3497 123.67 54.3828L124.189 55.8741H124.213C126.347 55.551 127.977 55.261 129.501 54.9628C129.592 54.9462 129.608 54.9296 129.616 54.8385L129.707 53.894L129.723 53.9106L129.913 54.0763C130.843 54.8965 131.922 55.4682 133.215 55.8161C133.248 55.8161 133.281 55.7996 133.298 55.7664L134.426 54.3745C133.306 54.1591 132.383 53.8526 131.601 53.4218L131.403 53.3141H131.379ZM129.254 53.7449C128.562 53.8691 127.92 53.9603 127.145 54.0597L126.989 54.0763V52.3613L127.178 52.237C127.425 52.0796 127.656 51.9387 127.887 51.773L128.01 51.6819L128.084 51.8145C128.43 52.4441 128.834 52.9992 129.311 53.5046L129.484 53.6869L129.237 53.7366L129.254 53.7449Z" fill="#221714"/>
<path d="M128.258 46.0729H128.234L126.175 46.2883L126.158 46.3049L126.389 47.6057H126.414L128.711 47.2328L128.752 47.3157C129.296 48.3927 130.062 49.0804 131.165 49.4781C131.61 49.6438 132.079 49.7183 132.631 49.7183C133.348 49.7183 134.105 49.5361 134.369 48.1939C134.385 48.0945 134.385 48.0613 134.262 47.9868L133.068 47.2411C132.936 47.9619 132.837 48.227 132.45 48.227C131.676 48.227 131.017 47.8708 130.506 47.1748L130.375 47.0008L131.388 46.8683L133.521 46.6114L133.578 46.5452L133.372 45.3521L133.306 45.3107L131.289 45.6587H131.305L131.132 45.6752L129.856 45.8409L129.823 45.7415C129.658 45.2196 129.526 44.6148 129.436 43.9437L129.411 43.9188L127.789 43.9934V44.01C127.921 44.7556 128.061 45.3853 128.217 45.9238L128.258 46.0729Z" fill="#221714"/>
<path d="M123.136 47.995C123.136 47.995 123.218 47.9784 123.301 47.937C123.358 47.8956 123.424 47.8541 123.49 47.8127C123.622 47.7299 123.754 47.647 123.885 47.5476L124.091 47.3985L124.017 49.5443H125.59V46.1391L125.631 46.0977C126.043 45.6917 126.455 45.2361 126.875 44.7141V44.6893L125.475 43.8856H125.458C124.602 45.1864 123.457 46.2551 122.049 47.0836L123.021 47.9287C123.078 47.9784 123.111 47.9867 123.136 47.9867" fill="#221714"/>
<path d="M131.454 45.5427L132.558 44.7805C132.253 44.5071 131.874 44.2502 131.314 43.9271H131.24L130.252 44.6562C130.738 44.9462 131.092 45.203 131.339 45.4433L131.454 45.551V45.5427Z" fill="#221714"/>
<path d="M149.68 52.5187C149.532 53.9851 149.326 54.1094 149.136 54.1094C148.947 54.1094 148.832 53.8691 148.535 52.9826L148.519 52.9246L148.552 52.8749C149.038 52.1293 149.491 51.2428 150.034 50.0166L150.018 49.9835L148.782 49.271C148.618 49.7515 148.428 50.2154 148.239 50.6463L148.057 51.0522L147.992 50.6131C147.909 50.0829 147.876 49.5278 147.852 49.039L147.827 48.5916L148.963 48.4425L150.298 48.3016L150.322 48.2768L150.174 47.0009L150.158 46.9843L148.832 47.1831L147.794 47.3074V47.2743L147.777 45.0622V43.894L147.761 43.8774H146.295L146.279 43.894C146.295 45.2362 146.32 46.4043 146.344 47.3571V47.4814H146.32L145.109 47.5891L145.315 47.2411C145.397 47.1003 145.488 46.9429 145.57 46.7855C145.628 46.6695 145.636 46.6115 145.636 46.5866C145.636 46.5286 145.603 46.4789 145.513 46.3712L144.961 45.7747L143.692 45.841H142.399V45.1616H143.314L144.722 45.203V44.3L143.322 44.3331H142.408V43.7531L142.391 43.7366H141.04L141.016 43.7614V45.8492H139.986L138.454 45.8078L138.496 47.498V49.4118C138.496 51.7067 138.364 53.488 137.746 54.7473L138.825 55.7581C138.866 55.7995 138.899 55.8078 138.916 55.8161C138.916 55.8161 138.932 55.7995 138.949 55.7664C139.08 55.4847 139.196 55.1864 139.303 54.8799L139.369 54.6893V54.6728L139.41 54.5319C139.739 53.3306 139.838 52.0961 139.887 51.0439V50.9197H139.92L140.736 50.9031H143.981L145.422 50.9445H145.43V49.9669H145.422L143.981 50H140.736L139.912 49.9835L139.929 48.2933H139.953L140.909 48.169L140.876 48.7076C140.876 49.3041 140.95 49.4947 142.498 49.4947C143.882 49.4947 144.22 49.4367 144.401 49.3124C144.656 49.1467 144.788 48.7904 144.837 48.517C144.837 48.517 144.837 48.4922 144.837 48.4839C144.829 48.4839 144.813 48.4756 144.796 48.4673L143.816 48.1111C143.701 48.5916 143.478 48.6164 142.745 48.6164C142.35 48.6164 142.193 48.5999 142.193 48.2519L142.21 48.0365L143.61 47.9205L143.577 47.6885L143.528 47.1251L142.202 47.2908V46.686H144.187L144.08 46.918C144.022 47.0423 143.948 47.1997 143.857 47.3405L144.936 47.7465C144.936 47.7465 144.994 47.7714 145.01 47.7797L145.183 47.6719L145.2 47.8874L145.323 48.9478L145.34 48.9644L146.46 48.7987L146.468 48.9396C146.526 50 146.624 51.2428 146.904 52.4358L146.921 52.5021L146.88 52.5518C146.369 53.1898 145.85 53.7449 145.298 54.2337L145.265 54.2585H145.191C144.862 54.3165 144.524 54.3662 144.187 54.4077L143.956 54.4325L144.055 54.2171C144.129 54.0514 144.203 53.8774 144.261 53.7283L144.302 53.6289H144.318L144.771 53.6454H144.788L144.747 52.8169V52.1956L144.78 51.4333L143.742 51.4665H141.345L140.324 51.4333L140.349 52.1956V52.7755L140.307 53.6454L140.62 53.6289L140.653 53.7117C140.752 53.952 140.851 54.2171 140.925 54.4988L140.966 54.6479L140.727 54.6645C140.349 54.6894 139.953 54.7142 139.566 54.7225H139.525L139.871 55.7995H139.887C141.708 55.6587 143.47 55.4681 144.607 55.2942H144.673V55.2859L145.331 55.9404C145.447 56.0481 145.447 56.0564 145.562 55.9735C146.27 55.435 146.789 54.9379 147.308 54.3248L147.448 54.1674L147.53 54.3579C148.082 55.6421 148.601 55.9072 149.219 55.9072C149.894 55.9072 150.396 55.5096 150.644 53.546C150.652 53.4466 150.644 53.4217 150.536 53.314L149.738 52.527L149.68 52.5187ZM140.876 47.4068L139.887 47.498V46.6777H140.876V47.4068ZM142.984 53.604L142.959 53.7531C142.918 53.9851 142.861 54.2337 142.811 54.4242L142.786 54.5154H142.77L142.045 54.5651L142.012 54.4491C141.946 54.2254 141.889 54.0017 141.798 53.7697L141.724 53.5874H142.984V53.604ZM143.478 52.8584H141.477V52.2204H143.478V52.8584Z" fill="#221714"/>
<path d="M148.88 46.6446L150.049 45.9653C149.704 45.4267 149.391 45.0373 148.995 44.6479H148.946L147.908 45.2279L147.991 45.3273C148.287 45.667 148.575 46.0978 148.864 46.6446" fill="#221714"/>
<path d="M157.397 44.565C157.397 44.565 157.405 44.5319 157.413 44.5153L157.496 44.1839C157.496 44.1839 157.496 44.159 157.496 44.1507V44.1176V44.0928L155.939 43.7614H155.914C155.552 45.9569 154.844 47.9701 153.814 49.768L154.292 51.5244C154.292 51.5244 154.3 51.5493 154.309 51.5575C154.333 51.5575 154.358 51.5327 154.383 51.4995C154.605 51.1681 154.72 50.9279 154.918 50.4888L155.165 49.9337V52.0629L155.099 55.9569H156.697V46.9097C156.903 46.3214 157.092 45.7083 157.273 45.029L157.232 45.0704L157.397 44.565Z" fill="#221714"/>
<path d="M164.24 52.4275V51.4581H164.364C164.421 51.4581 164.471 51.4581 164.52 51.4581C164.57 51.4581 164.619 51.4581 164.668 51.4581H164.734L164.776 51.5078C164.899 51.6818 165.014 51.8641 165.146 52.0795H165.204L166.266 51.4001V51.3753C166.036 51.019 165.739 50.6462 165.393 50.2651L165.204 50.058H165.566L165.583 50.0414L165.517 48.6661V47.7713L165.558 46.3546L165.541 46.338L163.894 46.3794H162.412V45.6835H164.57L166.274 45.7249V44.6893L164.57 44.7307H162.412V43.8276H160.963V44.739H159.233L157.66 44.6976V45.7249L159.225 45.6918H160.954V46.3877H159.645L158.023 46.3463L158.006 46.3628L158.047 47.7796V48.6661L157.981 50.0497L157.998 50.0662L159.513 50.0248H160.954V50.729H160.831C159.554 50.7622 158.377 50.7705 157.347 50.7622L157.331 50.7788L157.603 51.8889H157.636C159.365 51.8227 160.831 51.7398 162.626 51.6238H162.758V52.444H159.077L157.24 52.4026V53.5459H157.257L160.304 53.5211H162.766V54.1425C162.766 54.507 162.651 54.6561 162.346 54.6727H162.264C162.033 54.6976 161.819 54.7224 161.498 54.7224L162.05 55.8989C162.077 55.9541 162.154 55.9817 162.28 55.9817C164.125 55.9817 164.306 55.5841 164.306 54.5981L164.273 53.5211H164.496L166.365 53.5625V52.4109L164.257 52.4523L164.24 52.4275ZM164.043 47.1499L164.01 47.8127H162.371V47.1499H164.051H164.043ZM162.363 48.5501H164.043V49.2129H162.363V48.5501ZM161.004 49.2129H159.439V48.5501H161.004V49.2129ZM159.406 47.8127L159.439 47.1499H161.004V47.8127H159.406ZM163.845 50.5799C163.54 50.6048 163.244 50.6213 162.947 50.6379C162.799 50.6379 162.643 50.6545 162.486 50.6628H162.354V50.0082H163.738L163.697 50.1408C163.779 50.2237 163.853 50.2982 163.927 50.3811L164.092 50.5716L163.845 50.5965V50.5799Z" fill="#221714"/>
<path d="M160.205 53.7199L160.049 53.5791L158.682 54.1922C159.06 54.5733 159.448 55.0953 159.736 55.6006L161.169 54.8219C160.856 54.3745 160.469 53.9768 160.197 53.7199" fill="#221714"/>
<path d="M171.999 47.1334L173.078 46.3132C172.749 45.8823 172.568 45.6835 172.288 45.4764L172.065 45.3107L171.061 46.0066C171.406 46.338 171.695 46.686 171.983 47.1085L171.999 47.1334Z" fill="#221714"/>
<path d="M181.922 45.3605L181.963 44.0846L181.947 44.068L180.333 44.1094H177.928L176.495 44.0763V45.2776L178.282 45.2362H178.266L180.366 45.2445V46.6032L180.283 46.6363C179.69 46.8269 179.089 47.0175 178.488 47.1832L178.035 47.3157C177.409 47.4897 176.866 47.6305 176.363 47.7548L176.973 48.9893H177.006C178.134 48.633 179.204 48.3016 180.201 47.9205L180.374 47.8542V48.3431C180.374 48.6082 180.275 48.7242 180.044 48.749C179.814 48.7739 179.567 48.7822 179.27 48.7904L179.657 49.7681C179.707 49.8841 179.707 49.8924 179.855 49.8924C181.477 49.8924 181.996 49.5444 181.996 48.4756L181.93 46.6695V45.3605H181.922Z" fill="#221714"/>
<path d="M180.664 51.8559L180.705 50.5054V50.4889L178.918 50.5303H176.497L176.612 50.3315C176.752 50.0912 176.884 49.8675 176.999 49.6521L175.673 49.3124L175.723 49.1716C175.789 48.9976 175.822 48.7739 175.822 48.459L175.756 46.6032V45.3605L175.797 44.0846L175.78 44.068L174.174 44.1094H171.769L170.361 44.0763V45.2776H170.369L172.181 45.2362H172.165L174.24 45.2445V46.5784L174.158 46.6115C173.787 46.744 173.392 46.8683 173.046 46.976C172.815 47.0506 172.593 47.1169 172.371 47.1914L171.629 47.4317L171.687 47.382C171.218 47.5146 170.691 47.6554 170.023 47.8211L170.616 49.0473H170.649C171.794 48.691 172.906 48.2851 174.051 47.8045L174.232 47.73V48.3265C174.232 48.5916 174.133 48.7076 173.903 48.7325C173.68 48.7573 173.433 48.7656 173.137 48.7739L173.532 49.8095C173.573 49.9255 173.581 49.9338 173.73 49.9338C174.306 49.9338 174.669 49.9006 174.94 49.8178L175.204 49.7432L175.097 49.9918C175.031 50.1492 174.965 50.3149 174.883 50.4723L174.85 50.5469H173.631L171.86 50.5054L171.901 51.8642V53.3886L171.835 55.9155H173.441V55.3687H179.05V55.8493H180.738L180.672 53.4466V51.8642L180.664 51.8559ZM179.042 54.3331H173.433V53.4715H179.042V54.3331ZM179.042 52.4607H173.433V51.5908H179.042V52.4607Z" fill="#221714"/>
<path d="M178.101 47.1085L178.117 47.1334L179.213 46.3132C178.949 45.9818 178.702 45.7166 178.381 45.4764L178.159 45.3107L177.162 45.9983C177.467 46.2883 177.73 46.5783 178.093 47.1002" fill="#221714"/>
<path d="M197.324 47.7133L197.348 46.2137L197.332 46.1972L195.405 46.222H192.687V43.7945L192.67 43.778H190.99L190.974 43.7945V46.222H188.437L186.51 46.1806L186.493 46.1972L186.535 47.705V49.1963L186.469 52.1955H188.182V51.425H190.982V52.2784L190.916 55.9569H192.761L192.695 51.425H195.627V52.0878H197.39L197.324 49.1549V47.705V47.7133ZM190.974 50.116H188.174V47.5311H190.974V50.116ZM195.619 50.116H192.687V47.5311H195.619V50.116Z" fill="#221714"/>
<path d="M208.468 46.9428H208.485L209.778 45.8326V45.8078C209.185 45.1615 208.509 44.5982 207.661 44.0265H207.604L206.385 44.971C207.118 45.5509 207.826 46.1392 208.46 46.9345" fill="#221714"/>
<path d="M211.531 52.7673L210.016 52.1707C209.933 53.1235 209.826 53.4963 209.563 53.72C209.258 53.952 208.904 53.9934 207.973 53.9934C207.043 53.9934 206.919 53.8526 206.919 53.3969V47.382L206.886 47.3406H205.272L205.247 47.3654V51.5742L205.223 54.1923C205.223 55.1368 205.453 55.4682 208.047 55.4682C209.999 55.4682 210.493 55.3107 210.93 54.9379C211.284 54.6397 211.481 54.068 211.613 52.8998C211.619 52.8391 211.594 52.7949 211.539 52.7673" fill="#221714"/>
<path d="M211.664 47.7051H211.615L210.33 48.517V48.5418C211.219 49.7349 211.887 50.8616 212.628 52.4441H212.652L214.11 51.5493V51.5079C213.484 50.1574 212.727 48.981 211.672 47.6968" fill="#221714"/>
<path d="M202.899 48.749H202.883C202.644 50.2486 202.166 51.7565 201.59 52.9081V52.933L203.089 53.5958H203.122C203.665 52.3447 204.052 51.0274 204.382 49.329L204.365 49.271L202.907 48.749H202.899Z" fill="#221714"/>
</g>
<defs>
<clipPath id="clip0_27_1880">
<rect width="214.118" height="70" fill="white"/>
</clipPath>
</defs>
</svg>
