<svg width="223" height="78" viewBox="0 0 223 78" fill="none" xmlns="http://www.w3.org/2000/svg">
<g clip-path="url(#clip0_27_2569)" filter="url(#filter0_d_27_2569)">
<path d="M79.2429 62.6678H78.1641V61.7979H81.4911V62.6678H80.4123V66.2055H79.2429V62.6678Z" fill="white"/>
<path d="M84.078 61.7979H85.511L87.1992 66.2055H85.9145L85.5851 65.261H83.938L83.5921 66.2055H82.4062L84.0698 61.7979H84.078ZM84.7945 62.7092H84.778L84.2098 64.4325H85.3051L84.7862 62.7092H84.7945Z" fill="white"/>
<path d="M88.9785 61.7979H90.1479V66.2055H88.9785V61.7979Z" fill="white"/>
<path d="M91.9268 61.7979H93.1209L93.6891 65.1864H93.7056L94.2985 61.7979H95.7809L96.3985 65.1864H96.415L96.9832 61.7979H98.1197L97.1397 66.2055H95.6409L95.0232 62.8169H95.0068L94.4303 66.2055H92.915L91.9432 61.7979H91.9268Z" fill="white"/>
<path d="M101.019 61.7979H102.452L104.141 66.2055H102.856L102.526 65.261H100.879L100.534 66.2055H99.3477L101.011 61.7979H101.019ZM101.736 62.7092H101.719L101.151 64.4325H102.246L101.728 62.7092H101.736Z" fill="white"/>
<path d="M105.879 61.7979H107.369L108.852 64.7887H108.868L108.852 61.7979H109.922V66.2055H108.473L106.941 63.1897H106.925L106.966 66.2055H105.895V61.7979H105.879Z" fill="white"/>
<path d="M115.853 61.8724H117.244C118.578 61.8724 119.213 62.3281 119.213 63.3223C119.213 64.2088 118.562 64.7473 117.475 64.7473H117.022V66.2883H115.853V61.8807V61.8724ZM117.022 63.9023H117.327C117.73 63.9023 118.051 63.7531 118.051 63.2975C118.051 62.8418 117.73 62.7009 117.327 62.7009H117.022V63.9023Z" fill="white"/>
<path d="M123.05 61.7979C124.492 61.7979 125.249 62.6595 125.249 64.0762C125.249 65.493 124.483 66.3546 123.05 66.3546C121.617 66.3546 120.852 65.4764 120.852 64.0762C120.852 62.6761 121.601 61.7979 123.05 61.7979ZM123.05 65.4847C123.759 65.4847 124.039 64.8053 124.039 64.0762C124.039 63.314 123.759 62.6678 123.05 62.6678C122.342 62.6678 122.062 63.314 122.062 64.0762C122.062 64.8384 122.342 65.4847 123.05 65.4847Z" fill="white"/>
<path d="M127.918 62.7424H126.839V61.8724H130.166V62.7424H129.087V66.2801H127.918V62.7424Z" fill="white"/>
<path d="M131.879 61.8724H134.967V62.7092H133.048V63.6206H134.86V64.4574H133.048V65.4516H135.041V66.2883H131.887V61.8807L131.879 61.8724Z" fill="white"/>
<path d="M137.01 61.8724H138.179V63.5626H139.563V61.8724H140.732V66.2801H139.563V64.3911H138.179V66.2801H137.01V61.8724Z" fill="white"/>
<path d="M142.866 61.8724H144.036V66.2801H142.866V61.8724Z" fill="white"/>
<path d="M37.1745 16.0398C41.5775 16.0398 45.1469 12.4491 45.1469 8.01988C45.1469 3.59062 41.5775 0 37.1745 0C32.7715 0 29.2021 3.59062 29.2021 8.01988C29.2021 12.4491 32.7715 16.0398 37.1745 16.0398Z" fill="#60579C"/>
<path d="M67.5729 17.6802L35.7822 22.2535V25.874L49.5939 28.9064L49.4045 47.7547L35.7822 47.9702V66.1557H57.9286L56.0673 46.8185H67.5729V17.6802Z" fill="#D94771"/>
<path d="M4.21413 18.7738L4 48.4424L13.8584 48.3016L10.1687 70H32.6857V48.0033L35.7824 47.9702V25.8326L4.21413 18.7738Z" fill="#38B0AF"/>
<path d="M35.7822 25.8326V47.9702L49.4045 47.7548L49.5939 28.9064L35.7822 25.8326Z" fill="#60579C"/>
<path d="M114.905 45.1367C114.93 45.0704 114.946 44.9958 114.963 44.9296C114.922 45.0704 114.88 45.2195 114.831 45.3521C114.856 45.2858 114.88 45.2195 114.897 45.1533C114.897 45.1533 114.897 45.1367 114.897 45.1284" fill="white"/>
<path d="M114.773 45.551L114.74 45.6338H112.409L110.309 45.5924V47.0174H110.317L112.409 46.9843H114.122L114.015 47.1831C113.093 48.8153 111.915 49.9669 110.07 51.0522L111.075 52.1293C111.075 52.1293 111.141 52.2121 111.157 52.2204C111.174 52.2204 111.19 52.2121 111.207 52.1956C111.685 51.889 112.146 51.5576 112.574 51.2345L112.78 51.0688V52.295L112.731 54.9793H114.394V50.6297H116.288V52.5684L116.239 55.9652H118.002L117.936 52.5684V50.6214H119.986V52.8998C119.986 53.2312 119.863 53.3638 119.542 53.3803C119.245 53.3886 118.957 53.4052 118.66 53.3969L119.146 54.7805C119.163 54.8412 119.223 54.8716 119.327 54.8716C120.53 54.8716 121.139 54.7556 121.419 54.4574C121.601 54.2668 121.675 53.9851 121.666 53.5212L121.642 52.0216V50.8865L121.683 49.2875L121.666 49.271L119.665 49.3124H117.936V47.6885L117.903 47.6637H116.305L116.28 47.6968V49.3207H114.485L114.633 49.1135C115.053 48.5584 115.44 47.9205 115.885 47.0506L115.918 46.976H120.579L122.531 47.0174L122.548 47.0009V45.5841L120.579 45.6256H116.453L116.511 45.4599C116.684 44.9379 116.816 44.4657 116.906 44.0183L116.89 44.0017L115.226 43.8029L115.201 43.8194C115.119 44.3 115.012 44.7308 114.888 45.1367C114.888 45.1367 114.888 45.1533 114.888 45.1616C114.847 45.2942 114.814 45.4267 114.773 45.551Z" fill="white"/>
<path d="M115.069 44.4988C115.102 44.358 115.127 44.2171 115.16 44.068C115.135 44.2171 115.102 44.358 115.069 44.4988Z" fill="white"/>
<path d="M135.38 53.3141H135.396L135.569 53.1898C135.981 52.9081 136.368 52.6098 136.829 52.2536L135.503 51.3339V51.3505L135.33 51.5576C135.075 51.889 134.795 52.2039 134.49 52.4938L134.4 52.585L134.301 52.4938C134.013 52.2204 133.741 51.9056 133.485 51.5493L133.329 51.3339H136.426L138.246 51.3754H138.254V50.0912H138.246L136.434 50.116H132.95V48.8816H132.942L131.443 48.8733L131.426 48.8899V50.1243H128.239L126.435 50.0829H126.419V51.3588L126.435 51.3754L128.231 51.3339H130.265L130.224 51.3505L129.73 51.5908C128.766 52.063 127.671 52.4027 126.114 52.8418L127.168 53.8857C127.218 53.9354 127.243 53.9437 127.251 53.952C127.267 53.952 127.308 53.9354 127.341 53.9189C128.017 53.7366 128.676 53.5046 129.302 53.2312L129.491 53.1484V54.2503H129.483L129.367 54.2585C128.799 54.3165 128.19 54.3497 127.671 54.3828L128.19 55.8741H128.214C130.348 55.551 131.978 55.261 133.502 54.9628C133.592 54.9462 133.609 54.9296 133.617 54.8385L133.708 53.894L133.724 53.9106L133.914 54.0763C134.844 54.8965 135.923 55.4682 137.216 55.8161C137.249 55.8161 137.282 55.7996 137.299 55.7664L138.427 54.3745C137.307 54.1591 136.384 53.8526 135.602 53.4218L135.404 53.3141H135.38ZM133.255 53.7449C132.563 53.8691 131.921 53.9603 131.146 54.0597L130.99 54.0763V52.3613L131.179 52.237C131.426 52.0796 131.657 51.9387 131.888 51.773L132.011 51.6819L132.085 51.8145C132.431 52.4441 132.835 52.9992 133.312 53.5046L133.485 53.6869L133.238 53.7366L133.255 53.7449Z" fill="white"/>
<path d="M132.258 46.0729H132.234L130.175 46.2883L130.158 46.3049L130.389 47.6057H130.414L132.711 47.2328L132.752 47.3157C133.296 48.3927 134.062 49.0804 135.165 49.4781C135.61 49.6438 136.079 49.7183 136.631 49.7183C137.348 49.7183 138.105 49.5361 138.369 48.1939C138.385 48.0945 138.385 48.0613 138.262 47.9868L137.068 47.2411C136.936 47.9619 136.837 48.227 136.45 48.227C135.676 48.227 135.017 47.8708 134.506 47.1748L134.375 47.0008L135.388 46.8683L137.521 46.6114L137.578 46.5452L137.372 45.3521L137.306 45.3107L135.289 45.6587H135.305L135.132 45.6752L133.856 45.8409L133.823 45.7415C133.658 45.2196 133.526 44.6148 133.436 43.9437L133.411 43.9188L131.789 43.9934V44.01C131.921 44.7556 132.061 45.3853 132.217 45.9238L132.258 46.0729Z" fill="white"/>
<path d="M127.135 47.995C127.135 47.995 127.217 47.9784 127.3 47.937C127.357 47.8956 127.423 47.8541 127.489 47.8127C127.621 47.7299 127.753 47.647 127.884 47.5476L128.09 47.3985L128.016 49.5443H129.589V46.1391L129.63 46.0977C130.042 45.6917 130.454 45.2361 130.874 44.7141V44.6893L129.474 43.8856H129.457C128.601 45.1864 127.456 46.2551 126.048 47.0836L127.02 47.9287C127.077 47.9784 127.11 47.9867 127.135 47.9867" fill="white"/>
<path d="M135.453 45.5427L136.557 44.7805C136.252 44.5071 135.873 44.2502 135.313 43.9271H135.239L134.251 44.6562C134.737 44.9462 135.091 45.203 135.338 45.4433L135.453 45.551V45.5427Z" fill="white"/>
<path d="M153.68 52.5187C153.532 53.9851 153.326 54.1094 153.136 54.1094C152.947 54.1094 152.832 53.8691 152.535 52.9826L152.519 52.9246L152.552 52.8749C153.038 52.1293 153.491 51.2428 154.034 50.0166L154.018 49.9835L152.782 49.271C152.618 49.7515 152.428 50.2154 152.239 50.6463L152.057 51.0522L151.992 50.6131C151.909 50.0829 151.876 49.5278 151.852 49.039L151.827 48.5916L152.963 48.4425L154.298 48.3016L154.322 48.2768L154.174 47.0009L154.158 46.9843L152.832 47.1831L151.794 47.3074V47.2743L151.777 45.0622V43.894L151.761 43.8774H150.295L150.279 43.894C150.295 45.2362 150.32 46.4043 150.344 47.3571V47.4814H150.32L149.109 47.5891L149.315 47.2411C149.397 47.1003 149.488 46.9429 149.57 46.7855C149.628 46.6695 149.636 46.6115 149.636 46.5866C149.636 46.5286 149.603 46.4789 149.513 46.3712L148.961 45.7747L147.692 45.841H146.399V45.1616H147.314L148.722 45.203V44.3L147.322 44.3331H146.408V43.7531L146.391 43.7366H145.04L145.016 43.7614V45.8492H143.986L142.454 45.8078L142.496 47.498V49.4118C142.496 51.7067 142.364 53.488 141.746 54.7473L142.825 55.7581C142.866 55.7995 142.899 55.8078 142.916 55.8161C142.916 55.8161 142.932 55.7995 142.949 55.7664C143.08 55.4847 143.196 55.1864 143.303 54.8799L143.369 54.6893V54.6728L143.41 54.5319C143.739 53.3306 143.838 52.0961 143.887 51.0439V50.9197H143.92L144.736 50.9031H147.981L149.422 50.9445H149.43V49.9669H149.422L147.981 50H144.736L143.912 49.9835L143.929 48.2933H143.953L144.909 48.169L144.876 48.7076C144.876 49.3041 144.95 49.4947 146.498 49.4947C147.882 49.4947 148.22 49.4367 148.401 49.3124C148.656 49.1467 148.788 48.7904 148.837 48.517C148.837 48.517 148.837 48.4922 148.837 48.4839C148.829 48.4839 148.813 48.4756 148.796 48.4673L147.816 48.1111C147.701 48.5916 147.478 48.6164 146.745 48.6164C146.35 48.6164 146.193 48.5999 146.193 48.2519L146.21 48.0365L147.61 47.9205L147.577 47.6885L147.528 47.1251L146.202 47.2908V46.686H148.187L148.08 46.918C148.022 47.0423 147.948 47.1997 147.857 47.3405L148.936 47.7465C148.936 47.7465 148.994 47.7714 149.01 47.7797L149.183 47.6719L149.2 47.8874L149.323 48.9478L149.34 48.9644L150.46 48.7987L150.468 48.9396C150.526 50 150.624 51.2428 150.904 52.4358L150.921 52.5021L150.88 52.5518C150.369 53.1898 149.85 53.7449 149.298 54.2337L149.265 54.2585H149.191C148.862 54.3165 148.524 54.3662 148.187 54.4077L147.956 54.4325L148.055 54.2171C148.129 54.0514 148.203 53.8774 148.261 53.7283L148.302 53.6289H148.318L148.771 53.6454H148.788L148.747 52.8169V52.1956L148.78 51.4333L147.742 51.4665H145.345L144.324 51.4333L144.349 52.1956V52.7755L144.307 53.6454L144.62 53.6289L144.653 53.7117C144.752 53.952 144.851 54.2171 144.925 54.4988L144.966 54.6479L144.727 54.6645C144.349 54.6894 143.953 54.7142 143.566 54.7225H143.525L143.871 55.7995H143.887C145.708 55.6587 147.47 55.4681 148.607 55.2942H148.673V55.2859L149.331 55.9404C149.447 56.0481 149.447 56.0564 149.562 55.9735C150.27 55.435 150.789 54.9379 151.308 54.3248L151.448 54.1674L151.53 54.3579C152.082 55.6421 152.601 55.9072 153.219 55.9072C153.894 55.9072 154.396 55.5096 154.644 53.546C154.652 53.4466 154.644 53.4217 154.536 53.314L153.738 52.527L153.68 52.5187ZM144.876 47.4068L143.887 47.498V46.6777H144.876V47.4068ZM146.984 53.604L146.959 53.7531C146.918 53.9851 146.861 54.2337 146.811 54.4242L146.786 54.5154H146.77L146.045 54.5651L146.012 54.4491C145.946 54.2254 145.889 54.0017 145.798 53.7697L145.724 53.5874H146.984V53.604ZM147.478 52.8584H145.477V52.2204H147.478V52.8584Z" fill="white"/>
<path d="M152.881 46.6446L154.05 45.9653C153.704 45.4267 153.392 45.0373 152.996 44.6479H152.947L151.909 45.2279L151.992 45.3273C152.288 45.667 152.576 46.0978 152.864 46.6446" fill="white"/>
<path d="M161.397 44.565C161.397 44.565 161.405 44.5319 161.413 44.5153L161.496 44.1839C161.496 44.1839 161.496 44.159 161.496 44.1507V44.1176V44.0928L159.939 43.7614H159.914C159.552 45.9569 158.844 47.9701 157.814 49.768L158.292 51.5244C158.292 51.5244 158.3 51.5493 158.309 51.5575C158.333 51.5575 158.358 51.5327 158.383 51.4995C158.605 51.1681 158.72 50.9279 158.918 50.4888L159.165 49.9337V52.0629L159.099 55.9569H160.697V46.9097C160.903 46.3214 161.092 45.7083 161.273 45.029L161.232 45.0704L161.397 44.565Z" fill="white"/>
<path d="M168.24 52.4275V51.4581H168.364C168.421 51.4581 168.471 51.4581 168.52 51.4581C168.57 51.4581 168.619 51.4581 168.668 51.4581H168.734L168.776 51.5078C168.899 51.6818 169.014 51.8641 169.146 52.0795H169.204L170.266 51.4001V51.3753C170.036 51.019 169.739 50.6462 169.393 50.2651L169.204 50.058H169.566L169.583 50.0414L169.517 48.6661V47.7713L169.558 46.3546L169.541 46.338L167.894 46.3794H166.412V45.6835H168.57L170.274 45.7249V44.6893L168.57 44.7307H166.412V43.8276H164.963V44.739H163.233L161.66 44.6976V45.7249L163.225 45.6918H164.954V46.3877H163.645L162.023 46.3463L162.006 46.3628L162.047 47.7796V48.6661L161.981 50.0497L161.998 50.0662L163.513 50.0248H164.954V50.729H164.831C163.554 50.7622 162.377 50.7705 161.347 50.7622L161.331 50.7788L161.603 51.8889H161.636C163.365 51.8227 164.831 51.7398 166.626 51.6238H166.758V52.444H163.077L161.24 52.4026V53.5459H161.257L164.304 53.5211H166.766V54.1425C166.766 54.507 166.651 54.6561 166.346 54.6727H166.264C166.033 54.6976 165.819 54.7224 165.498 54.7224L166.05 55.8989C166.077 55.9541 166.154 55.9817 166.28 55.9817C168.125 55.9817 168.306 55.5841 168.306 54.5981L168.273 53.5211H168.496L170.365 53.5625V52.4109L168.257 52.4523L168.24 52.4275ZM168.043 47.1499L168.01 47.8127H166.371V47.1499H168.051H168.043ZM166.363 48.5501H168.043V49.2129H166.363V48.5501ZM165.004 49.2129H163.439V48.5501H165.004V49.2129ZM163.406 47.8127L163.439 47.1499H165.004V47.8127H163.406ZM167.845 50.5799C167.54 50.6048 167.244 50.6213 166.947 50.6379C166.799 50.6379 166.643 50.6545 166.486 50.6628H166.354V50.0082H167.738L167.697 50.1408C167.779 50.2237 167.853 50.2982 167.927 50.3811L168.092 50.5716L167.845 50.5965V50.5799Z" fill="white"/>
<path d="M164.205 53.7199L164.049 53.5791L162.682 54.1922C163.06 54.5733 163.448 55.0953 163.736 55.6006L165.169 54.8219C164.856 54.3745 164.469 53.9768 164.197 53.7199" fill="white"/>
<path d="M175.999 47.1334L177.078 46.3132C176.749 45.8823 176.568 45.6835 176.288 45.4764L176.065 45.3107L175.061 46.0066C175.406 46.338 175.695 46.686 175.983 47.1085L175.999 47.1334Z" fill="white"/>
<path d="M185.923 45.3605L185.964 44.0846L185.948 44.068L184.334 44.1094H181.929L180.496 44.0763V45.2776L182.283 45.2362H182.267L184.367 45.2445V46.6032L184.284 46.6363C183.691 46.8269 183.09 47.0175 182.489 47.1832L182.036 47.3157C181.41 47.4897 180.867 47.6305 180.364 47.7548L180.974 48.9893H181.007C182.135 48.633 183.205 48.3016 184.202 47.9205L184.375 47.8542V48.3431C184.375 48.6082 184.276 48.7242 184.045 48.749C183.815 48.7739 183.568 48.7822 183.271 48.7904L183.658 49.7681C183.708 49.8841 183.708 49.8924 183.856 49.8924C185.478 49.8924 185.997 49.5444 185.997 48.4756L185.931 46.6695V45.3605H185.923Z" fill="white"/>
<path d="M184.663 51.8559L184.704 50.5054V50.4889L182.917 50.5303H180.496L180.611 50.3315C180.751 50.0912 180.883 49.8675 180.998 49.6521L179.672 49.3124L179.722 49.1716C179.788 48.9976 179.821 48.7739 179.821 48.459L179.755 46.6032V45.3605L179.796 44.0846L179.779 44.068L178.173 44.1094H175.768L174.36 44.0763V45.2776H174.368L176.18 45.2362H176.164L178.239 45.2445V46.5784L178.157 46.6115C177.786 46.744 177.391 46.8683 177.045 46.976C176.814 47.0506 176.592 47.1169 176.37 47.1914L175.628 47.4317L175.686 47.382C175.217 47.5146 174.69 47.6554 174.022 47.8211L174.615 49.0473H174.648C175.793 48.691 176.905 48.2851 178.05 47.8045L178.231 47.73V48.3265C178.231 48.5916 178.132 48.7076 177.902 48.7325C177.679 48.7573 177.432 48.7656 177.136 48.7739L177.531 49.8095C177.572 49.9255 177.58 49.9338 177.729 49.9338C178.305 49.9338 178.668 49.9006 178.939 49.8178L179.203 49.7432L179.096 49.9918C179.03 50.1492 178.964 50.3149 178.882 50.4723L178.849 50.5469H177.63L175.859 50.5054L175.9 51.8642V53.3886L175.834 55.9155H177.44V55.3687H183.049V55.8493H184.737L184.672 53.4466V51.8642L184.663 51.8559ZM183.041 54.3331H177.432V53.4715H183.041V54.3331ZM183.041 52.4607H177.432V51.5908H183.041V52.4607Z" fill="white"/>
<path d="M182.102 47.1085L182.118 47.1334L183.214 46.3132C182.95 45.9818 182.703 45.7166 182.382 45.4764L182.16 45.3107L181.163 45.9983C181.468 46.2883 181.731 46.5783 182.094 47.1002" fill="white"/>
<path d="M201.325 47.7133L201.349 46.2137L201.333 46.1972L199.406 46.222H196.688V43.7945L196.671 43.778H194.991L194.975 43.7945V46.222H192.438L190.511 46.1806L190.494 46.1972L190.536 47.705V49.1963L190.47 52.1955H192.183V51.425H194.983V52.2784L194.917 55.9569H196.762L196.696 51.425H199.628V52.0878H201.391L201.325 49.1549V47.705V47.7133ZM194.975 50.116H192.175V47.5311H194.975V50.116ZM199.62 50.116H196.688V47.5311H199.62V50.116Z" fill="white"/>
<path d="M212.467 46.9428H212.484L213.777 45.8326V45.8078C213.184 45.1615 212.508 44.5982 211.66 44.0265H211.603L210.384 44.971C211.117 45.5509 211.825 46.1392 212.459 46.9345" fill="white"/>
<path d="M215.531 52.7673L214.016 52.1707C213.933 53.1235 213.826 53.4963 213.563 53.72C213.258 53.952 212.904 53.9934 211.973 53.9934C211.043 53.9934 210.919 53.8526 210.919 53.3969V47.382L210.886 47.3406H209.272L209.247 47.3654V51.5742L209.223 54.1923C209.223 55.1368 209.453 55.4682 212.047 55.4682C213.999 55.4682 214.493 55.3107 214.93 54.9379C215.284 54.6397 215.481 54.068 215.613 52.8998C215.619 52.8391 215.594 52.7949 215.539 52.7673" fill="white"/>
<path d="M215.663 47.7051H215.614L214.329 48.517V48.5418C215.219 49.7349 215.886 50.8616 216.627 52.4441H216.651L218.109 51.5493V51.5079C217.483 50.1574 216.726 48.981 215.671 47.6968" fill="white"/>
<path d="M206.9 48.749H206.884C206.645 50.2486 206.167 51.7565 205.591 52.9081V52.933L207.09 53.5958H207.123C207.666 52.3447 208.053 51.0274 208.383 49.329L208.366 49.271L206.908 48.749H206.9Z" fill="white"/>
<path d="M80.0418 51.4001V50.1574H88.8131V51.4333H90.4768L90.4191 50.1077L90.4603 49.362L90.4356 49.3372L87.9566 49.3786H80.7007L78.4441 49.3372L78.4358 49.3454L78.4688 50.3148L78.4111 51.4001H80.0418Z" fill="white"/>
<path d="M88.3446 54.6645H85.2561V54.0597H86.9116L89.0694 54.1011L89.0858 54.0845V53.3306L89.0694 53.314H88.3611L88.3693 53.3389L86.9198 53.3555H85.2644V52.6844H85.3797C85.5938 52.6595 85.8079 52.6512 86.0221 52.6429C86.4339 52.6181 86.8621 52.5932 87.2904 52.5601H87.3398L87.3728 52.5849C87.5375 52.7009 87.694 52.8252 87.8587 52.9495L88.1552 53.1732L89.1517 52.4772V52.4607C88.6164 52.0961 88.1799 51.831 87.6857 51.5907L87.1751 51.3422L88.2705 51.3671V50.6545L86.5656 50.696H82.2994L80.5946 50.6545V51.3505H80.6111L82.0771 51.3339L81.9782 51.5245C81.9288 51.6156 81.8712 51.7067 81.8135 51.7979C81.7888 51.8393 81.7559 51.8807 81.7312 51.9221L81.6982 51.9801H81.6241C80.8911 51.9801 80.1004 51.9719 79.2686 51.9553H79.1533L79.1451 51.9636L79.4745 52.8501L79.5157 52.8666C80.8005 52.8335 82.1677 52.7921 83.4525 52.7341H83.5842V53.3389H81.9865L79.8287 53.2975L79.8122 53.314V54.068L79.8287 54.0845L81.9782 54.0431H83.576V54.6479H80.6358L78.4862 54.6065L78.4697 54.6231V55.667L78.4862 55.6835L80.6358 55.6421H88.3528L90.5107 55.6835L90.5271 55.667V54.6231L90.5107 54.6065L88.3611 54.6479L88.3446 54.6645ZM83.6007 51.9801H83.3783L83.4936 51.7896C83.5348 51.7233 83.576 51.657 83.6089 51.5907C83.6501 51.5245 83.6913 51.4499 83.7325 51.3836L83.7654 51.3256H86.5656L85.9891 51.6073C86.0385 51.6322 86.0797 51.657 86.1291 51.6985L86.475 51.9221H86.0633C85.7338 51.9304 85.4044 51.947 85.0832 51.9553C84.5973 51.9719 84.0949 51.9801 83.5925 51.9801" fill="white"/>
<path d="M80.4704 45.2361H83.5589V45.7829H81.5575L79.8609 45.7498H79.8527V46.5203L79.8609 46.5368L81.5575 46.4954H87.4298L89.1346 46.5368L89.1264 45.7498L87.4298 45.7829H85.2719V45.2361H88.3687L90.2053 45.2692L90.197 44.391L88.3687 44.4325H85.2719V43.7945L85.239 43.7697H83.5836L83.5589 43.8028V44.4325H80.4704L78.6338 44.391V44.3993V45.261L78.642 45.2692L80.4704 45.2361Z" fill="white"/>
<path d="M104.477 53.2726H99.3137L99.3302 53.1814C99.3549 53.0489 99.3878 52.9329 99.4126 52.8252L99.429 52.7589H103.481L105.416 52.8003L105.457 52.7672L105.416 51.7233V51.3919L105.457 50.4722L105.416 50.4391L103.481 50.4805H99.2726L97.5349 50.4391L97.4855 50.4805V51.3753L97.5184 51.4084L99.2643 51.367H103.736V51.8641H99.1408L98.0949 51.7647L98.0373 51.7978C97.8808 52.7009 97.6255 53.5957 97.1973 54.6976L98.8196 54.8798C98.8937 54.6562 98.9679 54.4407 99.0337 54.2419L99.0584 54.1673H104.329V54.2502C104.304 54.3745 104.28 54.4905 104.255 54.5899C104.206 54.8136 104.024 54.8384 103.786 54.855C103.176 54.8798 102.921 54.8798 102.649 54.8798L103.151 55.9155C103.193 56.0066 103.217 56.0315 103.349 56.0315H103.72C104.617 56.0315 105.078 55.9238 105.441 55.6338C105.77 55.3687 105.836 54.9461 105.902 54.565V54.5319C105.943 54.3082 106.017 53.8525 106.067 53.2974L106.009 53.2394L104.469 53.2808L104.477 53.2726Z" fill="white"/>
<path d="M102.872 48.3264L101.999 48.3513H101.283L100.402 48.3264L100.352 48.3844L100.377 48.8649V49.3372L100.336 50.0414L100.385 50.0911L101.258 50.0497H102.008L102.889 50.0911L102.938 50.0414L102.905 49.5277H102.914L102.897 49.2792V48.8732L102.922 48.3761L102.872 48.3264ZM101.884 49.4615H101.316V48.9064H101.884V49.4615Z" fill="white"/>
<path d="M99.2571 48.1358L99.2324 48.2021C99.356 48.6329 99.4218 49.0969 99.4383 49.5443L99.496 49.5857L100.081 49.4863L100.13 49.42C100.089 48.9395 100.015 48.5004 99.8912 48.0778L99.8007 48.0447L99.2571 48.1275V48.1358Z" fill="white"/>
<path d="M96.9179 51.5079L95.6414 50.7374C95.1061 52.6595 94.6779 53.8277 94.085 55.0373L94.1179 55.1119L95.5591 55.8244L95.6414 55.7747C96.3003 54.1757 96.6297 53.1981 97.0085 51.7399C97.0332 51.6239 97.0085 51.5576 96.9179 51.5079Z" fill="white"/>
<path d="M96.9178 48.169C96.8519 48.6164 96.7119 49.1052 96.5225 49.5609L97.1895 49.7928C97.1895 49.7928 97.2389 49.8094 97.2472 49.8094C97.2719 49.8094 97.3213 49.8094 97.3625 49.6686C97.5189 49.2212 97.6178 48.7903 97.6919 48.3181L97.6507 48.2435L96.9836 48.1193L96.926 48.1607L96.9178 48.169Z" fill="white"/>
<path d="M95.6574 46.2386L95.7644 46.222L96.8268 45.0124L96.8103 44.9379C96.2586 44.4988 95.9868 44.3165 95.4268 44.0348L95.3115 44.0514L94.2656 45.145V45.1864C94.8421 45.493 95.1303 45.7332 95.6656 46.2386" fill="white"/>
<path d="M106.109 46.2304L105.541 46.4623L105.508 46.5286C105.557 46.628 105.598 46.7192 105.648 46.8103L105.697 46.9097L105.607 46.9263C105.409 46.9512 105.228 46.9677 105.071 46.976H104.923L105.022 46.8683C105.425 46.3795 105.763 45.899 106.191 45.2693L106.167 45.203L105.425 44.7971L105.359 44.8136L105.318 44.8799C105.129 45.203 104.956 45.5096 104.758 45.783L104.717 45.841L104.668 45.7913C104.618 45.7415 104.544 45.6836 104.462 45.609L104.412 45.5676L104.454 45.5179C104.791 45.087 105.03 44.7473 105.351 44.2171L105.327 44.1591L104.511 43.8029L104.445 43.8194C104.281 44.1923 104.091 44.5899 103.803 45.0208L103.77 45.0705L103.721 45.0456C103.671 45.0208 103.622 44.9876 103.572 44.9462H103.49L103.103 45.4599V45.1036L103.045 45.0539L101.901 45.0953H101.234L100.089 45.0539L100.031 45.1036V45.8078L100.089 45.8575L101.234 45.8161H101.901L103.045 45.8575L103.103 45.8078V45.667L103.202 45.7333C103.572 45.9818 103.91 46.2635 104.19 46.5038L104.239 46.5452L104.207 46.5949C104.149 46.6695 104.091 46.7357 104.042 46.8103V46.8269C103.968 46.9014 103.91 46.976 103.852 47.0589L103.836 47.0837H103.811C103.572 47.1003 103.309 47.1003 103.095 47.1003L103.045 47.1583L103.276 47.9702L103.35 48.0034L103.622 47.9619C103.877 47.9288 104.099 47.8956 104.314 47.8625L104.388 47.8459V48.8236L104.322 50.0663H105.467L105.401 48.7656V47.672L105.45 47.6554C105.516 47.6388 105.59 47.6222 105.648 47.6057C105.73 47.5891 105.804 47.5725 105.87 47.5477L105.928 47.5311L105.952 47.5808C105.994 47.6885 106.018 47.7879 106.043 47.8874L106.109 47.9122L106.751 47.6471L106.792 47.5725C106.644 47.0754 106.479 46.6943 106.224 46.2552L106.134 46.2386L106.109 46.2304Z" fill="white"/>
<path d="M103.671 49.8094C103.671 49.8094 103.745 49.8094 103.786 49.6686C103.943 49.2212 104.042 48.7904 104.116 48.3181L104.075 48.2436L103.473 48.1276L103.416 48.1607C103.358 48.4921 103.251 48.9892 103.045 49.5029L103.021 49.5692L103.581 49.7846C103.622 49.8094 103.655 49.8094 103.679 49.8094" fill="white"/>
<path d="M101.25 44.6976H101.974L102.806 44.739L102.864 44.681V44.0845L102.806 44.0348L101.974 44.0679H101.258L100.418 44.0348L100.36 44.0845V44.681L100.418 44.739L101.25 44.6976Z" fill="white"/>
<path d="M96.6458 45.6255C97.0082 45.8658 97.3458 46.1226 97.7987 46.512L97.8482 46.5534L97.8152 46.6032C97.7576 46.6777 97.6999 46.7523 97.6423 46.8269C97.5846 46.9014 97.5187 46.976 97.4611 47.0588L97.4446 47.0837H97.4117C97.1564 47.1003 96.9011 47.1003 96.6705 47.1003L96.6211 47.1583L96.8517 47.9702L96.9258 48.0033L97.1976 47.9702C97.4529 47.937 97.6752 47.9039 97.8893 47.8708L97.9634 47.8542V48.8318L97.8976 50.0746H99.0423L98.9764 48.7738V47.6802L99.0258 47.6636C99.0917 47.6471 99.1658 47.6305 99.2234 47.6139C99.3058 47.5974 99.3799 47.5808 99.4458 47.5559L99.5034 47.5394L99.5282 47.5891C99.5693 47.6885 99.594 47.7962 99.6187 47.8956L99.6846 47.9205L100.385 47.6388V47.9122L100.442 47.9619L101.274 47.9205H101.991L102.831 47.9619L102.888 47.9122V47.3157L102.831 47.266L101.999 47.3074H101.282L100.442 47.266L100.311 47.3985L100.278 47.2991C100.138 46.8931 99.9976 46.5949 99.8082 46.2718L99.7176 46.2552L99.1493 46.4872L99.1164 46.5534C99.1658 46.6529 99.207 46.744 99.2564 46.8351L99.3058 46.9346H99.2152C99.1329 46.9511 99.0423 46.9594 98.9599 46.9677H98.9352C98.8611 46.976 98.787 46.9926 98.7129 46.9926L98.5646 47.0091L98.6634 46.8931C99.0505 46.4292 99.3964 45.9569 99.8329 45.2941L99.8082 45.2278L99.067 44.8219L99.0011 44.8385L98.9599 44.913C98.7705 45.2361 98.5976 45.5344 98.3999 45.8161L98.3587 45.8741L98.3093 45.8244C98.2599 45.7747 98.1858 45.7167 98.1034 45.6504L98.054 45.609L98.0952 45.5593C98.4329 45.1284 98.6634 44.7887 98.9929 44.2668L98.9682 44.2088L98.1529 43.8525L98.0787 43.8691C97.8811 44.2751 97.6999 44.6562 97.4364 45.0704L97.4035 45.1201L97.354 45.0953C97.3046 45.0704 97.2552 45.0373 97.2058 44.9959H97.1234L96.6623 45.5841V45.6587L96.6458 45.6255Z" fill="white"/>
<path d="M101.974 46.2469H101.258L100.418 46.2054L100.36 46.2552V46.8517L100.418 46.9097L101.25 46.8682H101.974L102.806 46.9097L102.864 46.8517V46.2552L102.806 46.2054L101.974 46.2469Z" fill="white"/>
<path d="M95.6574 49.4698L96.6291 48.2105L96.6044 48.1359C95.9456 47.6802 95.5668 47.4565 95.0891 47.2494L94.9738 47.2742L94.0186 48.4176L94.035 48.4673C94.5538 48.7407 94.8997 48.9727 95.5503 49.4946L95.6574 49.4698Z" fill="white"/>
<path d="M106.142 48.0282L105.59 48.2353L105.565 48.3016C105.738 48.7656 105.862 49.1798 105.936 49.5858L106.002 49.6189L106.669 49.4035L106.71 49.3289C106.611 48.9147 106.447 48.4839 106.216 48.0531L106.134 48.0365L106.142 48.0282Z" fill="white"/>
<path d="M88.7552 46.9843L87.5116 47.0257H81.401L80.1493 46.9843L80.1328 47.0008L80.1658 47.6885V48.1939L80.1328 48.8815L80.1493 48.8981L81.401 48.8649H87.5116L88.7634 48.8981L88.7799 48.8815L88.7469 48.1939V47.6968L88.7799 47.0008L88.7634 46.9843H88.7552ZM86.9928 48.2436H81.8293V47.6305H86.9928V48.2436Z" fill="white"/>
<path d="M149.645 61.8724H150.814V66.2801H149.645V61.8724Z" fill="white"/>
<path d="M152.963 61.8724H154.453L155.936 64.8633H155.952L155.936 61.8724H157.006V66.2801H155.557L154.025 63.2643H154.009L154.05 66.2801H152.979V61.8724H152.963Z" fill="white"/>
<path d="M159.107 65.1947C159.412 65.3604 159.832 65.4847 160.31 65.4847C160.68 65.4847 161.034 65.4101 161.034 65.0539C161.034 64.2336 158.959 64.7473 158.959 63.1483C158.959 62.0878 159.988 61.7979 160.87 61.7979C161.29 61.7979 161.701 61.8641 161.998 61.9636L161.924 62.8749C161.619 62.7341 161.281 62.6761 160.952 62.6761C160.655 62.6761 160.17 62.7009 160.17 63.0903C160.17 63.8028 162.245 63.3223 162.245 64.913C162.245 66.0563 161.29 66.3629 160.318 66.3629C159.906 66.3629 159.404 66.2966 159.008 66.1723L159.107 65.203V65.1947Z" fill="white"/>
<path d="M164.946 62.7424H163.867V61.8724H167.194V62.7424H166.115V66.2801H164.946V62.7424Z" fill="white"/>
<path d="M168.999 61.8724H170.168V66.2801H168.999V61.8724Z" fill="white"/>
<path d="M173.051 62.7424H171.972V61.8724H175.299V62.7424H174.22V66.2801H173.051V62.7424Z" fill="white"/>
<path d="M180.834 64.6065C180.834 65.8161 180.051 66.3546 178.915 66.3546C177.778 66.3546 176.996 65.8078 176.996 64.6065V61.8724H178.166V64.4076C178.166 64.9876 178.322 65.4847 178.915 65.4847C179.508 65.4847 179.664 64.9959 179.664 64.4076V61.8724H180.834V64.6065Z" fill="white"/>
<path d="M183.6 62.7424H182.521V61.8724H185.849V62.7424H184.77V66.2801H183.6V62.7424Z" fill="white"/>
<path d="M187.57 61.8724H190.659V62.7092H188.74V63.6206H190.551V64.4574H188.74V65.4516H190.733V66.2883H187.579V61.8807L187.57 61.8724Z" fill="white"/>
<path d="M82.9824 20.8367H78.5762V17.2825H92.1407V20.8367H87.7428V35.2526H82.9824V20.8367Z" fill="white"/>
<path d="M111.809 17.2825H117.491C122.944 17.2825 125.505 19.1383 125.505 23.1814C125.505 26.8102 122.869 28.9726 118.414 28.9726H116.569V35.2526H111.809V17.2825ZM116.569 25.5758H117.796C119.435 25.5758 120.736 24.9875 120.736 23.1068C120.736 21.2261 119.435 20.6876 117.796 20.6876H116.569V25.5758Z" fill="white"/>
<path d="M145.855 17.2825H150.615V35.2526H145.855V17.2825Z" fill="white"/>
</g>
<defs>
<filter id="filter0_d_27_2569" x="0" y="0" width="222.117" height="78" filterUnits="userSpaceOnUse" color-interpolation-filters="sRGB">
<feFlood flood-opacity="0" result="BackgroundImageFix"/>
<feColorMatrix in="SourceAlpha" type="matrix" values="0 0 0 0 0 0 0 0 0 0 0 0 0 0 0 0 0 0 127 0" result="hardAlpha"/>
<feOffset dy="4"/>
<feGaussianBlur stdDeviation="2"/>
<feComposite in2="hardAlpha" operator="out"/>
<feColorMatrix type="matrix" values="0 0 0 0 0 0 0 0 0 0 0 0 0 0 0 0 0 0 0.25 0"/>
<feBlend mode="normal" in2="BackgroundImageFix" result="effect1_dropShadow_27_2569"/>
<feBlend mode="normal" in="SourceGraphic" in2="effect1_dropShadow_27_2569" result="shape"/>
</filter>
<clipPath id="clip0_27_2569">
<rect width="214.118" height="70" fill="white" transform="translate(4)"/>
</clipPath>
</defs>
</svg>
